<svg width="80" height="81" viewBox="0 0 80 81" fill="none" xmlns="http://www.w3.org/2000/svg">
<rect y="0.640625" width="80" height="80" rx="40" fill="#B48C65"/>
<path d="M19.517 44.6406L23.261 36.2406H25.181L28.937 44.6406H26.897L23.825 37.2246H24.593L21.509 44.6406H19.517ZM21.389 42.8406L21.905 41.3646H26.225L26.753 42.8406H21.389ZM31.6085 40.0206H35.6405V41.5806H31.6085V40.0206ZM31.7525 44.6406H29.8085V36.2406H36.1565V37.8006H31.7525V44.6406ZM39.2712 44.6406V37.8246H36.5832V36.2406H43.9032V37.8246H41.2152V44.6406H39.2712ZM46.7371 39.6246H50.7811V41.1366H46.7371V39.6246ZM46.8811 43.0806H51.4531V44.6406H44.9491V36.2406H51.2971V37.8006H46.8811V43.0806ZM52.9999 44.6406V36.2406H56.6359C57.3879 36.2406 58.0359 36.3646 58.5799 36.6126C59.1239 36.8526 59.5439 37.2006 59.8399 37.6566C60.1359 38.1126 60.2839 38.6566 60.2839 39.2886C60.2839 39.9126 60.1359 40.4526 59.8399 40.9086C59.5439 41.3566 59.1239 41.7006 58.5799 41.9406C58.0359 42.1806 57.3879 42.3006 56.6359 42.3006H54.0799L54.9439 41.4486V44.6406H52.9999ZM58.3399 44.6406L56.2399 41.5926H58.3159L60.4399 44.6406H58.3399ZM54.9439 41.6646L54.0799 40.7526H56.5279C57.1279 40.7526 57.5759 40.6246 57.8719 40.3686C58.1679 40.1046 58.3159 39.7446 58.3159 39.2886C58.3159 38.8246 58.1679 38.4646 57.8719 38.2086C57.5759 37.9526 57.1279 37.8246 56.5279 37.8246H54.0799L54.9439 36.9006V41.6646Z" fill="white"/>
</svg>
