<svg width="81" height="81" viewBox="0 0 81 81" fill="none" xmlns="http://www.w3.org/2000/svg">
<rect x="0.984375" y="0.734375" width="80" height="80" rx="40" fill="#9FBDD9"/>
<path d="M20.5014 44.7344L24.2454 36.3344H26.1654L29.9214 44.7344H27.8814L24.8094 37.3184H25.5774L22.4934 44.7344H20.5014ZM22.3734 42.9344L22.8894 41.4584H27.2094L27.7374 42.9344H22.3734ZM32.5929 40.1144H36.6249V41.6744H32.5929V40.1144ZM32.7369 44.7344H30.7929V36.3344H37.1409V37.8944H32.7369V44.7344ZM40.2555 44.7344V37.9184H37.5675V36.3344H44.8875V37.9184H42.1995V44.7344H40.2555ZM47.7215 39.7184H51.7655V41.2304H47.7215V39.7184ZM47.8655 43.1744H52.4375V44.7344H45.9335V36.3344H52.2815V37.8944H47.8655V43.1744ZM53.9843 44.7344V36.3344H57.6203C58.3723 36.3344 59.0203 36.4584 59.5643 36.7064C60.1083 36.9464 60.5283 37.2944 60.8243 37.7504C61.1203 38.2064 61.2683 38.7504 61.2683 39.3824C61.2683 40.0064 61.1203 40.5464 60.8243 41.0024C60.5283 41.4504 60.1083 41.7944 59.5643 42.0344C59.0203 42.2744 58.3723 42.3944 57.6203 42.3944H55.0643L55.9283 41.5424V44.7344H53.9843ZM59.3243 44.7344L57.2243 41.6864H59.3003L61.4243 44.7344H59.3243ZM55.9283 41.7584L55.0643 40.8464H57.5123C58.1123 40.8464 58.5603 40.7184 58.8563 40.4624C59.1523 40.1984 59.3003 39.8384 59.3003 39.3824C59.3003 38.9184 59.1523 38.5584 58.8563 38.3024C58.5603 38.0464 58.1123 37.9184 57.5123 37.9184H55.0643L55.9283 36.9944V41.7584Z" fill="white"/>
</svg>
