<svg width="80" height="80" viewBox="0 0 80 80" fill="none" xmlns="http://www.w3.org/2000/svg">
<rect width="80" height="80" rx="40" fill="#90BE73"/>
<path d="M15.1679 44V35.6H19.2719C20.3279 35.6 21.1199 35.8 21.6479 36.2C22.1839 36.6 22.4519 37.128 22.4519 37.784C22.4519 38.224 22.3439 38.608 22.1279 38.936C21.9119 39.256 21.6159 39.504 21.2399 39.68C20.8639 39.856 20.4319 39.944 19.9439 39.944L20.1719 39.452C20.6999 39.452 21.1679 39.54 21.5759 39.716C21.9839 39.884 22.2999 40.136 22.5239 40.472C22.7559 40.808 22.8719 41.22 22.8719 41.708C22.8719 42.428 22.5879 42.992 22.0199 43.4C21.4519 43.8 20.6159 44 19.5119 44H15.1679ZM17.0999 42.536H19.3679C19.8719 42.536 20.2519 42.456 20.5079 42.296C20.7719 42.128 20.9039 41.864 20.9039 41.504C20.9039 41.152 20.7719 40.892 20.5079 40.724C20.2519 40.548 19.8719 40.46 19.3679 40.46H16.9559V39.044H19.0319C19.5039 39.044 19.8639 38.964 20.1119 38.804C20.3679 38.636 20.4959 38.384 20.4959 38.048C20.4959 37.72 20.3679 37.476 20.1119 37.316C19.8639 37.148 19.5039 37.064 19.0319 37.064H17.0999V42.536ZM26.1317 38.984H30.1757V40.496H26.1317V38.984ZM26.2757 42.44H30.8477V44H24.3437V35.6H30.6917V37.16H26.2757V42.44ZM34.1944 39.38H38.2264V40.94H34.1944V39.38ZM34.3384 44H32.3944V35.6H38.7424V37.16H34.3384V44ZM44.0565 44.144C43.3925 44.144 42.7765 44.036 42.2085 43.82C41.6485 43.604 41.1605 43.3 40.7445 42.908C40.3365 42.516 40.0165 42.056 39.7845 41.528C39.5605 41 39.4485 40.424 39.4485 39.8C39.4485 39.176 39.5605 38.6 39.7845 38.072C40.0165 37.544 40.3405 37.084 40.7565 36.692C41.1725 36.3 41.6605 35.996 42.2205 35.78C42.7805 35.564 43.3885 35.456 44.0445 35.456C44.7085 35.456 45.3165 35.564 45.8685 35.78C46.4285 35.996 46.9125 36.3 47.3205 36.692C47.7365 37.084 48.0605 37.544 48.2925 38.072C48.5245 38.592 48.6405 39.168 48.6405 39.8C48.6405 40.424 48.5245 41.004 48.2925 41.54C48.0605 42.068 47.7365 42.528 47.3205 42.92C46.9125 43.304 46.4285 43.604 45.8685 43.82C45.3165 44.036 44.7125 44.144 44.0565 44.144ZM44.0445 42.488C44.4205 42.488 44.7645 42.424 45.0765 42.296C45.3965 42.168 45.6765 41.984 45.9165 41.744C46.1565 41.504 46.3405 41.22 46.4685 40.892C46.6045 40.564 46.6725 40.2 46.6725 39.8C46.6725 39.4 46.6045 39.036 46.4685 38.708C46.3405 38.38 46.1565 38.096 45.9165 37.856C45.6845 37.616 45.4085 37.432 45.0885 37.304C44.7685 37.176 44.4205 37.112 44.0445 37.112C43.6685 37.112 43.3205 37.176 43.0005 37.304C42.6885 37.432 42.4125 37.616 42.1725 37.856C41.9325 38.096 41.7445 38.38 41.6085 38.708C41.4805 39.036 41.4165 39.4 41.4165 39.8C41.4165 40.192 41.4805 40.556 41.6085 40.892C41.7445 41.22 41.9285 41.504 42.1605 41.744C42.4005 41.984 42.6805 42.168 43.0005 42.296C43.3205 42.424 43.6685 42.488 44.0445 42.488ZM50.1015 44V35.6H53.7375C54.4895 35.6 55.1375 35.724 55.6815 35.972C56.2255 36.212 56.6455 36.56 56.9415 37.016C57.2375 37.472 57.3855 38.016 57.3855 38.648C57.3855 39.272 57.2375 39.812 56.9415 40.268C56.6455 40.716 56.2255 41.06 55.6815 41.3C55.1375 41.54 54.4895 41.66 53.7375 41.66H51.1815L52.0455 40.808V44H50.1015ZM55.4415 44L53.3415 40.952H55.4175L57.5415 44H55.4415ZM52.0455 41.024L51.1815 40.112H53.6295C54.2295 40.112 54.6775 39.984 54.9735 39.728C55.2695 39.464 55.4175 39.104 55.4175 38.648C55.4175 38.184 55.2695 37.824 54.9735 37.568C54.6775 37.312 54.2295 37.184 53.6295 37.184H51.1815L52.0455 36.26V41.024ZM60.7137 38.984H64.7577V40.496H60.7137V38.984ZM60.8577 42.44H65.4297V44H58.9257V35.6H65.2737V37.16H60.8577V42.44Z" fill="white"/>
</svg>
