<svg width="81" height="81" viewBox="0 0 81 81" fill="none" xmlns="http://www.w3.org/2000/svg">
<rect x="0.984375" y="0.734375" width="80" height="80" rx="40" fill="#DFD0A9"/>
<path d="M16.1523 44.7344V36.3344H20.2563C21.3123 36.3344 22.1043 36.5344 22.6323 36.9344C23.1683 37.3344 23.4363 37.8624 23.4363 38.5184C23.4363 38.9584 23.3283 39.3424 23.1123 39.6704C22.8963 39.9904 22.6003 40.2384 22.2243 40.4144C21.8483 40.5904 21.4163 40.6784 20.9283 40.6784L21.1562 40.1864C21.6843 40.1864 22.1523 40.2744 22.5603 40.4504C22.9683 40.6184 23.2843 40.8704 23.5083 41.2064C23.7403 41.5424 23.8563 41.9544 23.8563 42.4424C23.8563 43.1624 23.5723 43.7264 23.0043 44.1344C22.4363 44.5344 21.6003 44.7344 20.4963 44.7344H16.1523ZM18.0843 43.2704H20.3523C20.8563 43.2704 21.2363 43.1904 21.4922 43.0304C21.7563 42.8624 21.8883 42.5984 21.8883 42.2384C21.8883 41.8864 21.7563 41.6264 21.4922 41.4584C21.2363 41.2824 20.8563 41.1944 20.3523 41.1944H17.9403V39.7784H20.0163C20.4883 39.7784 20.8483 39.6984 21.0963 39.5384C21.3523 39.3704 21.4803 39.1184 21.4803 38.7824C21.4803 38.4544 21.3523 38.2104 21.0963 38.0504C20.8483 37.8824 20.4883 37.7984 20.0163 37.7984H18.0843V43.2704ZM27.116 39.7184H31.16V41.2304H27.116V39.7184ZM27.26 43.1744H31.832V44.7344H25.328V36.3344H31.676V37.8944H27.26V43.1744ZM35.1788 40.1144H39.2108V41.6744H35.1788V40.1144ZM35.3228 44.7344H33.3788V36.3344H39.7268V37.8944H35.3228V44.7344ZM45.0408 44.8784C44.3768 44.8784 43.7608 44.7704 43.1928 44.5544C42.6328 44.3384 42.1448 44.0344 41.7288 43.6424C41.3208 43.2504 41.0008 42.7904 40.7688 42.2624C40.5448 41.7344 40.4328 41.1584 40.4328 40.5344C40.4328 39.9104 40.5448 39.3344 40.7688 38.8064C41.0008 38.2784 41.3248 37.8184 41.7408 37.4264C42.1568 37.0344 42.6448 36.7304 43.2048 36.5144C43.7648 36.2984 44.3728 36.1904 45.0288 36.1904C45.6928 36.1904 46.3008 36.2984 46.8528 36.5144C47.4128 36.7304 47.8968 37.0344 48.3048 37.4264C48.7208 37.8184 49.0448 38.2784 49.2768 38.8064C49.5088 39.3264 49.6248 39.9024 49.6248 40.5344C49.6248 41.1584 49.5088 41.7384 49.2768 42.2744C49.0448 42.8024 48.7208 43.2624 48.3048 43.6544C47.8968 44.0384 47.4128 44.3384 46.8528 44.5544C46.3008 44.7704 45.6968 44.8784 45.0408 44.8784ZM45.0288 43.2224C45.4048 43.2224 45.7488 43.1584 46.0608 43.0304C46.3808 42.9024 46.6608 42.7184 46.9008 42.4784C47.1408 42.2384 47.3248 41.9544 47.4528 41.6264C47.5888 41.2984 47.6568 40.9344 47.6568 40.5344C47.6568 40.1344 47.5888 39.7704 47.4528 39.4424C47.3248 39.1144 47.1408 38.8304 46.9008 38.5904C46.6688 38.3504 46.3928 38.1664 46.0728 38.0384C45.7528 37.9104 45.4048 37.8464 45.0288 37.8464C44.6528 37.8464 44.3048 37.9104 43.9848 38.0384C43.6728 38.1664 43.3968 38.3504 43.1568 38.5904C42.9168 38.8304 42.7288 39.1144 42.5928 39.4424C42.4648 39.7704 42.4008 40.1344 42.4008 40.5344C42.4008 40.9264 42.4648 41.2904 42.5928 41.6264C42.7288 41.9544 42.9128 42.2384 43.1448 42.4784C43.3848 42.7184 43.6648 42.9024 43.9848 43.0304C44.3048 43.1584 44.6528 43.2224 45.0288 43.2224ZM51.0858 44.7344V36.3344H54.7218C55.4738 36.3344 56.1218 36.4584 56.6658 36.7064C57.2098 36.9464 57.6298 37.2944 57.9258 37.7504C58.2218 38.2064 58.3698 38.7504 58.3698 39.3824C58.3698 40.0064 58.2218 40.5464 57.9258 41.0024C57.6298 41.4504 57.2098 41.7944 56.6658 42.0344C56.1218 42.2744 55.4738 42.3944 54.7218 42.3944H52.1658L53.0298 41.5424V44.7344H51.0858ZM56.4258 44.7344L54.3258 41.6864H56.4018L58.5258 44.7344H56.4258ZM53.0298 41.7584L52.1658 40.8464H54.6138C55.2138 40.8464 55.6618 40.7184 55.9578 40.4624C56.2538 40.1984 56.4018 39.8384 56.4018 39.3824C56.4018 38.9184 56.2538 38.5584 55.9578 38.3024C55.6618 38.0464 55.2138 37.9184 54.6138 37.9184H52.1658L53.0298 36.9944V41.7584ZM61.6981 39.7184H65.7421V41.2304H61.6981V39.7184ZM61.8421 43.1744H66.4141V44.7344H59.9101V36.3344H66.2581V37.8944H61.8421V43.1744Z" fill="white"/>
</svg>
