<svg width="278" height="161" viewBox="0 0 278 161" fill="none" xmlns="http://www.w3.org/2000/svg">
<g clip-path="url(#clip0_1_182)">
<path d="M139.25 0.25C106.118 0.25 79.25 27.118 79.25 60.25C79.25 93.382 106.118 120.25 139.25 120.25C172.382 120.25 199.25 93.382 199.25 60.25C199.25 27.118 172.382 0.25 139.25 0.25ZM139.25 117.85C107.486 117.85 81.65 92.014 81.65 60.25C81.65 28.486 107.486 2.65 139.25 2.65C171.014 2.65 196.85 28.486 196.85 60.25C196.85 92.014 171.014 117.85 139.25 117.85ZM170.45 57.85H177.65V56.65H170.45V57.85ZM108.05 56.65H100.85V57.85H108.05V56.65ZM172.802 38.566L172.202 37.522L165.962 41.122L166.562 42.166L172.802 38.566ZM105.698 75.934L106.298 76.978L112.538 73.378L111.938 72.334L105.698 75.934ZM158.966 24.298L157.922 23.698L154.322 29.938L155.366 30.538L158.966 24.298ZM139.85 18.85H138.65V26.05H139.85V18.85ZM124.166 29.926L120.566 23.686L119.522 24.286L123.122 30.526L124.166 29.926ZM105.698 38.566L111.938 42.166L112.538 41.122L106.298 37.522L105.698 38.566ZM165.974 73.366L172.214 76.966L172.814 75.922L166.574 72.322L165.974 73.366ZM139.25 31.45C125.33 31.45 114.05 42.73 114.05 56.65C114.05 66.214 119.402 74.506 127.25 78.766V94.342L132.758 99.85H145.754L151.25 94.342V78.766C159.098 74.506 164.45 66.214 164.45 56.65C164.45 42.73 153.17 31.45 139.25 31.45ZM144.758 97.45H133.754L130.154 93.85H148.358L144.758 97.45ZM148.85 92.65H129.65V89.05H148.85V92.65ZM148.85 87.85H129.65V84.25H148.85V87.85ZM148.85 83.05H129.65V79.45H148.85V83.05ZM135.65 64.45C135.65 65.47 136.046 66.334 136.814 66.946C137.462 67.462 138.326 67.75 139.25 67.75C141.038 67.75 142.85 66.622 142.85 64.45C142.85 63.166 141.83 61.87 140.246 60.574C142.31 59.146 144.986 57.694 147.374 56.398C147.806 56.158 148.238 55.93 148.658 55.702C147.41 63.034 145.898 73.582 145.418 77.038H133.082C132.59 73.582 131.09 63.034 129.842 55.702C130.262 55.93 130.694 56.158 131.126 56.398C133.514 57.694 136.19 59.146 138.254 60.574C136.67 61.87 135.65 63.166 135.65 64.45ZM139.25 61.306C140.702 62.422 141.65 63.502 141.65 64.45C141.65 65.902 140.45 66.55 139.25 66.55C138.05 66.55 136.85 65.902 136.85 64.45C136.85 63.502 137.798 62.422 139.25 61.306ZM149.354 77.05H146.618C147.146 73.294 148.754 62.134 149.99 54.97C153.11 53.23 155.534 51.67 156.014 50.242C156.326 49.294 156.314 48.406 155.954 47.662C155.63 46.978 155.042 46.474 154.31 46.234C152.822 45.73 150.818 46.414 150.074 48.658C149.786 49.51 149.378 51.562 148.91 54.19C148.202 54.574 147.494 54.97 146.798 55.342C144.086 56.806 141.338 58.306 139.25 59.806C137.162 58.306 134.402 56.806 131.702 55.342C131.006 54.97 130.286 54.574 129.59 54.19C129.122 51.55 128.714 49.51 128.426 48.658C127.682 46.414 125.69 45.73 124.19 46.234C123.458 46.474 122.87 46.99 122.546 47.662C122.198 48.406 122.174 49.294 122.486 50.242C122.966 51.67 125.378 53.23 128.51 54.97C129.746 62.134 131.354 73.294 131.882 77.05H129.146C121.634 73.318 116.45 65.59 116.45 56.65C116.45 44.074 126.674 33.85 139.25 33.85C151.826 33.85 162.05 44.074 162.05 56.65C162.05 65.59 156.866 73.318 149.354 77.05ZM150.278 53.434C150.662 51.334 150.986 49.738 151.226 49.042C151.634 47.818 152.51 47.278 153.35 47.278C153.554 47.278 153.758 47.314 153.95 47.374C154.37 47.518 154.706 47.806 154.886 48.19C155.102 48.646 155.102 49.222 154.886 49.87C154.574 50.782 152.618 52.09 150.278 53.434ZM128.222 53.434C125.882 52.09 123.926 50.782 123.614 49.858C123.398 49.21 123.398 48.634 123.614 48.178C123.794 47.794 124.13 47.506 124.55 47.362C124.742 47.302 124.946 47.266 125.15 47.266C125.978 47.266 126.866 47.806 127.274 49.03C127.514 49.75 127.85 51.334 128.222 53.434Z" fill="white"/>
</g>
<path d="M88.0644 138.258C88.4804 138.274 89.0244 138.29 89.6964 138.306C90.3684 138.322 91.0404 138.33 91.7124 138.33C92.4804 138.33 93.2244 138.322 93.9444 138.306C94.6644 138.29 95.1764 138.282 95.4804 138.282C97.4644 138.282 98.9444 138.634 99.9204 139.338C100.912 140.042 101.408 140.946 101.408 142.05C101.408 142.61 101.24 143.178 100.904 143.754C100.568 144.33 100.048 144.842 99.3444 145.29C98.6404 145.738 97.7284 146.066 96.6084 146.274V146.322C98.1124 146.434 99.3044 146.706 100.184 147.138C101.064 147.57 101.696 148.09 102.08 148.698C102.464 149.306 102.656 149.938 102.656 150.594C102.656 151.602 102.392 152.45 101.864 153.138C101.336 153.826 100.576 154.354 99.5844 154.722C98.5924 155.074 97.4084 155.25 96.0324 155.25C95.6484 155.25 95.0964 155.242 94.3764 155.226C93.6564 155.194 92.7844 155.178 91.7604 155.178C91.0564 155.178 90.3684 155.186 89.6964 155.202C89.0244 155.202 88.4804 155.218 88.0644 155.25V154.77C88.5764 154.738 88.9604 154.674 89.2164 154.578C89.4724 154.482 89.6404 154.29 89.7204 154.002C89.8164 153.714 89.8644 153.282 89.8644 152.706V140.802C89.8644 140.21 89.8164 139.778 89.7204 139.506C89.6404 139.218 89.4644 139.026 89.1924 138.93C88.9364 138.818 88.5604 138.754 88.0644 138.738V138.258ZM95.1684 138.738C94.5444 138.738 94.1364 138.874 93.9444 139.146C93.7684 139.418 93.6804 139.97 93.6804 140.802V152.706C93.6804 153.266 93.7204 153.69 93.8004 153.978C93.8964 154.266 94.0564 154.458 94.2804 154.554C94.5204 154.65 94.8724 154.698 95.3364 154.698C96.4884 154.698 97.3284 154.338 97.8564 153.618C98.4004 152.882 98.6724 151.842 98.6724 150.498C98.6724 149.266 98.3604 148.314 97.7364 147.642C97.1284 146.97 96.1124 146.634 94.6884 146.634H92.6484C92.6484 146.634 92.6484 146.57 92.6484 146.442C92.6484 146.298 92.6484 146.226 92.6484 146.226H94.7124C95.4644 146.226 96.0404 146.05 96.4404 145.698C96.8404 145.33 97.1204 144.85 97.2804 144.258C97.4404 143.65 97.5204 143.002 97.5204 142.314C97.5204 141.13 97.3364 140.242 96.9684 139.65C96.6004 139.042 96.0004 138.738 95.1684 138.738ZM112.159 142.506C112.671 142.506 113.087 142.618 113.407 142.842C113.727 143.05 113.959 143.322 114.103 143.658C114.263 143.994 114.343 144.346 114.343 144.714C114.343 145.306 114.167 145.794 113.815 146.178C113.479 146.546 113.031 146.73 112.471 146.73C111.911 146.73 111.471 146.594 111.151 146.322C110.847 146.034 110.695 145.658 110.695 145.194C110.695 144.746 110.791 144.378 110.983 144.09C111.191 143.786 111.447 143.53 111.751 143.322C111.527 143.258 111.303 143.266 111.079 143.346C110.775 143.394 110.487 143.522 110.215 143.73C109.943 143.922 109.711 144.17 109.519 144.474C109.327 144.762 109.175 145.082 109.063 145.434C108.951 145.77 108.895 146.098 108.895 146.418V152.778C108.895 153.546 109.079 154.066 109.447 154.338C109.831 154.61 110.399 154.746 111.151 154.746V155.25C110.783 155.234 110.247 155.218 109.543 155.202C108.839 155.17 108.103 155.154 107.335 155.154C106.695 155.154 106.047 155.17 105.391 155.202C104.735 155.218 104.239 155.234 103.903 155.25V154.746C104.463 154.746 104.855 154.626 105.079 154.386C105.319 154.146 105.439 153.69 105.439 153.018V145.458C105.439 144.738 105.327 144.21 105.103 143.874C104.895 143.522 104.495 143.346 103.903 143.346V142.842C104.415 142.89 104.911 142.914 105.391 142.914C106.063 142.914 106.687 142.89 107.263 142.842C107.855 142.778 108.399 142.69 108.895 142.578V144.81C109.087 144.378 109.343 143.986 109.663 143.634C109.983 143.282 110.351 143.01 110.767 142.818C111.183 142.61 111.647 142.506 112.159 142.506ZM118.418 155.418C117.698 155.418 117.098 155.282 116.618 155.01C116.138 154.738 115.786 154.378 115.562 153.93C115.338 153.466 115.226 152.962 115.226 152.418C115.226 151.73 115.378 151.17 115.682 150.738C116.002 150.306 116.41 149.954 116.906 149.682C117.402 149.41 117.922 149.186 118.466 149.01C119.026 148.834 119.554 148.666 120.05 148.506C120.562 148.33 120.97 148.13 121.274 147.906C121.594 147.666 121.754 147.362 121.754 146.994V145.122C121.754 144.706 121.682 144.338 121.538 144.018C121.41 143.682 121.202 143.426 120.914 143.25C120.642 143.074 120.282 142.986 119.834 142.986C119.514 142.986 119.194 143.034 118.874 143.13C118.554 143.21 118.29 143.354 118.082 143.562C118.53 143.722 118.874 143.97 119.114 144.306C119.37 144.626 119.498 144.994 119.498 145.41C119.498 145.954 119.306 146.386 118.922 146.706C118.554 147.026 118.114 147.186 117.602 147.186C117.026 147.186 116.586 147.01 116.282 146.658C115.994 146.29 115.85 145.85 115.85 145.338C115.85 144.874 115.962 144.49 116.186 144.186C116.426 143.882 116.754 143.594 117.17 143.322C117.618 143.066 118.154 142.866 118.778 142.722C119.418 142.578 120.106 142.506 120.842 142.506C121.578 142.506 122.242 142.586 122.834 142.746C123.426 142.89 123.922 143.162 124.322 143.562C124.69 143.93 124.93 144.386 125.042 144.93C125.154 145.458 125.21 146.13 125.21 146.946V153.474C125.21 153.874 125.25 154.154 125.33 154.314C125.41 154.458 125.546 154.53 125.738 154.53C125.882 154.53 126.018 154.49 126.146 154.41C126.29 154.33 126.442 154.234 126.602 154.122L126.842 154.53C126.506 154.818 126.114 155.042 125.666 155.202C125.234 155.346 124.746 155.418 124.202 155.418C123.61 155.418 123.138 155.338 122.786 155.178C122.434 155.002 122.178 154.77 122.018 154.482C121.874 154.194 121.802 153.858 121.802 153.474C121.418 154.082 120.954 154.562 120.41 154.914C119.866 155.25 119.202 155.418 118.418 155.418ZM120.122 153.882C120.442 153.882 120.73 153.81 120.986 153.666C121.258 153.506 121.514 153.25 121.754 152.898V147.978C121.61 148.218 121.41 148.434 121.154 148.626C120.898 148.818 120.626 149.018 120.338 149.226C120.05 149.418 119.77 149.634 119.498 149.874C119.242 150.114 119.034 150.41 118.874 150.762C118.714 151.114 118.634 151.538 118.634 152.034C118.634 152.658 118.77 153.122 119.042 153.426C119.314 153.73 119.674 153.882 120.122 153.882ZM136.456 142.506C137.128 142.506 137.672 142.594 138.088 142.77C138.52 142.93 138.856 143.154 139.096 143.442C139.352 143.746 139.536 144.138 139.648 144.618C139.776 145.098 139.84 145.746 139.84 146.562V153.018C139.84 153.69 139.952 154.146 140.176 154.386C140.416 154.626 140.816 154.746 141.376 154.746V155.25C141.072 155.234 140.616 155.218 140.008 155.202C139.4 155.17 138.8 155.154 138.208 155.154C137.6 155.154 137 155.17 136.408 155.202C135.832 155.218 135.392 155.234 135.088 155.25V154.746C135.568 154.746 135.904 154.626 136.096 154.386C136.288 154.146 136.384 153.69 136.384 153.018V145.554C136.384 145.154 136.344 144.81 136.264 144.522C136.184 144.218 136.04 143.986 135.832 143.826C135.624 143.65 135.312 143.562 134.896 143.562C134.464 143.562 134.064 143.682 133.696 143.922C133.344 144.162 133.056 144.498 132.832 144.93C132.624 145.346 132.52 145.818 132.52 146.346V153.018C132.52 153.69 132.616 154.146 132.808 154.386C133.016 154.626 133.352 154.746 133.816 154.746V155.25C133.528 155.234 133.104 155.218 132.544 155.202C132 155.17 131.432 155.154 130.84 155.154C130.232 155.154 129.608 155.17 128.968 155.202C128.328 155.218 127.848 155.234 127.528 155.25V154.746C128.088 154.746 128.48 154.626 128.704 154.386C128.944 154.146 129.064 153.69 129.064 153.018V145.458C129.064 144.738 128.952 144.21 128.728 143.874C128.52 143.522 128.12 143.346 127.528 143.346V142.842C128.04 142.89 128.536 142.914 129.016 142.914C129.688 142.914 130.312 142.89 130.888 142.842C131.48 142.778 132.024 142.69 132.52 142.578V144.738C132.92 143.922 133.464 143.346 134.152 143.01C134.84 142.674 135.608 142.506 136.456 142.506ZM154.078 136.458V152.61C154.078 153.33 154.19 153.866 154.414 154.218C154.638 154.554 155.038 154.722 155.614 154.722V155.226C155.118 155.178 154.622 155.154 154.126 155.154C153.454 155.154 152.822 155.178 152.23 155.226C151.654 155.274 151.118 155.362 150.622 155.49V139.338C150.622 138.618 150.51 138.09 150.286 137.754C150.078 137.402 149.678 137.226 149.086 137.226V136.722C149.598 136.77 150.094 136.794 150.574 136.794C151.23 136.794 151.854 136.77 152.446 136.722C153.038 136.658 153.582 136.57 154.078 136.458ZM147.958 142.506C148.662 142.506 149.278 142.626 149.806 142.866C150.35 143.09 150.774 143.474 151.078 144.018L150.79 144.282C150.582 143.898 150.302 143.626 149.95 143.466C149.614 143.29 149.254 143.202 148.87 143.202C148.054 143.202 147.406 143.682 146.926 144.642C146.446 145.586 146.214 147.05 146.23 149.034C146.23 150.394 146.318 151.482 146.494 152.298C146.686 153.098 146.95 153.674 147.286 154.026C147.638 154.378 148.038 154.554 148.486 154.554C149.03 154.554 149.518 154.338 149.95 153.906C150.382 153.474 150.614 152.89 150.646 152.154L150.766 152.994C150.526 153.842 150.134 154.49 149.59 154.938C149.062 155.37 148.366 155.586 147.502 155.586C146.558 155.586 145.71 155.354 144.958 154.89C144.222 154.426 143.646 153.714 143.23 152.754C142.814 151.778 142.606 150.522 142.606 148.986C142.606 147.53 142.838 146.33 143.302 145.386C143.766 144.426 144.398 143.706 145.198 143.226C146.014 142.746 146.934 142.506 147.958 142.506ZM159.733 136.65C160.405 136.65 160.933 136.818 161.317 137.154C161.717 137.474 161.917 137.922 161.917 138.498C161.917 139.074 161.717 139.53 161.317 139.866C160.933 140.186 160.405 140.346 159.733 140.346C159.061 140.346 158.525 140.186 158.125 139.866C157.741 139.53 157.549 139.074 157.549 138.498C157.549 137.922 157.741 137.474 158.125 137.154C158.525 136.818 159.061 136.65 159.733 136.65ZM161.605 142.578V153.018C161.605 153.69 161.717 154.146 161.941 154.386C162.181 154.626 162.581 154.746 163.141 154.746V155.25C162.853 155.234 162.405 155.218 161.797 155.202C161.189 155.17 160.573 155.154 159.949 155.154C159.325 155.154 158.693 155.17 158.053 155.202C157.413 155.218 156.933 155.234 156.613 155.25V154.746C157.173 154.746 157.565 154.626 157.789 154.386C158.029 154.146 158.149 153.69 158.149 153.018V145.458C158.149 144.738 158.037 144.21 157.813 143.874C157.605 143.522 157.205 143.346 156.613 143.346V142.842C157.125 142.89 157.621 142.914 158.101 142.914C158.773 142.914 159.397 142.89 159.973 142.842C160.565 142.778 161.109 142.69 161.605 142.578ZM173.112 142.506C173.784 142.506 174.328 142.594 174.744 142.77C175.176 142.93 175.512 143.154 175.752 143.442C176.008 143.746 176.192 144.138 176.304 144.618C176.432 145.098 176.496 145.746 176.496 146.562V153.018C176.496 153.69 176.608 154.146 176.832 154.386C177.072 154.626 177.472 154.746 178.032 154.746V155.25C177.728 155.234 177.272 155.218 176.664 155.202C176.056 155.17 175.456 155.154 174.864 155.154C174.256 155.154 173.656 155.17 173.064 155.202C172.488 155.218 172.048 155.234 171.744 155.25V154.746C172.224 154.746 172.56 154.626 172.752 154.386C172.944 154.146 173.04 153.69 173.04 153.018V145.554C173.04 145.154 173 144.81 172.92 144.522C172.84 144.218 172.696 143.986 172.488 143.826C172.28 143.65 171.968 143.562 171.552 143.562C171.12 143.562 170.72 143.682 170.352 143.922C170 144.162 169.712 144.498 169.488 144.93C169.28 145.346 169.176 145.818 169.176 146.346V153.018C169.176 153.69 169.272 154.146 169.464 154.386C169.672 154.626 170.008 154.746 170.472 154.746V155.25C170.184 155.234 169.76 155.218 169.2 155.202C168.656 155.17 168.088 155.154 167.496 155.154C166.888 155.154 166.264 155.17 165.624 155.202C164.984 155.218 164.504 155.234 164.184 155.25V154.746C164.744 154.746 165.136 154.626 165.36 154.386C165.6 154.146 165.72 153.69 165.72 153.018V145.458C165.72 144.738 165.608 144.21 165.384 143.874C165.176 143.522 164.776 143.346 164.184 143.346V142.842C164.696 142.89 165.192 142.914 165.672 142.914C166.344 142.914 166.968 142.89 167.544 142.842C168.136 142.778 168.68 142.69 169.176 142.578V144.738C169.576 143.922 170.12 143.346 170.808 143.01C171.496 142.674 172.264 142.506 173.112 142.506ZM183.418 159.762C182.426 159.762 181.538 159.674 180.754 159.498C179.986 159.338 179.378 159.082 178.93 158.73C178.498 158.394 178.282 157.978 178.282 157.482C178.282 156.986 178.506 156.538 178.954 156.138C179.402 155.754 180.066 155.45 180.946 155.226L181.162 155.61C180.858 155.85 180.634 156.106 180.49 156.378C180.362 156.666 180.298 156.962 180.298 157.266C180.298 157.938 180.602 158.45 181.21 158.802C181.834 159.17 182.674 159.354 183.73 159.354C184.45 159.354 185.09 159.258 185.65 159.066C186.226 158.874 186.674 158.586 186.994 158.202C187.33 157.818 187.498 157.346 187.498 156.786C187.498 156.306 187.322 155.898 186.97 155.562C186.618 155.242 185.914 155.082 184.858 155.082H183.37C182.714 155.082 182.138 155.01 181.642 154.866C181.162 154.722 180.786 154.498 180.514 154.194C180.242 153.874 180.106 153.474 180.106 152.994C180.106 152.322 180.37 151.73 180.898 151.218C181.426 150.706 182.21 150.226 183.25 149.778L183.49 149.97C183.186 150.162 182.898 150.37 182.626 150.594C182.37 150.802 182.242 151.074 182.242 151.41C182.242 151.922 182.562 152.178 183.202 152.178H185.818C186.698 152.178 187.482 152.282 188.17 152.49C188.874 152.698 189.426 153.042 189.826 153.522C190.242 153.986 190.45 154.594 190.45 155.346C190.45 156.13 190.194 156.858 189.682 157.53C189.186 158.202 188.418 158.738 187.378 159.138C186.338 159.554 185.018 159.762 183.418 159.762ZM183.658 150.138C182.746 150.138 181.93 150.002 181.21 149.73C180.49 149.458 179.922 149.042 179.506 148.482C179.09 147.922 178.882 147.202 178.882 146.322C178.882 145.442 179.09 144.722 179.506 144.162C179.922 143.586 180.49 143.17 181.21 142.914C181.93 142.642 182.746 142.506 183.658 142.506C184.57 142.506 185.386 142.642 186.106 142.914C186.826 143.17 187.394 143.586 187.81 144.162C188.226 144.722 188.434 145.442 188.434 146.322C188.434 147.202 188.226 147.922 187.81 148.482C187.394 149.042 186.826 149.458 186.106 149.73C185.386 150.002 184.57 150.138 183.658 150.138ZM183.658 149.706C184.09 149.706 184.426 149.466 184.666 148.986C184.906 148.49 185.026 147.602 185.026 146.322C185.026 145.042 184.906 144.162 184.666 143.682C184.426 143.186 184.09 142.938 183.658 142.938C183.242 142.938 182.906 143.186 182.65 143.682C182.41 144.162 182.29 145.042 182.29 146.322C182.29 147.602 182.41 148.49 182.65 148.986C182.906 149.466 183.242 149.706 183.658 149.706ZM187.402 144.57L186.922 144.402C187.162 143.778 187.546 143.258 188.074 142.842C188.618 142.426 189.202 142.218 189.826 142.218C190.338 142.218 190.722 142.362 190.978 142.65C191.25 142.922 191.386 143.282 191.386 143.73C191.386 144.21 191.258 144.57 191.002 144.81C190.746 145.034 190.458 145.146 190.138 145.146C189.866 145.146 189.61 145.05 189.37 144.858C189.146 144.666 189.018 144.378 188.986 143.994C188.954 143.594 189.09 143.082 189.394 142.458L189.562 142.602C188.954 142.826 188.498 143.09 188.194 143.394C187.89 143.682 187.626 144.074 187.402 144.57Z" fill="white"/>
<defs>
<clipPath id="clip0_1_182">
<rect width="120" height="120" fill="white" transform="translate(79.25 0.25)"/>
</clipPath>
</defs>
</svg>
