<svg width="278" height="161" viewBox="0 0 278 161" fill="none" xmlns="http://www.w3.org/2000/svg">
<g clip-path="url(#clip0_1_207)">
<path d="M172.65 46.162L161.55 57.274V23.05H108.75V97.45H161.55V77.638L182.838 56.35L172.65 46.162ZM159.15 95.05H111.15V25.45H159.15V59.674L148.974 69.85H118.35V71.05H147.774L141.774 77.05H118.35V78.25H140.91L139.53 84.25H118.35V85.45H139.254L137.958 91.042L151.194 87.994L159.15 80.038V95.05ZM142.95 80.098L148.902 86.05L141.162 87.838L142.95 80.098ZM150.162 85.618L143.37 78.826L167.55 54.646L171.798 58.894L147.618 83.074L148.47 83.926L172.65 59.746L174.342 61.438L150.162 85.618ZM168.414 53.806L172.662 49.558L179.454 56.35L175.206 60.598L168.414 53.806ZM138.75 0.25C105.618 0.25 78.75 27.118 78.75 60.25C78.75 93.382 105.618 120.25 138.75 120.25C171.882 120.25 198.75 93.382 198.75 60.25C198.75 27.118 171.882 0.25 138.75 0.25ZM138.75 117.85C106.986 117.85 81.15 92.014 81.15 60.25C81.15 28.486 106.986 2.65 138.75 2.65C170.514 2.65 196.35 28.486 196.35 60.25C196.35 92.014 170.514 117.85 138.75 117.85ZM151.95 62.65H118.35V63.85H151.95V62.65ZM139.95 32.65H118.35V54.25H139.95V32.65ZM138.75 53.05H119.55V33.85H138.75V53.05Z" fill="white"/>
</g>
<path d="M52.9796 137.922C54.0356 137.922 54.8996 138.082 55.5716 138.402C56.2596 138.706 56.8676 139.066 57.3956 139.482C57.7156 139.722 57.9556 139.754 58.1156 139.578C58.2916 139.386 58.4116 138.946 58.4756 138.258H59.0276C58.9956 138.882 58.9716 139.642 58.9556 140.538C58.9396 141.418 58.9316 142.594 58.9316 144.066H58.3796C58.2996 143.33 58.1956 142.706 58.0676 142.194C57.9396 141.666 57.7636 141.202 57.5396 140.802C57.3156 140.402 56.9956 140.042 56.5796 139.722C56.1796 139.322 55.7156 139.026 55.1876 138.834C54.6596 138.642 54.1076 138.546 53.5316 138.546C52.6676 138.546 51.9316 138.778 51.3236 139.242C50.7156 139.69 50.2196 140.306 49.8356 141.09C49.4676 141.874 49.1956 142.762 49.0196 143.754C48.8436 144.73 48.7556 145.746 48.7556 146.802C48.7556 147.874 48.8436 148.906 49.0196 149.898C49.2116 150.874 49.4996 151.746 49.8836 152.514C50.2836 153.282 50.7956 153.89 51.4196 154.338C52.0436 154.786 52.7796 155.01 53.6276 155.01C54.1556 155.01 54.6836 154.914 55.2116 154.722C55.7556 154.514 56.2196 154.218 56.6036 153.834C57.2276 153.354 57.6516 152.762 57.8756 152.058C58.0996 151.338 58.2676 150.386 58.3796 149.202H58.9316C58.9316 150.722 58.9396 151.954 58.9556 152.898C58.9716 153.826 58.9956 154.61 59.0276 155.25H58.4756C58.4116 154.562 58.2996 154.13 58.1396 153.954C57.9956 153.778 57.7476 153.802 57.3956 154.026C56.8036 154.442 56.1716 154.81 55.4996 155.13C54.8436 155.434 53.9956 155.586 52.9556 155.586C51.2596 155.586 49.7716 155.242 48.4916 154.554C47.2276 153.866 46.2436 152.874 45.5396 151.578C44.8356 150.282 44.4836 148.722 44.4836 146.898C44.4836 145.106 44.8436 143.538 45.5636 142.194C46.2996 140.85 47.2996 139.802 48.5636 139.05C49.8436 138.298 51.3156 137.922 52.9796 137.922ZM67.1414 142.506C68.3094 142.506 69.3334 142.722 70.2134 143.154C71.0934 143.586 71.7814 144.282 72.2774 145.242C72.7734 146.202 73.0214 147.474 73.0214 149.058C73.0214 150.642 72.7734 151.914 72.2774 152.874C71.7814 153.818 71.0934 154.506 70.2134 154.938C69.3334 155.37 68.3094 155.586 67.1414 155.586C66.0054 155.586 64.9894 155.37 64.0934 154.938C63.2134 154.506 62.5174 153.818 62.0054 152.874C61.5094 151.914 61.2614 150.642 61.2614 149.058C61.2614 147.474 61.5094 146.202 62.0054 145.242C62.5174 144.282 63.2134 143.586 64.0934 143.154C64.9894 142.722 66.0054 142.506 67.1414 142.506ZM67.1414 142.986C66.5014 142.986 65.9654 143.466 65.5334 144.426C65.1014 145.37 64.8854 146.914 64.8854 149.058C64.8854 151.202 65.1014 152.746 65.5334 153.69C65.9654 154.634 66.5014 155.106 67.1414 155.106C67.7974 155.106 68.3334 154.634 68.7494 153.69C69.1814 152.746 69.3974 151.202 69.3974 149.058C69.3974 146.914 69.1814 145.37 68.7494 144.426C68.3334 143.466 67.7974 142.986 67.1414 142.986ZM83.4477 142.506C84.1197 142.506 84.6637 142.594 85.0797 142.77C85.5117 142.93 85.8477 143.154 86.0877 143.442C86.3437 143.746 86.5277 144.138 86.6397 144.618C86.7677 145.098 86.8317 145.746 86.8317 146.562V153.018C86.8317 153.69 86.9437 154.146 87.1677 154.386C87.4077 154.626 87.8077 154.746 88.3677 154.746V155.25C88.0637 155.234 87.6077 155.218 86.9997 155.202C86.3917 155.17 85.7917 155.154 85.1997 155.154C84.5917 155.154 83.9917 155.17 83.3997 155.202C82.8237 155.218 82.3837 155.234 82.0797 155.25V154.746C82.5597 154.746 82.8957 154.626 83.0877 154.386C83.2797 154.146 83.3757 153.69 83.3757 153.018V145.554C83.3757 145.154 83.3357 144.81 83.2557 144.522C83.1757 144.218 83.0317 143.986 82.8237 143.826C82.6157 143.65 82.3037 143.562 81.8877 143.562C81.4557 143.562 81.0557 143.682 80.6877 143.922C80.3357 144.162 80.0477 144.498 79.8237 144.93C79.6157 145.346 79.5117 145.818 79.5117 146.346V153.018C79.5117 153.69 79.6077 154.146 79.7997 154.386C80.0077 154.626 80.3437 154.746 80.8077 154.746V155.25C80.5197 155.234 80.0957 155.218 79.5357 155.202C78.9917 155.17 78.4237 155.154 77.8317 155.154C77.2237 155.154 76.5997 155.17 75.9597 155.202C75.3197 155.218 74.8397 155.234 74.5197 155.25V154.746C75.0797 154.746 75.4717 154.626 75.6957 154.386C75.9357 154.146 76.0557 153.69 76.0557 153.018V145.458C76.0557 144.738 75.9437 144.21 75.7197 143.874C75.5117 143.522 75.1117 143.346 74.5197 143.346V142.842C75.0317 142.89 75.5277 142.914 76.0077 142.914C76.6797 142.914 77.3037 142.89 77.8797 142.842C78.4717 142.778 79.0157 142.69 79.5117 142.578V144.738C79.9117 143.922 80.4557 143.346 81.1437 143.01C81.8317 142.674 82.5997 142.506 83.4477 142.506ZM94.1339 138.906V142.842H96.9659V143.322H94.1339V153.018C94.1339 153.498 94.2219 153.842 94.3979 154.05C94.5739 154.242 94.8379 154.338 95.1899 154.338C95.4779 154.338 95.7659 154.234 96.0539 154.026C96.3419 153.802 96.5979 153.426 96.8219 152.898L97.2299 153.114C96.9739 153.834 96.5819 154.426 96.0539 154.89C95.5419 155.354 94.8379 155.586 93.9419 155.586C93.4139 155.586 92.9499 155.514 92.5499 155.37C92.1499 155.242 91.8139 155.042 91.5419 154.77C91.1899 154.418 90.9579 153.986 90.8459 153.474C90.7339 152.946 90.6779 152.266 90.6779 151.434V143.322H88.6619V142.842H90.6779V139.674C91.3499 139.674 91.9659 139.618 92.5259 139.506C93.1019 139.378 93.6379 139.178 94.1339 138.906ZM103.798 142.506C105.206 142.506 106.31 142.922 107.11 143.754C107.91 144.586 108.31 145.946 108.31 147.834H100.414L100.366 147.378H105.286C105.302 146.594 105.254 145.874 105.142 145.218C105.03 144.546 104.854 144.01 104.614 143.61C104.374 143.21 104.054 143.01 103.654 143.01C103.094 143.01 102.614 143.362 102.214 144.066C101.83 144.77 101.598 145.938 101.518 147.57L101.59 147.714C101.574 147.906 101.558 148.106 101.542 148.314C101.542 148.522 101.542 148.738 101.542 148.962C101.542 150.066 101.694 150.962 101.998 151.65C102.318 152.338 102.718 152.842 103.198 153.162C103.678 153.466 104.166 153.618 104.662 153.618C104.998 153.618 105.342 153.57 105.694 153.474C106.062 153.362 106.43 153.17 106.798 152.898C107.166 152.61 107.51 152.21 107.83 151.698L108.262 151.842C108.07 152.45 107.766 153.042 107.35 153.618C106.934 154.194 106.406 154.666 105.766 155.034C105.126 155.402 104.358 155.586 103.462 155.586C102.374 155.586 101.414 155.354 100.582 154.89C99.7497 154.426 99.0937 153.722 98.6137 152.778C98.1497 151.834 97.9177 150.634 97.9177 149.178C97.9177 147.69 98.1657 146.45 98.6617 145.458C99.1737 144.466 99.8697 143.73 100.75 143.25C101.646 142.754 102.662 142.506 103.798 142.506ZM118.487 142.506C119.159 142.506 119.703 142.594 120.119 142.77C120.551 142.93 120.887 143.154 121.127 143.442C121.383 143.746 121.567 144.138 121.679 144.618C121.807 145.098 121.871 145.746 121.871 146.562V153.018C121.871 153.69 121.983 154.146 122.207 154.386C122.447 154.626 122.847 154.746 123.407 154.746V155.25C123.103 155.234 122.647 155.218 122.039 155.202C121.431 155.17 120.831 155.154 120.239 155.154C119.631 155.154 119.031 155.17 118.439 155.202C117.863 155.218 117.423 155.234 117.119 155.25V154.746C117.599 154.746 117.935 154.626 118.127 154.386C118.319 154.146 118.415 153.69 118.415 153.018V145.554C118.415 145.154 118.375 144.81 118.295 144.522C118.215 144.218 118.071 143.986 117.863 143.826C117.655 143.65 117.343 143.562 116.927 143.562C116.495 143.562 116.095 143.682 115.727 143.922C115.375 144.162 115.087 144.498 114.863 144.93C114.655 145.346 114.551 145.818 114.551 146.346V153.018C114.551 153.69 114.647 154.146 114.839 154.386C115.047 154.626 115.383 154.746 115.847 154.746V155.25C115.559 155.234 115.135 155.218 114.575 155.202C114.031 155.17 113.463 155.154 112.871 155.154C112.263 155.154 111.639 155.17 110.999 155.202C110.359 155.218 109.879 155.234 109.559 155.25V154.746C110.119 154.746 110.511 154.626 110.735 154.386C110.975 154.146 111.095 153.69 111.095 153.018V145.458C111.095 144.738 110.983 144.21 110.759 143.874C110.551 143.522 110.151 143.346 109.559 143.346V142.842C110.071 142.89 110.567 142.914 111.047 142.914C111.719 142.914 112.343 142.89 112.919 142.842C113.511 142.778 114.055 142.69 114.551 142.578V144.738C114.951 143.922 115.495 143.346 116.183 143.01C116.871 142.674 117.639 142.506 118.487 142.506ZM129.173 138.906V142.842H132.005V143.322H129.173V153.018C129.173 153.498 129.261 153.842 129.437 154.05C129.613 154.242 129.877 154.338 130.229 154.338C130.517 154.338 130.805 154.234 131.093 154.026C131.381 153.802 131.637 153.426 131.861 152.898L132.269 153.114C132.013 153.834 131.621 154.426 131.093 154.89C130.581 155.354 129.877 155.586 128.981 155.586C128.453 155.586 127.989 155.514 127.589 155.37C127.189 155.242 126.853 155.042 126.581 154.77C126.229 154.418 125.997 153.986 125.885 153.474C125.773 152.946 125.717 152.266 125.717 151.434V143.322H123.701V142.842H125.717V139.674C126.389 139.674 127.005 139.618 127.565 139.506C128.141 139.378 128.677 139.178 129.173 138.906ZM147.128 137.922C148.184 137.922 149.048 138.082 149.72 138.402C150.408 138.706 151.016 139.066 151.544 139.482C151.864 139.722 152.104 139.754 152.264 139.578C152.44 139.386 152.56 138.946 152.624 138.258H153.176C153.144 138.882 153.12 139.642 153.104 140.538C153.088 141.418 153.08 142.594 153.08 144.066H152.528C152.448 143.33 152.344 142.706 152.216 142.194C152.088 141.666 151.912 141.202 151.688 140.802C151.464 140.402 151.144 140.042 150.728 139.722C150.328 139.322 149.864 139.026 149.336 138.834C148.808 138.642 148.256 138.546 147.68 138.546C146.816 138.546 146.08 138.778 145.472 139.242C144.864 139.69 144.368 140.306 143.984 141.09C143.616 141.874 143.344 142.762 143.168 143.754C142.992 144.73 142.904 145.746 142.904 146.802C142.904 147.874 142.992 148.906 143.168 149.898C143.36 150.874 143.648 151.746 144.032 152.514C144.432 153.282 144.944 153.89 145.568 154.338C146.192 154.786 146.928 155.01 147.776 155.01C148.304 155.01 148.832 154.914 149.36 154.722C149.904 154.514 150.368 154.218 150.752 153.834C151.376 153.354 151.8 152.762 152.024 152.058C152.248 151.338 152.416 150.386 152.528 149.202H153.08C153.08 150.722 153.088 151.954 153.104 152.898C153.12 153.826 153.144 154.61 153.176 155.25H152.624C152.56 154.562 152.448 154.13 152.288 153.954C152.144 153.778 151.896 153.802 151.544 154.026C150.952 154.442 150.32 154.81 149.648 155.13C148.992 155.434 148.144 155.586 147.104 155.586C145.408 155.586 143.92 155.242 142.64 154.554C141.376 153.866 140.392 152.874 139.688 151.578C138.984 150.282 138.632 148.722 138.632 146.898C138.632 145.106 138.992 143.538 139.712 142.194C140.448 140.85 141.448 139.802 142.712 139.05C143.992 138.298 145.464 137.922 147.128 137.922ZM163.354 142.506C163.866 142.506 164.282 142.618 164.602 142.842C164.922 143.05 165.154 143.322 165.298 143.658C165.458 143.994 165.538 144.346 165.538 144.714C165.538 145.306 165.362 145.794 165.01 146.178C164.674 146.546 164.226 146.73 163.666 146.73C163.106 146.73 162.666 146.594 162.346 146.322C162.042 146.034 161.89 145.658 161.89 145.194C161.89 144.746 161.986 144.378 162.178 144.09C162.386 143.786 162.642 143.53 162.946 143.322C162.722 143.258 162.498 143.266 162.274 143.346C161.97 143.394 161.682 143.522 161.41 143.73C161.138 143.922 160.906 144.17 160.714 144.474C160.522 144.762 160.37 145.082 160.258 145.434C160.146 145.77 160.09 146.098 160.09 146.418V152.778C160.09 153.546 160.274 154.066 160.642 154.338C161.026 154.61 161.594 154.746 162.346 154.746V155.25C161.978 155.234 161.442 155.218 160.738 155.202C160.034 155.17 159.298 155.154 158.53 155.154C157.89 155.154 157.242 155.17 156.586 155.202C155.93 155.218 155.434 155.234 155.098 155.25V154.746C155.658 154.746 156.05 154.626 156.274 154.386C156.514 154.146 156.634 153.69 156.634 153.018V145.458C156.634 144.738 156.522 144.21 156.298 143.874C156.09 143.522 155.69 143.346 155.098 143.346V142.842C155.61 142.89 156.106 142.914 156.586 142.914C157.258 142.914 157.882 142.89 158.458 142.842C159.05 142.778 159.594 142.69 160.09 142.578V144.81C160.282 144.378 160.538 143.986 160.858 143.634C161.178 143.282 161.546 143.01 161.962 142.818C162.378 142.61 162.842 142.506 163.354 142.506ZM172.165 142.506C173.573 142.506 174.677 142.922 175.477 143.754C176.277 144.586 176.677 145.946 176.677 147.834H168.781L168.733 147.378H173.653C173.669 146.594 173.621 145.874 173.509 145.218C173.397 144.546 173.221 144.01 172.981 143.61C172.741 143.21 172.421 143.01 172.021 143.01C171.461 143.01 170.981 143.362 170.581 144.066C170.197 144.77 169.965 145.938 169.885 147.57L169.957 147.714C169.941 147.906 169.925 148.106 169.909 148.314C169.909 148.522 169.909 148.738 169.909 148.962C169.909 150.066 170.061 150.962 170.365 151.65C170.685 152.338 171.085 152.842 171.565 153.162C172.045 153.466 172.533 153.618 173.029 153.618C173.365 153.618 173.709 153.57 174.061 153.474C174.429 153.362 174.797 153.17 175.165 152.898C175.533 152.61 175.877 152.21 176.197 151.698L176.629 151.842C176.437 152.45 176.133 153.042 175.717 153.618C175.301 154.194 174.773 154.666 174.133 155.034C173.493 155.402 172.725 155.586 171.829 155.586C170.741 155.586 169.781 155.354 168.949 154.89C168.117 154.426 167.461 153.722 166.981 152.778C166.517 151.834 166.285 150.634 166.285 149.178C166.285 147.69 166.533 146.45 167.029 145.458C167.541 144.466 168.237 143.73 169.117 143.25C170.013 142.754 171.029 142.506 172.165 142.506ZM181.379 155.418C180.659 155.418 180.059 155.282 179.579 155.01C179.099 154.738 178.747 154.378 178.523 153.93C178.299 153.466 178.187 152.962 178.187 152.418C178.187 151.73 178.339 151.17 178.643 150.738C178.963 150.306 179.371 149.954 179.867 149.682C180.363 149.41 180.883 149.186 181.427 149.01C181.987 148.834 182.515 148.666 183.011 148.506C183.523 148.33 183.931 148.13 184.235 147.906C184.555 147.666 184.715 147.362 184.715 146.994V145.122C184.715 144.706 184.643 144.338 184.499 144.018C184.371 143.682 184.163 143.426 183.875 143.25C183.603 143.074 183.243 142.986 182.795 142.986C182.475 142.986 182.155 143.034 181.835 143.13C181.515 143.21 181.251 143.354 181.043 143.562C181.491 143.722 181.835 143.97 182.075 144.306C182.331 144.626 182.459 144.994 182.459 145.41C182.459 145.954 182.267 146.386 181.883 146.706C181.515 147.026 181.075 147.186 180.563 147.186C179.987 147.186 179.547 147.01 179.243 146.658C178.955 146.29 178.811 145.85 178.811 145.338C178.811 144.874 178.923 144.49 179.147 144.186C179.387 143.882 179.715 143.594 180.131 143.322C180.579 143.066 181.115 142.866 181.739 142.722C182.379 142.578 183.067 142.506 183.803 142.506C184.539 142.506 185.203 142.586 185.795 142.746C186.387 142.89 186.883 143.162 187.283 143.562C187.651 143.93 187.891 144.386 188.003 144.93C188.115 145.458 188.171 146.13 188.171 146.946V153.474C188.171 153.874 188.211 154.154 188.291 154.314C188.371 154.458 188.507 154.53 188.699 154.53C188.843 154.53 188.979 154.49 189.107 154.41C189.251 154.33 189.403 154.234 189.563 154.122L189.803 154.53C189.467 154.818 189.075 155.042 188.627 155.202C188.195 155.346 187.707 155.418 187.163 155.418C186.571 155.418 186.099 155.338 185.747 155.178C185.395 155.002 185.139 154.77 184.979 154.482C184.835 154.194 184.763 153.858 184.763 153.474C184.379 154.082 183.915 154.562 183.371 154.914C182.827 155.25 182.163 155.418 181.379 155.418ZM183.083 153.882C183.403 153.882 183.691 153.81 183.947 153.666C184.219 153.506 184.475 153.25 184.715 152.898V147.978C184.571 148.218 184.371 148.434 184.115 148.626C183.859 148.818 183.587 149.018 183.299 149.226C183.011 149.418 182.731 149.634 182.459 149.874C182.203 150.114 181.995 150.41 181.835 150.762C181.675 151.114 181.595 151.538 181.595 152.034C181.595 152.658 181.731 153.122 182.003 153.426C182.275 153.73 182.635 153.882 183.083 153.882ZM195.361 138.906V142.842H198.193V143.322H195.361V153.018C195.361 153.498 195.449 153.842 195.625 154.05C195.801 154.242 196.065 154.338 196.417 154.338C196.705 154.338 196.993 154.234 197.281 154.026C197.569 153.802 197.825 153.426 198.049 152.898L198.457 153.114C198.201 153.834 197.809 154.426 197.281 154.89C196.769 155.354 196.065 155.586 195.169 155.586C194.641 155.586 194.177 155.514 193.777 155.37C193.377 155.242 193.041 155.042 192.769 154.77C192.417 154.418 192.185 153.986 192.073 153.474C191.961 152.946 191.905 152.266 191.905 151.434V143.322H189.889V142.842H191.905V139.674C192.577 139.674 193.193 139.618 193.753 139.506C194.329 139.378 194.865 139.178 195.361 138.906ZM202.046 136.65C202.718 136.65 203.246 136.818 203.63 137.154C204.03 137.474 204.23 137.922 204.23 138.498C204.23 139.074 204.03 139.53 203.63 139.866C203.246 140.186 202.718 140.346 202.046 140.346C201.374 140.346 200.838 140.186 200.438 139.866C200.054 139.53 199.862 139.074 199.862 138.498C199.862 137.922 200.054 137.474 200.438 137.154C200.838 136.818 201.374 136.65 202.046 136.65ZM203.918 142.578V153.018C203.918 153.69 204.03 154.146 204.254 154.386C204.494 154.626 204.894 154.746 205.454 154.746V155.25C205.166 155.234 204.718 155.218 204.11 155.202C203.502 155.17 202.886 155.154 202.262 155.154C201.638 155.154 201.006 155.17 200.366 155.202C199.726 155.218 199.246 155.234 198.926 155.25V154.746C199.486 154.746 199.878 154.626 200.102 154.386C200.342 154.146 200.462 153.69 200.462 153.018V145.458C200.462 144.738 200.35 144.21 200.126 143.874C199.918 143.522 199.518 143.346 198.926 143.346V142.842C199.438 142.89 199.934 142.914 200.414 142.914C201.086 142.914 201.71 142.89 202.286 142.842C202.878 142.778 203.422 142.69 203.918 142.578ZM212.688 142.506C213.856 142.506 214.88 142.722 215.76 143.154C216.64 143.586 217.328 144.282 217.824 145.242C218.32 146.202 218.568 147.474 218.568 149.058C218.568 150.642 218.32 151.914 217.824 152.874C217.328 153.818 216.64 154.506 215.76 154.938C214.88 155.37 213.856 155.586 212.688 155.586C211.552 155.586 210.536 155.37 209.64 154.938C208.76 154.506 208.064 153.818 207.552 152.874C207.056 151.914 206.808 150.642 206.808 149.058C206.808 147.474 207.056 146.202 207.552 145.242C208.064 144.282 208.76 143.586 209.64 143.154C210.536 142.722 211.552 142.506 212.688 142.506ZM212.688 142.986C212.048 142.986 211.512 143.466 211.08 144.426C210.648 145.37 210.432 146.914 210.432 149.058C210.432 151.202 210.648 152.746 211.08 153.69C211.512 154.634 212.048 155.106 212.688 155.106C213.344 155.106 213.88 154.634 214.296 153.69C214.728 152.746 214.944 151.202 214.944 149.058C214.944 146.914 214.728 145.37 214.296 144.426C213.88 143.466 213.344 142.986 212.688 142.986ZM228.995 142.506C229.667 142.506 230.211 142.594 230.627 142.77C231.059 142.93 231.395 143.154 231.635 143.442C231.891 143.746 232.075 144.138 232.187 144.618C232.315 145.098 232.379 145.746 232.379 146.562V153.018C232.379 153.69 232.491 154.146 232.715 154.386C232.955 154.626 233.355 154.746 233.915 154.746V155.25C233.611 155.234 233.155 155.218 232.547 155.202C231.939 155.17 231.339 155.154 230.747 155.154C230.139 155.154 229.539 155.17 228.947 155.202C228.371 155.218 227.931 155.234 227.627 155.25V154.746C228.107 154.746 228.443 154.626 228.635 154.386C228.827 154.146 228.923 153.69 228.923 153.018V145.554C228.923 145.154 228.883 144.81 228.803 144.522C228.723 144.218 228.579 143.986 228.371 143.826C228.163 143.65 227.851 143.562 227.435 143.562C227.003 143.562 226.603 143.682 226.235 143.922C225.883 144.162 225.595 144.498 225.371 144.93C225.163 145.346 225.059 145.818 225.059 146.346V153.018C225.059 153.69 225.155 154.146 225.347 154.386C225.555 154.626 225.891 154.746 226.355 154.746V155.25C226.067 155.234 225.643 155.218 225.083 155.202C224.539 155.17 223.971 155.154 223.379 155.154C222.771 155.154 222.147 155.17 221.507 155.202C220.867 155.218 220.387 155.234 220.067 155.25V154.746C220.627 154.746 221.019 154.626 221.243 154.386C221.483 154.146 221.603 153.69 221.603 153.018V145.458C221.603 144.738 221.491 144.21 221.267 143.874C221.059 143.522 220.659 143.346 220.067 143.346V142.842C220.579 142.89 221.075 142.914 221.555 142.914C222.227 142.914 222.851 142.89 223.427 142.842C224.019 142.778 224.563 142.69 225.059 142.578V144.738C225.459 143.922 226.003 143.346 226.691 143.01C227.379 142.674 228.147 142.506 228.995 142.506Z" fill="white"/>
<defs>
<clipPath id="clip0_1_207">
<rect width="120" height="120" fill="white" transform="translate(78.75 0.25)"/>
</clipPath>
</defs>
</svg>
