<svg width="36" height="37" viewBox="0 0 36 37" fill="none" xmlns="http://www.w3.org/2000/svg">
<rect y="0.65625" width="36" height="36" rx="18" fill="black"/>
<g clip-path="url(#clip0_1_306)">
<path d="M23.9 11.4563C23.2 11.4563 22.6 12.0563 22.6 12.7563C22.6 13.4563 23.2 14.0562 23.9 14.0562C24.6 14.0562 25.2 13.4563 25.2 12.7563C25.2 12.0563 24.6 11.4563 23.9 11.4563ZM18 22.3563C16 22.3563 14.3 20.7563 14.3 18.6562C14.3 16.6562 15.9 14.9563 18 14.9563C20 14.9563 21.7 16.5562 21.7 18.6562C21.7 20.6562 20 22.3563 18 22.3563ZM18 13.0562C14.9 13.0562 12.4 15.5563 12.4 18.6562C12.4 21.7563 14.9 24.2563 18 24.2563C21.1 24.2563 23.6 21.7563 23.6 18.6562C23.6 15.5563 21.1 13.0562 18 13.0562ZM27 23.0562C27 24.1562 26.8 24.7563 26.6 25.0562C26.4 25.5562 26.2 25.9563 25.8 26.3563C25.4 26.7563 25 26.9562 24.5 27.1562C24.1 27.3563 23.5 27.4562 22.5 27.5562C21.3 27.6562 20.9 27.6562 18 27.6562C15.1 27.6562 14.7 27.6562 13.6 27.5562C12.5 27.5562 11.9 27.3563 11.6 27.1562C11.1 26.9562 10.7 26.7563 10.3 26.3563C9.9 25.9563 9.7 25.5562 9.5 25.0562C9.4 24.6562 9.2 24.0562 9.1 23.0562C9 21.9562 9 21.5562 9 18.6562C9 15.7563 9 15.3563 9.1 14.2563C9.1 13.1563 9.3 12.5563 9.5 12.2563C9.7 11.7563 9.9 11.3563 10.3 10.9563C10.7 10.5563 11.1 10.3563 11.6 10.1562C12 9.95625 12.6 9.85625 13.6 9.75625C14.7 9.65625 15.1 9.65625 18 9.65625C20.9 9.65625 21.3 9.65625 22.4 9.75625C23.5 9.75625 24.1 9.95625 24.4 10.1562C24.9 10.3563 25.3 10.5563 25.7 10.9563C26.1 11.3563 26.3 11.7563 26.5 12.2563C26.7 12.6563 26.8 13.2563 26.9 14.2563C27 15.3563 27 15.7563 27 18.6562V23.0562ZM28.9 14.1562C28.8 12.9563 28.7 12.1562 28.4 11.4563C28.1 10.7563 27.7 10.1562 27.1 9.55625C26.5 8.95625 25.9 8.55625 25.2 8.25625C24.5 7.95625 23.7 7.75625 22.5 7.75625C21.4 7.65625 21 7.65625 18 7.65625C15 7.65625 14.6 7.65625 13.5 7.75625C12.3 7.85625 11.5 7.95625 10.8 8.25625C10.1 8.55625 9.5 8.95625 8.9 9.55625C8.3 10.1562 7.9 10.7563 7.6 11.4563C7.3 12.1562 7.1 12.9563 7.1 14.1562C7 15.2562 7 15.6562 7 18.6562C7 21.6562 7 22.0562 7.1 23.1562C7.2 24.3563 7.3 25.1562 7.6 25.8563C7.9 26.5563 8.3 27.1562 8.9 27.7563C9.5 28.3563 10.1 28.7563 10.8 29.0562C11.5 29.3562 12.3 29.5562 13.5 29.5562C14.6 29.6562 15 29.6562 18 29.6562C21 29.6562 21.4 29.6562 22.5 29.5562C23.7 29.4562 24.5 29.3562 25.2 29.0562C25.9 28.7563 26.5 28.3563 27.1 27.7563C27.7 27.1562 28.1 26.5563 28.4 25.8563C28.7 25.1562 28.9 24.3563 28.9 23.1562C29 22.0562 29 21.6562 29 18.6562C29 15.6562 29 15.2562 28.9 14.1562Z" fill="white"/>
</g>
<defs>
<clipPath id="clip0_1_306">
<rect width="36" height="36" fill="white" transform="translate(0 0.65625)"/>
</clipPath>
</defs>
</svg>
