<svg width="240" height="48" viewBox="0 0 240 48" fill="none" xmlns="http://www.w3.org/2000/svg">
<g clip-path="url(#clip0_1_270)">
<path d="M87.6392 7.10062C87.975 7.10062 88.2629 6.81276 88.2629 6.47691V0.767584C88.2629 0.431741 87.975 0.143876 87.6392 0.143876H69.4077C69.0718 0.143876 68.784 0.431741 68.784 0.767584V6.47691C68.784 6.81276 69.0718 7.10062 69.4077 7.10062H74.6852V28.3067C74.6852 28.6426 74.9731 28.9304 75.3089 28.9304H81.6899C82.0258 28.9304 82.3136 28.6426 82.3136 28.3067V7.10062H87.6392ZM109.613 7.10062C109.949 7.10062 110.237 6.81276 110.237 6.47691V0.767584C110.237 0.431741 109.949 0.143876 109.613 0.143876H91.3814C91.0456 0.143876 90.7577 0.431741 90.7577 0.767584V6.47691C90.7577 6.81276 91.0456 7.10062 91.3814 7.10062H96.6589V28.3067C96.6589 28.6426 96.9468 28.9304 97.2826 28.9304H103.712C104.047 28.9304 104.335 28.6426 104.335 28.3067V7.10062H109.613ZM217.898 0.143876H211.469C211.133 0.143876 210.846 0.431741 210.798 0.767584V17.032C210.798 19.8627 208.495 22.1176 205.712 22.1176H205.472C202.737 21.9257 200.626 19.6228 200.674 16.888V0.767584C200.674 0.431741 200.386 0.143876 200.051 0.143876H193.67C193.334 0.143876 193.046 0.431741 193.046 0.767584V16.4083C193.046 23.365 198.515 29.2183 205.52 29.4102C212.573 29.5541 218.426 23.9408 218.522 16.888V0.767584C218.522 0.431741 218.282 0.143876 217.898 0.143876ZM239.344 21.9737H231.092V0.767584C231.092 0.431741 230.804 0.143876 230.468 0.143876H224.039C223.704 0.143876 223.416 0.431741 223.416 0.767584V27.0113C223.416 28.0668 224.279 28.9304 225.335 28.9304H239.344C239.68 28.9304 239.968 28.6426 239.968 28.3067V22.5974C239.968 22.2615 239.68 21.9737 239.344 21.9737ZM162.628 18.6152C167.426 16.1204 169.297 10.2192 166.802 5.42141C165.123 2.20691 161.812 0.191853 158.214 0.143876H146.364C145.932 0.143876 145.548 0.479719 145.548 0.911517V28.3067C145.548 28.6426 145.836 28.9304 146.172 28.9304H152.601C152.937 28.9304 153.224 28.6426 153.224 28.3067V19.6707H153.992L159.989 28.4027C160.277 28.7865 160.709 29.0264 161.189 29.0264H168.433C168.865 29.0264 169.201 28.6905 169.153 28.2587C169.153 28.1148 169.105 27.9709 169.009 27.8269L162.628 18.6152ZM160.949 9.88332C160.997 11.4186 159.749 12.666 158.262 12.666H153.32V7.10062H158.262C159.749 7.1486 160.949 8.39602 160.949 9.88332ZM127.94 -5.70966e-05C120.648 -0.3359 114.219 4.7977 112.875 11.9464C111.196 21.1581 118.153 29.1703 127.317 29.1703C130.483 29.1703 133.554 28.1628 136.096 26.2917C136.384 26.0997 136.432 25.7159 136.288 25.476C136.24 25.4281 136.24 25.3801 136.192 25.3321L131.97 21.4939C131.826 21.35 131.539 21.302 131.347 21.4459C130.195 22.1176 128.9 22.5014 127.556 22.5014C124.198 22.5014 121.271 20.2945 120.6 17.5118H141.182C141.614 17.5118 141.95 17.1759 141.95 16.7441V14.3452C141.71 7.5804 136.72 0.335786 127.94 -5.70966e-05ZM120.792 11.3706C122.087 8.73186 124.486 6.81276 127.652 6.81276C130.579 6.7168 133.218 8.58793 134.033 11.3706H120.792ZM30.8817 0.575674L16.3445 13.5296L1.80727 0.575674C1.37548 0.191853 0.703791 0.191853 0.31997 0.623651C0.12806 0.863539 0.0321045 1.10343 0.0321045 1.34331V28.0668C0.0321045 28.5466 0.415925 28.9304 0.895701 28.9304H6.84492C7.3247 28.9304 7.70852 28.5466 7.70852 28.0668V16.0724L15.3849 22.9332C15.9127 23.413 16.7283 23.413 17.2561 22.9332L24.9325 16.1204V28.1148C24.9325 28.5946 25.3163 28.9784 25.7961 28.9784H31.7453C32.2251 28.9784 32.6089 28.5946 32.6089 28.1148V1.34331C32.6089 0.767584 32.1291 0.287808 31.5534 0.287808C31.3135 0.287808 31.0736 0.383763 30.8817 0.575674ZM65.3776 28.2587V1.00747C65.3776 0.527696 64.9937 0.143876 64.514 0.143876H58.7087C58.2289 0.143876 57.8451 0.527696 57.8451 1.00747V2.35084C55.6861 1.10343 53.2392 0.431741 50.7444 0.431741C42.8281 0.575674 36.543 7.10062 36.687 15.0649C36.8309 22.7893 43.068 29.0264 50.7924 29.1703C53.2872 29.1703 55.7341 28.4986 57.8931 27.2512V28.3067C57.8931 28.7865 58.2769 29.1703 58.7567 29.1703H64.5619C64.9937 29.1223 65.3776 28.7385 65.3776 28.2587ZM50.9843 21.4459C47.29 21.4459 44.3154 18.4713 44.3154 14.777C44.3154 11.0828 47.29 8.10815 50.9843 8.10815C54.6786 8.10815 57.6532 11.0828 57.6532 14.777C57.6532 18.4713 54.6786 21.4459 50.9843 21.4459ZM187.528 19.047C187.864 19.047 188.152 18.7592 188.152 18.4233V12.666C188.152 12.3302 187.864 12.0423 187.528 12.0423H180.188V7.10062H188.392C188.728 7.10062 189.016 6.81276 189.016 6.47691V0.767584C189.016 0.431741 188.728 0.143876 188.392 0.143876H173.327C172.895 0.143876 172.511 0.479719 172.511 0.911517V28.1628C172.511 28.5946 172.847 28.9784 173.327 28.9784H179.42C179.852 28.9784 180.236 28.6426 180.236 28.1628V19.047H187.528ZM66.3371 42.604L66.3851 42.556C66.529 42.3641 66.673 42.1242 66.7689 41.8844C66.8649 41.6445 66.9128 41.4046 66.9128 41.1167C66.9128 40.541 66.7209 40.0132 66.3851 39.5814C66.2412 39.3895 66.0492 39.1976 65.8573 39.0057C65.4255 38.7178 64.8978 38.5259 64.37 38.5259H60.8677V47.3538H64.6099C64.8978 47.3538 65.1856 47.3058 65.4255 47.2099C66.577 46.874 67.3446 45.8185 67.3446 44.6671C67.3446 44.0913 67.1527 43.5156 66.8169 43.0838C66.673 42.8919 66.481 42.748 66.3371 42.604ZM62.5469 40.1092H64.37C64.466 40.1092 64.6099 40.1572 64.7059 40.2051C64.8018 40.2531 64.8978 40.3491 64.9937 40.445C65.1377 40.6369 65.2336 40.8768 65.2336 41.1167C65.2336 41.3086 65.1377 41.5005 65.0417 41.6445L64.8018 41.8844C64.7059 41.9323 64.6099 41.9803 64.514 41.9803H62.5949L62.5469 40.1092ZM65.2816 45.5307C65.0897 45.7226 64.8498 45.8185 64.5619 45.8185H62.5469V43.5636H64.514C64.6579 43.5636 64.8018 43.5636 64.9458 43.6116C65.0897 43.6595 65.1856 43.7555 65.2816 43.8514C65.3776 43.9474 65.4735 44.0913 65.5215 44.2353C65.7134 44.6671 65.5695 45.1948 65.2816 45.5307ZM90.9016 43.1798C91.0935 42.9399 91.2375 42.652 91.3334 42.3641C91.4294 42.0763 91.4774 41.7884 91.4774 41.5005C91.4774 41.1647 91.4294 40.8289 91.3334 40.541C91.2375 40.2531 91.0935 39.9653 90.9016 39.7254C90.7097 39.4855 90.5178 39.2456 90.2299 39.1017C89.9901 38.9098 89.7022 38.7658 89.4143 38.7178C89.1265 38.6219 88.8386 38.5739 88.5027 38.5739H84.4726V47.4018H86.1518V44.4272H88.2629L89.7022 47.4018H91.5733L89.9421 44.0434C90.3259 43.8035 90.6617 43.5156 90.9016 43.1798ZM89.5583 42.2682C89.4143 42.4121 89.2704 42.556 89.0785 42.652C88.9345 42.748 88.7426 42.7959 88.5507 42.7959H86.1998V40.1092H88.5507C88.7426 40.1092 88.8866 40.1572 89.0785 40.2531C89.2704 40.3491 89.4143 40.445 89.5103 40.589C89.7502 40.8289 89.8461 41.1647 89.8461 41.5005C89.7981 41.7884 89.7022 42.0763 89.5583 42.2682ZM111.148 38.5739L108.461 47.3538H110.189L110.62 45.9625H114.219L114.651 47.3538H116.378L113.691 38.5259H111.148V38.5739ZM111.052 44.4272L112.348 40.1092L113.691 44.4272H111.052ZM138.831 44.4272L134.993 38.5739H133.314V47.3538H134.993V41.5005L138.831 47.3538H140.51V38.5739H138.831V44.4272ZM164.163 39.7254C163.828 39.3416 163.396 39.0537 162.916 38.8618C162.388 38.6699 161.812 38.5739 161.237 38.5739H158.118V47.4018H161.237C161.812 47.4018 162.388 47.3058 162.916 47.1139C163.444 46.922 163.876 46.6341 164.259 46.2023C164.643 45.7705 164.931 45.2908 165.123 44.763C165.315 44.1873 165.411 43.6116 165.411 42.9878C165.411 42.3641 165.315 41.7884 165.123 41.2127C164.835 40.6369 164.547 40.1572 164.163 39.7254ZM163.396 44.1393C163.3 44.4752 163.108 44.811 162.868 45.0989C162.436 45.5307 161.812 45.8185 161.189 45.7705H159.797V40.1572H161.237C161.573 40.1572 161.908 40.2531 162.196 40.3491C162.484 40.445 162.724 40.6369 162.916 40.8768C163.396 41.5005 163.588 42.2682 163.588 42.9878C163.588 43.3717 163.54 43.8035 163.396 44.1393ZM188.584 43.0838C188.392 42.8919 188.152 42.748 187.912 42.604C187.624 42.4601 187.289 42.3162 186.953 42.2202L185.417 41.7884C185.034 41.6925 184.698 41.5485 184.41 41.3086C184.314 41.2127 184.218 41.0687 184.218 40.8768C184.218 40.7329 184.266 40.589 184.314 40.493C184.41 40.3491 184.506 40.2531 184.65 40.1572C184.938 39.9653 185.274 39.9173 185.657 39.9173C186.041 39.9173 186.425 40.0132 186.761 40.2531C186.953 40.3491 187.097 40.493 187.241 40.6369C187.385 40.8289 187.48 41.0208 187.576 41.2127L189.256 40.7809C189.112 40.3491 188.872 39.9653 188.584 39.5814C188.296 39.2456 187.96 38.9577 187.576 38.7658C187.001 38.478 186.377 38.334 185.705 38.334C185.369 38.334 185.082 38.382 184.746 38.43C184.458 38.478 184.122 38.5739 183.834 38.7178C183.402 38.9098 183.067 39.1976 182.827 39.5814C182.539 39.9653 182.443 40.3971 182.443 40.8768C182.443 41.2127 182.491 41.5485 182.635 41.8364C182.779 42.1242 182.971 42.4121 183.21 42.604C183.69 42.9878 184.266 43.2757 184.89 43.4196L186.521 43.8994C186.809 43.9954 187.097 44.0913 187.289 44.2832C187.48 44.4272 187.576 44.6671 187.576 44.9069C187.576 45.1948 187.433 45.4827 187.241 45.6266C187.049 45.7705 186.857 45.8665 186.617 45.9145C186.377 45.9625 186.137 46.0104 185.849 46.0104C185.513 46.0104 185.226 45.9625 184.938 45.8185C184.65 45.7226 184.41 45.5307 184.218 45.2908C183.978 44.9549 183.834 44.6191 183.786 44.1873L182.107 44.6671C182.251 45.2908 182.491 45.8665 182.923 46.3943C183.258 46.826 183.69 47.1139 184.17 47.3058C184.698 47.4977 185.274 47.5937 185.849 47.5937C186.281 47.5937 186.761 47.5457 187.193 47.4498C187.576 47.3538 187.912 47.2099 188.248 47.018C188.584 46.7781 188.872 46.4902 189.064 46.1064C189.256 45.7705 189.352 45.3867 189.352 44.9549C189.352 44.6191 189.304 44.2832 189.16 43.9474C189.112 43.6595 188.872 43.3237 188.584 43.0838Z" fill="#231F20"/>
</g>
<defs>
<clipPath id="clip0_1_270">
<rect width="239.936" height="47.5937" fill="white" transform="translate(0.0321045)"/>
</clipPath>
</defs>
</svg>
