<svg width="278" height="161" viewBox="0 0 278 161" fill="none" xmlns="http://www.w3.org/2000/svg">
<g clip-path="url(#clip0_1_177)">
<path d="M138.75 0.25C105.618 0.25 78.75 27.118 78.75 60.25C78.75 93.382 105.618 120.25 138.75 120.25C171.882 120.25 198.75 93.382 198.75 60.25C198.75 27.118 171.882 0.25 138.75 0.25ZM138.75 117.85C106.986 117.85 81.15 92.014 81.15 60.25C81.15 28.486 106.986 2.65 138.75 2.65C170.514 2.65 196.35 28.486 196.35 60.25C196.35 92.014 170.514 117.85 138.75 117.85ZM123.15 89.05C117.846 89.05 113.55 93.346 113.55 98.65C113.55 103.954 117.846 108.25 123.15 108.25C128.454 108.25 132.75 103.954 132.75 98.65C132.75 93.346 128.454 89.05 123.15 89.05ZM123.15 105.85C119.178 105.85 115.95 102.622 115.95 98.65C115.95 94.678 119.178 91.45 123.15 91.45C127.122 91.45 130.35 94.678 130.35 98.65C130.35 102.622 127.122 105.85 123.15 105.85ZM106.242 57.25L114.99 48.502L113.298 46.81L104.55 55.558L95.802 46.81L94.11 48.502L102.858 57.25L94.11 65.998L95.802 67.69L104.55 58.942L113.298 67.69L114.99 65.998L106.242 57.25ZM129.402 35.302L138.15 26.554L146.898 35.302L148.59 33.61L139.842 24.862L148.59 16.114L146.898 14.422L138.15 23.17L129.402 14.422L127.71 16.114L136.458 24.862L127.71 33.61L129.402 35.302ZM172.098 73.198L163.35 81.946L154.602 73.198L152.91 74.89L161.658 83.638L152.91 92.386L154.602 94.078L163.35 85.33L172.098 94.078L173.79 92.386L165.042 83.638L173.79 74.89L172.098 73.198ZM166.362 31.69L167.85 40.858C156.81 42.238 148.23 46.87 142.782 50.746C141.078 49.198 138.834 48.25 136.35 48.25C131.046 48.25 126.75 52.546 126.75 57.85C126.75 63.154 131.046 67.45 136.35 67.45C141.654 67.45 145.95 63.154 145.95 57.85C145.95 55.918 145.374 54.118 144.39 52.606C149.646 48.922 157.866 44.53 168.246 43.234L169.698 52.21L185.802 39.07L166.362 31.69ZM136.35 65.05C132.378 65.05 129.15 61.822 129.15 57.85C129.15 53.878 132.378 50.65 136.35 50.65C140.322 50.65 143.55 53.878 143.55 57.85C143.55 61.822 140.322 65.05 136.35 65.05ZM169.398 35.41L181.062 39.838L171.402 47.722L169.398 35.41ZM124.95 82.75L122.598 82.282C122.43 83.098 122.286 83.95 122.154 84.802L124.53 85.15C124.662 84.334 124.794 83.53 124.95 82.75ZM126.954 75.718L124.71 74.878C124.422 75.658 124.134 76.474 123.882 77.302L126.174 78.022C126.414 77.23 126.678 76.462 126.954 75.718ZM130.05 69.094L127.962 67.906C127.554 68.626 127.146 69.382 126.75 70.174L128.898 71.254C129.27 70.498 129.666 69.778 130.05 69.094Z" fill="white"/>
</g>
<path d="M49.9429 138.258V138.738C49.4309 138.802 49.0469 138.938 48.7909 139.146C48.5349 139.338 48.3589 139.65 48.2629 140.082C48.1829 140.514 48.1429 141.122 48.1429 141.906V155.298C47.9509 155.282 47.7509 155.274 47.5429 155.274C47.3509 155.274 47.1429 155.282 46.9189 155.298L36.5029 142.098V151.314C36.5029 152.194 36.5509 152.874 36.6469 153.354C36.7429 153.818 36.9509 154.154 37.2709 154.362C37.6069 154.554 38.1269 154.69 38.8309 154.77V155.25C38.5269 155.218 38.1269 155.202 37.6309 155.202C37.1349 155.186 36.6709 155.178 36.2389 155.178C35.8709 155.178 35.4949 155.186 35.1109 155.202C34.7269 155.202 34.4069 155.218 34.1509 155.25V154.77C34.6629 154.69 35.0469 154.554 35.3029 154.362C35.5589 154.17 35.7269 153.858 35.8069 153.426C35.9029 152.978 35.9509 152.37 35.9509 151.602V140.802C35.9509 140.21 35.9029 139.778 35.8069 139.506C35.7269 139.218 35.5509 139.026 35.2789 138.93C35.0229 138.818 34.6469 138.754 34.1509 138.738V138.258C34.4069 138.274 34.7269 138.29 35.1109 138.306C35.4949 138.322 35.8709 138.33 36.2389 138.33C36.6229 138.33 36.9909 138.322 37.3429 138.306C37.6949 138.29 38.0149 138.274 38.3029 138.258L47.5909 149.706V142.194C47.5909 141.314 47.5429 140.642 47.4469 140.178C47.3509 139.698 47.1349 139.354 46.7989 139.146C46.4789 138.938 45.9669 138.802 45.2629 138.738V138.258C45.5669 138.274 45.9669 138.29 46.4629 138.306C46.9589 138.322 47.4229 138.33 47.8549 138.33C48.2389 138.33 48.6149 138.322 48.9829 138.306C49.3669 138.29 49.6869 138.274 49.9429 138.258ZM54.0505 155.418C53.3305 155.418 52.7305 155.282 52.2505 155.01C51.7705 154.738 51.4185 154.378 51.1945 153.93C50.9705 153.466 50.8585 152.962 50.8585 152.418C50.8585 151.73 51.0105 151.17 51.3145 150.738C51.6345 150.306 52.0425 149.954 52.5385 149.682C53.0345 149.41 53.5545 149.186 54.0985 149.01C54.6585 148.834 55.1865 148.666 55.6825 148.506C56.1945 148.33 56.6025 148.13 56.9065 147.906C57.2265 147.666 57.3865 147.362 57.3865 146.994V145.122C57.3865 144.706 57.3145 144.338 57.1705 144.018C57.0425 143.682 56.8345 143.426 56.5465 143.25C56.2745 143.074 55.9145 142.986 55.4665 142.986C55.1465 142.986 54.8265 143.034 54.5065 143.13C54.1865 143.21 53.9225 143.354 53.7145 143.562C54.1625 143.722 54.5065 143.97 54.7465 144.306C55.0025 144.626 55.1305 144.994 55.1305 145.41C55.1305 145.954 54.9385 146.386 54.5545 146.706C54.1865 147.026 53.7465 147.186 53.2345 147.186C52.6585 147.186 52.2185 147.01 51.9145 146.658C51.6265 146.29 51.4825 145.85 51.4825 145.338C51.4825 144.874 51.5945 144.49 51.8185 144.186C52.0585 143.882 52.3865 143.594 52.8025 143.322C53.2505 143.066 53.7865 142.866 54.4105 142.722C55.0505 142.578 55.7385 142.506 56.4745 142.506C57.2105 142.506 57.8745 142.586 58.4665 142.746C59.0585 142.89 59.5545 143.162 59.9545 143.562C60.3225 143.93 60.5625 144.386 60.6745 144.93C60.7865 145.458 60.8425 146.13 60.8425 146.946V153.474C60.8425 153.874 60.8825 154.154 60.9625 154.314C61.0425 154.458 61.1785 154.53 61.3705 154.53C61.5145 154.53 61.6505 154.49 61.7785 154.41C61.9225 154.33 62.0745 154.234 62.2345 154.122L62.4745 154.53C62.1385 154.818 61.7465 155.042 61.2985 155.202C60.8665 155.346 60.3785 155.418 59.8345 155.418C59.2425 155.418 58.7705 155.338 58.4185 155.178C58.0665 155.002 57.8105 154.77 57.6505 154.482C57.5065 154.194 57.4345 153.858 57.4345 153.474C57.0505 154.082 56.5865 154.562 56.0425 154.914C55.4985 155.25 54.8345 155.418 54.0505 155.418ZM55.7545 153.882C56.0745 153.882 56.3625 153.81 56.6185 153.666C56.8905 153.506 57.1465 153.25 57.3865 152.898V147.978C57.2425 148.218 57.0425 148.434 56.7865 148.626C56.5305 148.818 56.2585 149.018 55.9705 149.226C55.6825 149.418 55.4025 149.634 55.1305 149.874C54.8745 150.114 54.6665 150.41 54.5065 150.762C54.3465 151.114 54.2665 151.538 54.2665 152.034C54.2665 152.658 54.4025 153.122 54.6745 153.426C54.9465 153.73 55.3065 153.882 55.7545 153.882ZM71.8724 142.506C72.5444 142.506 73.0884 142.594 73.5044 142.77C73.9204 142.93 74.2564 143.154 74.5124 143.442C74.7684 143.746 74.9524 144.146 75.0644 144.642C75.1764 145.122 75.2324 145.762 75.2324 146.562V153.018C75.2324 153.69 75.3364 154.146 75.5444 154.386C75.7524 154.626 76.1124 154.746 76.6244 154.746V155.25C76.3364 155.234 75.8964 155.218 75.3044 155.202C74.7284 155.17 74.1604 155.154 73.6004 155.154C73.0244 155.154 72.4564 155.17 71.8964 155.202C71.3364 155.218 70.9124 155.234 70.6244 155.25V154.746C71.0564 154.746 71.3524 154.626 71.5124 154.386C71.6884 154.146 71.7764 153.69 71.7764 153.018V145.554C71.7764 145.154 71.7444 144.81 71.6804 144.522C71.6164 144.218 71.4884 143.986 71.2964 143.826C71.1204 143.65 70.8484 143.562 70.4804 143.562C70.0644 143.562 69.6804 143.682 69.3284 143.922C68.9764 144.162 68.6884 144.498 68.4644 144.93C68.2564 145.346 68.1524 145.818 68.1524 146.346V153.018C68.1524 153.69 68.2404 154.146 68.4164 154.386C68.5924 154.626 68.8884 154.746 69.3044 154.746V155.25C69.0484 155.234 68.6484 155.218 68.1044 155.202C67.5764 155.17 67.0324 155.154 66.4724 155.154C65.8644 155.154 65.2404 155.17 64.6004 155.202C63.9604 155.218 63.4804 155.234 63.1604 155.25V154.746C63.7204 154.746 64.1124 154.626 64.3364 154.386C64.5764 154.146 64.6964 153.69 64.6964 153.018V145.458C64.6964 144.738 64.5844 144.21 64.3604 143.874C64.1524 143.522 63.7524 143.346 63.1604 143.346V142.842C63.6724 142.89 64.1684 142.914 64.6484 142.914C65.3204 142.914 65.9444 142.89 66.5204 142.842C67.1124 142.778 67.6564 142.69 68.1524 142.578V144.738C68.5364 143.938 69.0564 143.37 69.7124 143.034C70.3684 142.682 71.0884 142.506 71.8724 142.506ZM79.0964 142.506C79.7684 142.506 80.3124 142.594 80.7284 142.77C81.1444 142.93 81.4804 143.154 81.7364 143.442C81.9924 143.746 82.1764 144.146 82.2884 144.642C82.4004 145.122 82.4564 145.762 82.4564 146.562V153.018C82.4564 153.69 82.5684 154.146 82.7924 154.386C83.0324 154.626 83.4324 154.746 83.9924 154.746V155.25C83.6884 155.234 83.2324 155.218 82.6244 155.202C82.0164 155.17 81.4164 155.154 80.8244 155.154C80.2484 155.154 79.6804 155.17 79.1204 155.202C78.5604 155.218 78.1364 155.234 77.8484 155.25V154.746C78.2804 154.746 78.5764 154.626 78.7364 154.386C78.9124 154.146 79.0004 153.69 79.0004 153.018V145.554C79.0004 145.154 78.9604 144.81 78.8804 144.522C78.8164 144.218 78.6804 143.986 78.4724 143.826C78.2804 143.65 77.9764 143.562 77.5604 143.562C77.1444 143.562 76.7604 143.69 76.4084 143.946C76.0564 144.202 75.7684 144.546 75.5444 144.978C75.3364 145.41 75.2244 145.89 75.2084 146.418L75.0884 144.954C75.5204 143.994 76.0884 143.346 76.7924 143.01C77.5124 142.674 78.2804 142.506 79.0964 142.506ZM88.0069 136.65C88.6789 136.65 89.2069 136.818 89.5909 137.154C89.9909 137.474 90.1909 137.922 90.1909 138.498C90.1909 139.074 89.9909 139.53 89.5909 139.866C89.2069 140.186 88.6789 140.346 88.0069 140.346C87.3349 140.346 86.7989 140.186 86.3989 139.866C86.0149 139.53 85.8229 139.074 85.8229 138.498C85.8229 137.922 86.0149 137.474 86.3989 137.154C86.7989 136.818 87.3349 136.65 88.0069 136.65ZM89.8789 142.578V153.018C89.8789 153.69 89.9909 154.146 90.2149 154.386C90.4549 154.626 90.8549 154.746 91.4149 154.746V155.25C91.1269 155.234 90.6789 155.218 90.0709 155.202C89.4629 155.17 88.8469 155.154 88.2229 155.154C87.5989 155.154 86.9669 155.17 86.3269 155.202C85.6869 155.218 85.2069 155.234 84.8869 155.25V154.746C85.4469 154.746 85.8389 154.626 86.0629 154.386C86.3029 154.146 86.4229 153.69 86.4229 153.018V145.458C86.4229 144.738 86.3109 144.21 86.0869 143.874C85.8789 143.522 85.4789 143.346 84.8869 143.346V142.842C85.3989 142.89 85.8949 142.914 86.3749 142.914C87.0469 142.914 87.6709 142.89 88.2469 142.842C88.8389 142.778 89.3829 142.69 89.8789 142.578ZM101.385 142.506C102.057 142.506 102.601 142.594 103.017 142.77C103.449 142.93 103.785 143.154 104.025 143.442C104.281 143.746 104.465 144.138 104.577 144.618C104.705 145.098 104.769 145.746 104.769 146.562V153.018C104.769 153.69 104.881 154.146 105.105 154.386C105.345 154.626 105.745 154.746 106.305 154.746V155.25C106.001 155.234 105.545 155.218 104.937 155.202C104.329 155.17 103.729 155.154 103.137 155.154C102.529 155.154 101.929 155.17 101.337 155.202C100.761 155.218 100.321 155.234 100.017 155.25V154.746C100.497 154.746 100.833 154.626 101.025 154.386C101.217 154.146 101.313 153.69 101.313 153.018V145.554C101.313 145.154 101.273 144.81 101.193 144.522C101.113 144.218 100.969 143.986 100.761 143.826C100.553 143.65 100.241 143.562 99.8252 143.562C99.3932 143.562 98.9932 143.682 98.6252 143.922C98.2732 144.162 97.9852 144.498 97.7612 144.93C97.5532 145.346 97.4492 145.818 97.4492 146.346V153.018C97.4492 153.69 97.5452 154.146 97.7372 154.386C97.9452 154.626 98.2812 154.746 98.7452 154.746V155.25C98.4572 155.234 98.0332 155.218 97.4732 155.202C96.9292 155.17 96.3612 155.154 95.7692 155.154C95.1612 155.154 94.5372 155.17 93.8972 155.202C93.2572 155.218 92.7772 155.234 92.4572 155.25V154.746C93.0172 154.746 93.4092 154.626 93.6332 154.386C93.8732 154.146 93.9932 153.69 93.9932 153.018V145.458C93.9932 144.738 93.8812 144.21 93.6572 143.874C93.4492 143.522 93.0492 143.346 92.4572 143.346V142.842C92.9692 142.89 93.4652 142.914 93.9452 142.914C94.6172 142.914 95.2412 142.89 95.8172 142.842C96.4092 142.778 96.9532 142.69 97.4492 142.578V144.738C97.8492 143.922 98.3932 143.346 99.0812 143.01C99.7692 142.674 100.537 142.506 101.385 142.506ZM111.691 159.762C110.699 159.762 109.811 159.674 109.027 159.498C108.259 159.338 107.651 159.082 107.203 158.73C106.771 158.394 106.555 157.978 106.555 157.482C106.555 156.986 106.779 156.538 107.227 156.138C107.675 155.754 108.339 155.45 109.219 155.226L109.435 155.61C109.131 155.85 108.907 156.106 108.763 156.378C108.635 156.666 108.571 156.962 108.571 157.266C108.571 157.938 108.875 158.45 109.483 158.802C110.107 159.17 110.947 159.354 112.003 159.354C112.723 159.354 113.363 159.258 113.923 159.066C114.499 158.874 114.947 158.586 115.267 158.202C115.603 157.818 115.771 157.346 115.771 156.786C115.771 156.306 115.595 155.898 115.243 155.562C114.891 155.242 114.187 155.082 113.131 155.082H111.643C110.987 155.082 110.411 155.01 109.915 154.866C109.435 154.722 109.059 154.498 108.787 154.194C108.515 153.874 108.379 153.474 108.379 152.994C108.379 152.322 108.643 151.73 109.171 151.218C109.699 150.706 110.483 150.226 111.523 149.778L111.763 149.97C111.459 150.162 111.171 150.37 110.899 150.594C110.643 150.802 110.515 151.074 110.515 151.41C110.515 151.922 110.835 152.178 111.475 152.178H114.091C114.971 152.178 115.755 152.282 116.443 152.49C117.147 152.698 117.699 153.042 118.099 153.522C118.515 153.986 118.723 154.594 118.723 155.346C118.723 156.13 118.467 156.858 117.955 157.53C117.459 158.202 116.691 158.738 115.651 159.138C114.611 159.554 113.291 159.762 111.691 159.762ZM111.931 150.138C111.019 150.138 110.203 150.002 109.483 149.73C108.763 149.458 108.195 149.042 107.779 148.482C107.363 147.922 107.155 147.202 107.155 146.322C107.155 145.442 107.363 144.722 107.779 144.162C108.195 143.586 108.763 143.17 109.483 142.914C110.203 142.642 111.019 142.506 111.931 142.506C112.843 142.506 113.659 142.642 114.379 142.914C115.099 143.17 115.667 143.586 116.083 144.162C116.499 144.722 116.707 145.442 116.707 146.322C116.707 147.202 116.499 147.922 116.083 148.482C115.667 149.042 115.099 149.458 114.379 149.73C113.659 150.002 112.843 150.138 111.931 150.138ZM111.931 149.706C112.363 149.706 112.699 149.466 112.939 148.986C113.179 148.49 113.299 147.602 113.299 146.322C113.299 145.042 113.179 144.162 112.939 143.682C112.699 143.186 112.363 142.938 111.931 142.938C111.515 142.938 111.179 143.186 110.923 143.682C110.683 144.162 110.563 145.042 110.563 146.322C110.563 147.602 110.683 148.49 110.923 148.986C111.179 149.466 111.515 149.706 111.931 149.706ZM115.675 144.57L115.195 144.402C115.435 143.778 115.819 143.258 116.347 142.842C116.891 142.426 117.475 142.218 118.099 142.218C118.611 142.218 118.995 142.362 119.251 142.65C119.523 142.922 119.659 143.282 119.659 143.73C119.659 144.21 119.531 144.57 119.275 144.81C119.019 145.034 118.731 145.146 118.411 145.146C118.139 145.146 117.883 145.05 117.643 144.858C117.419 144.666 117.291 144.378 117.259 143.994C117.227 143.594 117.363 143.082 117.667 142.458L117.835 142.602C117.227 142.826 116.771 143.09 116.467 143.394C116.163 143.682 115.899 144.074 115.675 144.57ZM133.247 138.21C133.871 138.21 134.375 138.258 134.759 138.354C135.143 138.434 135.471 138.554 135.743 138.714C135.999 138.826 136.231 138.97 136.439 139.146C136.663 139.322 136.847 139.538 136.991 139.794C137.135 140.05 137.207 140.338 137.207 140.658C137.207 141.138 137.023 141.522 136.655 141.81C136.287 142.098 135.855 142.242 135.359 142.242C134.879 142.242 134.463 142.122 134.111 141.882C133.775 141.642 133.607 141.266 133.607 140.754C133.607 140.354 133.751 139.994 134.039 139.674C134.327 139.338 134.695 139.13 135.143 139.05C135.031 138.922 134.823 138.818 134.519 138.738C134.231 138.658 133.911 138.618 133.559 138.618C132.727 138.618 132.015 138.882 131.423 139.41C130.847 139.922 130.559 140.706 130.559 141.762C130.559 142.13 130.623 142.522 130.751 142.938C130.879 143.354 131.127 143.778 131.495 144.21C131.767 144.146 132.015 144.098 132.239 144.066C132.479 144.034 132.679 144.018 132.839 144.018C133.127 144.018 133.343 144.082 133.487 144.21C133.647 144.322 133.727 144.474 133.727 144.666C133.727 144.81 133.663 144.93 133.535 145.026C133.407 145.122 133.247 145.17 133.055 145.17C132.783 145.17 132.503 145.098 132.215 144.954C131.927 144.794 131.695 144.658 131.519 144.546C130.767 144.93 130.151 145.426 129.671 146.034C129.207 146.626 128.975 147.426 128.975 148.434C128.975 149.49 129.263 150.362 129.839 151.05C130.415 151.722 131.223 152.234 132.263 152.586C133.319 152.922 134.559 153.09 135.983 153.09C136.783 153.09 137.575 153.002 138.359 152.826C139.143 152.65 139.847 152.386 140.471 152.034C141.111 151.682 141.623 151.25 142.007 150.738C142.391 150.21 142.583 149.602 142.583 148.914C142.583 148.658 142.543 148.338 142.463 147.954C142.399 147.554 142.231 147.162 141.959 146.778C141.687 146.378 141.239 146.05 140.615 145.794L140.783 145.578C141.647 145.85 142.303 146.362 142.751 147.114C143.199 147.866 143.423 148.73 143.423 149.706C143.423 150.826 143.079 151.834 142.391 152.73C141.703 153.61 140.735 154.306 139.487 154.818C138.255 155.33 136.807 155.586 135.143 155.586C133.815 155.586 132.607 155.45 131.519 155.178C130.447 154.906 129.519 154.514 128.735 154.002C127.967 153.474 127.367 152.842 126.935 152.106C126.519 151.37 126.311 150.538 126.311 149.61C126.311 148.714 126.495 147.954 126.863 147.33C127.247 146.69 127.711 146.17 128.255 145.77C128.799 145.354 129.343 145.034 129.887 144.81C130.431 144.586 130.863 144.434 131.183 144.354C130.687 144.146 130.231 143.906 129.815 143.634C129.415 143.346 129.087 143.01 128.831 142.626C128.591 142.242 128.471 141.81 128.471 141.33C128.471 140.818 128.607 140.37 128.879 139.986C129.151 139.586 129.511 139.258 129.959 139.002C130.423 138.746 130.935 138.554 131.495 138.426C132.071 138.282 132.655 138.21 133.247 138.21ZM142.679 137.922C143.815 137.922 144.735 138.218 145.439 138.81C146.143 139.402 146.495 140.234 146.495 141.306C146.495 142.122 146.295 142.81 145.895 143.37C145.511 143.93 144.951 144.386 144.215 144.738C143.495 145.09 142.631 145.37 141.623 145.578C141.399 145.658 141.119 145.754 140.783 145.866C140.447 145.962 140.103 146.058 139.751 146.154C139.399 146.25 139.055 146.346 138.719 146.442C138.399 146.538 138.119 146.618 137.879 146.682C136.631 146.954 135.671 147.266 134.999 147.618C134.327 147.954 133.991 148.418 133.991 149.01C133.991 149.41 134.119 149.754 134.375 150.042C134.647 150.33 134.983 150.554 135.383 150.714C135.783 150.874 136.183 150.954 136.583 150.954C136.695 150.954 136.815 150.946 136.943 150.93C137.071 150.898 137.191 150.866 137.303 150.834C137.415 150.786 137.495 150.746 137.543 150.714C137.143 150.586 136.839 150.386 136.631 150.114C136.439 149.826 136.343 149.498 136.343 149.13C136.343 148.618 136.527 148.226 136.895 147.954C137.263 147.682 137.719 147.546 138.263 147.546C138.839 147.546 139.287 147.698 139.607 148.002C139.943 148.306 140.111 148.698 140.111 149.178C140.111 149.674 139.959 150.09 139.655 150.426C139.351 150.746 138.943 150.986 138.431 151.146C137.919 151.29 137.343 151.362 136.703 151.362C136.079 151.362 135.487 151.25 134.927 151.026C134.383 150.802 133.943 150.466 133.607 150.018C133.287 149.554 133.127 148.978 133.127 148.29C133.127 147.442 133.343 146.738 133.775 146.178C134.207 145.602 134.823 145.13 135.623 144.762C136.439 144.378 137.399 144.082 138.503 143.874C138.839 143.794 139.207 143.706 139.607 143.61C140.023 143.498 140.447 143.386 140.879 143.274C141.311 143.162 141.711 143.042 142.079 142.914C143.231 142.626 144.119 142.306 144.743 141.954C145.383 141.602 145.703 141.13 145.703 140.538C145.703 140.106 145.567 139.73 145.295 139.41C145.039 139.074 144.703 138.818 144.287 138.642C143.871 138.45 143.439 138.354 142.991 138.354C142.847 138.354 142.711 138.362 142.583 138.378C142.471 138.394 142.375 138.426 142.295 138.474C142.695 138.618 142.991 138.834 143.183 139.122C143.375 139.41 143.471 139.698 143.471 139.986C143.471 140.482 143.287 140.866 142.919 141.138C142.551 141.394 142.095 141.522 141.551 141.522C141.007 141.522 140.559 141.386 140.207 141.114C139.855 140.826 139.679 140.434 139.679 139.938C139.679 139.506 139.799 139.146 140.039 138.858C140.295 138.554 140.647 138.322 141.095 138.162C141.543 138.002 142.071 137.922 142.679 137.922ZM159.307 137.946C160.251 137.946 160.979 138.05 161.491 138.258C162.003 138.45 162.443 138.658 162.811 138.882C163.003 138.994 163.155 139.082 163.267 139.146C163.395 139.194 163.515 139.218 163.627 139.218C163.787 139.218 163.899 139.13 163.963 138.954C164.043 138.778 164.107 138.514 164.155 138.162H164.707C164.691 138.466 164.667 138.834 164.635 139.266C164.619 139.682 164.603 140.234 164.587 140.922C164.587 141.61 164.587 142.514 164.587 143.634H164.035C163.971 142.802 163.779 141.994 163.459 141.21C163.139 140.426 162.683 139.786 162.091 139.29C161.515 138.778 160.803 138.522 159.955 138.522C159.187 138.522 158.555 138.738 158.059 139.17C157.563 139.602 157.315 140.202 157.315 140.97C157.315 141.61 157.475 142.162 157.795 142.626C158.115 143.074 158.579 143.514 159.187 143.946C159.811 144.378 160.563 144.898 161.443 145.506C162.211 146.002 162.899 146.498 163.507 146.994C164.115 147.49 164.603 148.05 164.971 148.674C165.339 149.298 165.523 150.042 165.523 150.906C165.523 151.962 165.243 152.834 164.683 153.522C164.139 154.21 163.419 154.73 162.523 155.082C161.627 155.418 160.643 155.586 159.571 155.586C158.579 155.586 157.787 155.49 157.195 155.298C156.603 155.106 156.107 154.906 155.707 154.698C155.355 154.474 155.083 154.362 154.891 154.362C154.731 154.362 154.611 154.45 154.531 154.626C154.467 154.802 154.411 155.066 154.363 155.418H153.811C153.843 155.034 153.859 154.586 153.859 154.074C153.875 153.562 153.883 152.898 153.883 152.082C153.899 151.25 153.907 150.202 153.907 148.938H154.459C154.523 149.994 154.699 150.986 154.987 151.914C155.291 152.826 155.747 153.562 156.355 154.122C156.979 154.682 157.803 154.962 158.827 154.962C159.387 154.962 159.883 154.866 160.315 154.674C160.763 154.466 161.123 154.162 161.395 153.762C161.667 153.362 161.803 152.866 161.803 152.274C161.803 151.602 161.643 151.018 161.323 150.522C161.019 150.026 160.595 149.562 160.051 149.13C159.523 148.698 158.907 148.258 158.203 147.81C157.451 147.314 156.747 146.818 156.091 146.322C155.435 145.826 154.907 145.258 154.507 144.618C154.123 143.978 153.931 143.218 153.931 142.338C153.931 141.33 154.179 140.506 154.675 139.866C155.187 139.21 155.851 138.73 156.667 138.426C157.499 138.106 158.379 137.946 159.307 137.946ZM171.954 138.906V142.842H174.786V143.322H171.954V153.018C171.954 153.498 172.042 153.842 172.218 154.05C172.394 154.242 172.658 154.338 173.01 154.338C173.298 154.338 173.586 154.234 173.874 154.026C174.162 153.802 174.418 153.426 174.642 152.898L175.05 153.114C174.794 153.834 174.402 154.426 173.874 154.89C173.362 155.354 172.658 155.586 171.762 155.586C171.234 155.586 170.77 155.514 170.37 155.37C169.97 155.242 169.634 155.042 169.362 154.77C169.01 154.418 168.778 153.986 168.666 153.474C168.554 152.946 168.498 152.266 168.498 151.434V143.322H166.482V142.842H168.498V139.674C169.17 139.674 169.786 139.618 170.346 139.506C170.922 139.378 171.458 139.178 171.954 138.906ZM183.776 142.506C184.288 142.506 184.704 142.618 185.024 142.842C185.344 143.05 185.576 143.322 185.72 143.658C185.88 143.994 185.96 144.346 185.96 144.714C185.96 145.306 185.784 145.794 185.432 146.178C185.096 146.546 184.648 146.73 184.088 146.73C183.528 146.73 183.088 146.594 182.768 146.322C182.464 146.034 182.312 145.658 182.312 145.194C182.312 144.746 182.408 144.378 182.6 144.09C182.808 143.786 183.064 143.53 183.368 143.322C183.144 143.258 182.92 143.266 182.696 143.346C182.392 143.394 182.104 143.522 181.832 143.73C181.56 143.922 181.328 144.17 181.136 144.474C180.944 144.762 180.792 145.082 180.68 145.434C180.568 145.77 180.512 146.098 180.512 146.418V152.778C180.512 153.546 180.696 154.066 181.064 154.338C181.448 154.61 182.016 154.746 182.768 154.746V155.25C182.4 155.234 181.864 155.218 181.16 155.202C180.456 155.17 179.72 155.154 178.952 155.154C178.312 155.154 177.664 155.17 177.008 155.202C176.352 155.218 175.856 155.234 175.52 155.25V154.746C176.08 154.746 176.472 154.626 176.696 154.386C176.936 154.146 177.056 153.69 177.056 153.018V145.458C177.056 144.738 176.944 144.21 176.72 143.874C176.512 143.522 176.112 143.346 175.52 143.346V142.842C176.032 142.89 176.528 142.914 177.008 142.914C177.68 142.914 178.304 142.89 178.88 142.842C179.472 142.778 180.016 142.69 180.512 142.578V144.81C180.704 144.378 180.96 143.986 181.28 143.634C181.6 143.282 181.968 143.01 182.384 142.818C182.8 142.61 183.264 142.506 183.776 142.506ZM190.035 155.418C189.315 155.418 188.715 155.282 188.235 155.01C187.755 154.738 187.403 154.378 187.179 153.93C186.955 153.466 186.843 152.962 186.843 152.418C186.843 151.73 186.995 151.17 187.299 150.738C187.619 150.306 188.027 149.954 188.523 149.682C189.019 149.41 189.539 149.186 190.083 149.01C190.643 148.834 191.171 148.666 191.667 148.506C192.179 148.33 192.587 148.13 192.891 147.906C193.211 147.666 193.371 147.362 193.371 146.994V145.122C193.371 144.706 193.299 144.338 193.155 144.018C193.027 143.682 192.819 143.426 192.531 143.25C192.259 143.074 191.899 142.986 191.451 142.986C191.131 142.986 190.811 143.034 190.491 143.13C190.171 143.21 189.907 143.354 189.699 143.562C190.147 143.722 190.491 143.97 190.731 144.306C190.987 144.626 191.115 144.994 191.115 145.41C191.115 145.954 190.923 146.386 190.539 146.706C190.171 147.026 189.731 147.186 189.219 147.186C188.643 147.186 188.203 147.01 187.899 146.658C187.611 146.29 187.467 145.85 187.467 145.338C187.467 144.874 187.579 144.49 187.803 144.186C188.043 143.882 188.371 143.594 188.787 143.322C189.235 143.066 189.771 142.866 190.395 142.722C191.035 142.578 191.723 142.506 192.459 142.506C193.195 142.506 193.859 142.586 194.451 142.746C195.043 142.89 195.539 143.162 195.939 143.562C196.307 143.93 196.547 144.386 196.659 144.93C196.771 145.458 196.827 146.13 196.827 146.946V153.474C196.827 153.874 196.867 154.154 196.947 154.314C197.027 154.458 197.163 154.53 197.355 154.53C197.499 154.53 197.635 154.49 197.763 154.41C197.907 154.33 198.059 154.234 198.219 154.122L198.459 154.53C198.123 154.818 197.731 155.042 197.283 155.202C196.851 155.346 196.363 155.418 195.819 155.418C195.227 155.418 194.755 155.338 194.403 155.178C194.051 155.002 193.795 154.77 193.635 154.482C193.491 154.194 193.419 153.858 193.419 153.474C193.035 154.082 192.571 154.562 192.027 154.914C191.483 155.25 190.819 155.418 190.035 155.418ZM191.739 153.882C192.059 153.882 192.347 153.81 192.603 153.666C192.875 153.506 193.131 153.25 193.371 152.898V147.978C193.227 148.218 193.027 148.434 192.771 148.626C192.515 148.818 192.243 149.018 191.955 149.226C191.667 149.418 191.387 149.634 191.115 149.874C190.859 150.114 190.651 150.41 190.491 150.762C190.331 151.114 190.251 151.538 190.251 152.034C190.251 152.658 190.387 153.122 190.659 153.426C190.931 153.73 191.291 153.882 191.739 153.882ZM204.017 138.906V142.842H206.849V143.322H204.017V153.018C204.017 153.498 204.105 153.842 204.281 154.05C204.457 154.242 204.721 154.338 205.073 154.338C205.361 154.338 205.649 154.234 205.937 154.026C206.225 153.802 206.481 153.426 206.705 152.898L207.113 153.114C206.857 153.834 206.465 154.426 205.937 154.89C205.425 155.354 204.721 155.586 203.825 155.586C203.297 155.586 202.833 155.514 202.433 155.37C202.033 155.242 201.697 155.042 201.425 154.77C201.073 154.418 200.841 153.986 200.729 153.474C200.617 152.946 200.561 152.266 200.561 151.434V143.322H198.545V142.842H200.561V139.674C201.233 139.674 201.849 139.618 202.409 139.506C202.985 139.378 203.521 139.178 204.017 138.906ZM213.681 142.506C215.089 142.506 216.193 142.922 216.993 143.754C217.793 144.586 218.193 145.946 218.193 147.834H210.297L210.249 147.378H215.169C215.185 146.594 215.137 145.874 215.025 145.218C214.913 144.546 214.737 144.01 214.497 143.61C214.257 143.21 213.937 143.01 213.537 143.01C212.977 143.01 212.497 143.362 212.097 144.066C211.713 144.77 211.481 145.938 211.401 147.57L211.473 147.714C211.457 147.906 211.441 148.106 211.425 148.314C211.425 148.522 211.425 148.738 211.425 148.962C211.425 150.066 211.577 150.962 211.881 151.65C212.201 152.338 212.601 152.842 213.081 153.162C213.561 153.466 214.049 153.618 214.545 153.618C214.881 153.618 215.225 153.57 215.577 153.474C215.945 153.362 216.313 153.17 216.681 152.898C217.049 152.61 217.393 152.21 217.713 151.698L218.145 151.842C217.953 152.45 217.649 153.042 217.233 153.618C216.817 154.194 216.289 154.666 215.649 155.034C215.009 155.402 214.241 155.586 213.345 155.586C212.257 155.586 211.297 155.354 210.465 154.89C209.633 154.426 208.977 153.722 208.497 152.778C208.033 151.834 207.801 150.634 207.801 149.178C207.801 147.69 208.049 146.45 208.545 145.458C209.057 144.466 209.753 143.73 210.633 143.25C211.529 142.754 212.545 142.506 213.681 142.506ZM224.238 159.762C223.246 159.762 222.358 159.674 221.574 159.498C220.806 159.338 220.198 159.082 219.75 158.73C219.318 158.394 219.102 157.978 219.102 157.482C219.102 156.986 219.326 156.538 219.774 156.138C220.222 155.754 220.886 155.45 221.766 155.226L221.982 155.61C221.678 155.85 221.454 156.106 221.31 156.378C221.182 156.666 221.118 156.962 221.118 157.266C221.118 157.938 221.422 158.45 222.03 158.802C222.654 159.17 223.494 159.354 224.55 159.354C225.27 159.354 225.91 159.258 226.47 159.066C227.046 158.874 227.494 158.586 227.814 158.202C228.15 157.818 228.318 157.346 228.318 156.786C228.318 156.306 228.142 155.898 227.79 155.562C227.438 155.242 226.734 155.082 225.678 155.082H224.19C223.534 155.082 222.958 155.01 222.462 154.866C221.982 154.722 221.606 154.498 221.334 154.194C221.062 153.874 220.926 153.474 220.926 152.994C220.926 152.322 221.19 151.73 221.718 151.218C222.246 150.706 223.03 150.226 224.07 149.778L224.31 149.97C224.006 150.162 223.718 150.37 223.446 150.594C223.19 150.802 223.062 151.074 223.062 151.41C223.062 151.922 223.382 152.178 224.022 152.178H226.638C227.518 152.178 228.302 152.282 228.99 152.49C229.694 152.698 230.246 153.042 230.646 153.522C231.062 153.986 231.27 154.594 231.27 155.346C231.27 156.13 231.014 156.858 230.502 157.53C230.006 158.202 229.238 158.738 228.198 159.138C227.158 159.554 225.838 159.762 224.238 159.762ZM224.478 150.138C223.566 150.138 222.75 150.002 222.03 149.73C221.31 149.458 220.742 149.042 220.326 148.482C219.91 147.922 219.702 147.202 219.702 146.322C219.702 145.442 219.91 144.722 220.326 144.162C220.742 143.586 221.31 143.17 222.03 142.914C222.75 142.642 223.566 142.506 224.478 142.506C225.39 142.506 226.206 142.642 226.926 142.914C227.646 143.17 228.214 143.586 228.63 144.162C229.046 144.722 229.254 145.442 229.254 146.322C229.254 147.202 229.046 147.922 228.63 148.482C228.214 149.042 227.646 149.458 226.926 149.73C226.206 150.002 225.39 150.138 224.478 150.138ZM224.478 149.706C224.91 149.706 225.246 149.466 225.486 148.986C225.726 148.49 225.846 147.602 225.846 146.322C225.846 145.042 225.726 144.162 225.486 143.682C225.246 143.186 224.91 142.938 224.478 142.938C224.062 142.938 223.726 143.186 223.47 143.682C223.23 144.162 223.11 145.042 223.11 146.322C223.11 147.602 223.23 148.49 223.47 148.986C223.726 149.466 224.062 149.706 224.478 149.706ZM228.222 144.57L227.742 144.402C227.982 143.778 228.366 143.258 228.894 142.842C229.438 142.426 230.022 142.218 230.646 142.218C231.158 142.218 231.542 142.362 231.798 142.65C232.07 142.922 232.206 143.282 232.206 143.73C232.206 144.21 232.078 144.57 231.822 144.81C231.566 145.034 231.278 145.146 230.958 145.146C230.686 145.146 230.43 145.05 230.19 144.858C229.966 144.666 229.838 144.378 229.806 143.994C229.774 143.594 229.91 143.082 230.214 142.458L230.382 142.602C229.774 142.826 229.318 143.09 229.014 143.394C228.71 143.682 228.446 144.074 228.222 144.57ZM244.256 142.842V143.322C243.952 143.402 243.664 143.594 243.392 143.898C243.12 144.186 242.856 144.682 242.6 145.386L239.216 154.89L238.328 156.57L233.096 144.69C232.824 144.066 232.552 143.69 232.28 143.562C232.024 143.418 231.8 143.346 231.608 143.346V142.842C232.136 142.89 232.68 142.93 233.24 142.962C233.816 142.978 234.368 142.986 234.896 142.986C235.552 142.986 236.152 142.97 236.696 142.938C237.24 142.906 237.752 142.874 238.232 142.842V143.346C237.912 143.346 237.608 143.37 237.32 143.418C237.048 143.45 236.856 143.562 236.744 143.754C236.648 143.93 236.696 144.242 236.888 144.69L239.912 151.986L239.696 152.13L241.472 147.162C241.776 146.298 241.904 145.594 241.856 145.05C241.808 144.49 241.632 144.074 241.328 143.802C241.024 143.514 240.608 143.354 240.08 143.322V142.842C240.336 142.858 240.6 142.874 240.872 142.89C241.144 142.89 241.416 142.898 241.688 142.914C241.96 142.914 242.2 142.914 242.408 142.914C242.728 142.914 243.064 142.906 243.416 142.89C243.768 142.874 244.048 142.858 244.256 142.842ZM239.216 154.89L238.304 157.458C238.144 157.858 237.976 158.194 237.8 158.466C237.64 158.754 237.456 158.986 237.248 159.162C237.024 159.354 236.736 159.498 236.384 159.594C236.032 159.706 235.624 159.762 235.16 159.762C234.776 159.762 234.376 159.698 233.96 159.57C233.56 159.442 233.224 159.234 232.952 158.946C232.68 158.658 232.544 158.29 232.544 157.842C232.544 157.346 232.72 156.946 233.072 156.642C233.424 156.354 233.888 156.21 234.464 156.21C234.992 156.21 235.424 156.338 235.76 156.594C236.096 156.85 236.264 157.226 236.264 157.722C236.264 158.042 236.16 158.346 235.952 158.634C235.76 158.922 235.464 159.138 235.064 159.282C235.144 159.298 235.24 159.306 235.352 159.306C235.464 159.306 235.552 159.306 235.616 159.306C236.096 159.306 236.52 159.154 236.888 158.85C237.256 158.546 237.56 158.066 237.8 157.41L238.64 154.938L239.216 154.89Z" fill="white"/>
<defs>
<clipPath id="clip0_1_177">
<rect width="120" height="120" fill="white" transform="translate(78.75 0.25)"/>
</clipPath>
</defs>
</svg>
