<svg width="278" height="161" viewBox="0 0 278 161" fill="none" xmlns="http://www.w3.org/2000/svg">
<g clip-path="url(#clip0_1_212)">
<path d="M139.25 0.25C106.118 0.25 79.25 27.118 79.25 60.25C79.25 93.382 106.118 120.25 139.25 120.25C172.382 120.25 199.25 93.382 199.25 60.25C199.25 27.118 172.382 0.25 139.25 0.25ZM139.25 117.85C107.486 117.85 81.65 92.014 81.65 60.25C81.65 28.486 107.486 2.65 139.25 2.65C171.014 2.65 196.85 28.486 196.85 60.25C196.85 92.014 171.014 117.85 139.25 117.85ZM115.25 39.85C110.606 39.85 106.85 43.606 106.85 48.25C106.85 52.894 110.606 56.65 115.25 56.65C119.894 56.65 123.65 52.894 123.65 48.25C123.65 43.606 119.894 39.85 115.25 39.85ZM115.25 55.45C111.278 55.45 108.05 52.222 108.05 48.25C108.05 44.278 111.278 41.05 115.25 41.05C119.222 41.05 122.45 44.278 122.45 48.25C122.45 52.222 119.222 55.45 115.25 55.45ZM147.65 41.65H128.45V42.85H147.65V41.65ZM147.65 47.65H128.45V48.85H147.65V47.65ZM174.05 51.85H156.05V37.45C156.05 34.138 153.362 31.45 150.05 31.45H106.85C103.538 31.45 100.85 34.138 100.85 37.45V59.05C100.85 62.362 103.538 65.05 106.85 65.05H108.05V74.89L119.306 65.05H124.85V79.45C124.85 82.762 127.538 85.45 130.85 85.45H161.594L172.85 95.29V85.45H174.05C177.362 85.45 180.05 82.762 180.05 79.45V57.85C180.05 54.538 177.362 51.85 174.05 51.85ZM124.85 57.85V62.65H118.394L110.45 69.61V62.65H106.85C104.87 62.65 103.25 61.03 103.25 59.05V37.45C103.25 35.47 104.87 33.85 106.85 33.85H150.05C152.03 33.85 153.65 35.47 153.65 37.45V51.85H130.85C127.538 51.85 124.85 54.538 124.85 57.85ZM177.65 79.45C177.65 81.43 176.03 83.05 174.05 83.05H170.45V90.01L162.506 83.05H130.85C128.87 83.05 127.25 81.43 127.25 79.45V57.85C127.25 55.87 128.87 54.25 130.85 54.25H174.05C176.03 54.25 177.65 55.87 177.65 57.85V79.45ZM165.65 60.25C161.006 60.25 157.25 64.006 157.25 68.65C157.25 73.294 161.006 77.05 165.65 77.05C170.294 77.05 174.05 73.294 174.05 68.65C174.05 64.006 170.294 60.25 165.65 60.25ZM165.65 75.85C161.678 75.85 158.45 72.622 158.45 68.65C158.45 64.678 161.678 61.45 165.65 61.45C169.622 61.45 172.85 64.678 172.85 68.65C172.85 72.622 169.622 75.85 165.65 75.85ZM133.25 63.25H152.45V62.05H133.25V63.25ZM133.25 69.25H152.45V68.05H133.25V69.25ZM133.25 75.25H145.25V74.05H133.25V75.25Z" fill="white"/>
</g>
<path d="M53.0538 137.922C54.7498 137.922 56.2298 138.266 57.4938 138.954C58.7738 139.642 59.7658 140.634 60.4698 141.93C61.1738 143.21 61.5258 144.77 61.5258 146.61C61.5258 148.402 61.1658 149.97 60.4458 151.314C59.7258 152.658 58.7178 153.706 57.4218 154.458C56.1418 155.21 54.6778 155.586 53.0298 155.586C51.3338 155.586 49.8458 155.242 48.5658 154.554C47.3018 153.866 46.3178 152.874 45.6138 151.578C44.9098 150.282 44.5578 148.722 44.5578 146.898C44.5578 145.106 44.9178 143.538 45.6378 142.194C46.3738 140.85 47.3738 139.802 48.6378 139.05C49.9178 138.298 51.3898 137.922 53.0538 137.922ZM52.9578 138.354C52.0618 138.354 51.2778 138.714 50.6058 139.434C49.9498 140.154 49.4378 141.146 49.0698 142.41C48.7178 143.674 48.5418 145.138 48.5418 146.802C48.5418 148.498 48.7418 149.978 49.1418 151.242C49.5578 152.49 50.1098 153.458 50.7978 154.146C51.5018 154.818 52.2778 155.154 53.1258 155.154C54.0218 155.154 54.7978 154.794 55.4538 154.074C56.1258 153.354 56.6378 152.362 56.9898 151.098C57.3578 149.818 57.5418 148.354 57.5418 146.706C57.5418 144.994 57.3338 143.514 56.9178 142.266C56.5178 141.018 55.9658 140.058 55.2618 139.386C54.5738 138.698 53.8058 138.354 52.9578 138.354ZM72.061 142.506C72.733 142.506 73.277 142.594 73.693 142.77C74.125 142.93 74.461 143.154 74.701 143.442C74.957 143.746 75.141 144.138 75.253 144.618C75.381 145.098 75.445 145.746 75.445 146.562V153.018C75.445 153.69 75.557 154.146 75.781 154.386C76.021 154.626 76.421 154.746 76.981 154.746V155.25C76.677 155.234 76.221 155.218 75.613 155.202C75.005 155.17 74.405 155.154 73.813 155.154C73.205 155.154 72.605 155.17 72.013 155.202C71.437 155.218 70.997 155.234 70.693 155.25V154.746C71.173 154.746 71.509 154.626 71.701 154.386C71.893 154.146 71.989 153.69 71.989 153.018V145.554C71.989 145.154 71.949 144.81 71.869 144.522C71.789 144.218 71.645 143.986 71.437 143.826C71.229 143.65 70.917 143.562 70.501 143.562C70.069 143.562 69.669 143.682 69.301 143.922C68.949 144.162 68.661 144.498 68.437 144.93C68.229 145.346 68.125 145.818 68.125 146.346V153.018C68.125 153.69 68.221 154.146 68.413 154.386C68.621 154.626 68.957 154.746 69.421 154.746V155.25C69.133 155.234 68.709 155.218 68.149 155.202C67.605 155.17 67.037 155.154 66.445 155.154C65.837 155.154 65.213 155.17 64.573 155.202C63.933 155.218 63.453 155.234 63.133 155.25V154.746C63.693 154.746 64.085 154.626 64.309 154.386C64.549 154.146 64.669 153.69 64.669 153.018V145.458C64.669 144.738 64.557 144.21 64.333 143.874C64.125 143.522 63.725 143.346 63.133 143.346V142.842C63.645 142.89 64.141 142.914 64.621 142.914C65.293 142.914 65.917 142.89 66.493 142.842C67.085 142.778 67.629 142.69 68.125 142.578V144.738C68.525 143.922 69.069 143.346 69.757 143.01C70.445 142.674 71.213 142.506 72.061 142.506ZM82.3672 159.762C81.3752 159.762 80.4872 159.674 79.7032 159.498C78.9352 159.338 78.3272 159.082 77.8792 158.73C77.4472 158.394 77.2312 157.978 77.2312 157.482C77.2312 156.986 77.4552 156.538 77.9032 156.138C78.3512 155.754 79.0152 155.45 79.8952 155.226L80.1112 155.61C79.8072 155.85 79.5832 156.106 79.4392 156.378C79.3112 156.666 79.2472 156.962 79.2472 157.266C79.2472 157.938 79.5512 158.45 80.1592 158.802C80.7832 159.17 81.6232 159.354 82.6792 159.354C83.3992 159.354 84.0392 159.258 84.5992 159.066C85.1752 158.874 85.6232 158.586 85.9432 158.202C86.2792 157.818 86.4472 157.346 86.4472 156.786C86.4472 156.306 86.2712 155.898 85.9192 155.562C85.5672 155.242 84.8632 155.082 83.8072 155.082H82.3192C81.6632 155.082 81.0872 155.01 80.5912 154.866C80.1112 154.722 79.7352 154.498 79.4632 154.194C79.1912 153.874 79.0552 153.474 79.0552 152.994C79.0552 152.322 79.3192 151.73 79.8472 151.218C80.3752 150.706 81.1592 150.226 82.1992 149.778L82.4392 149.97C82.1352 150.162 81.8472 150.37 81.5752 150.594C81.3192 150.802 81.1912 151.074 81.1912 151.41C81.1912 151.922 81.5112 152.178 82.1512 152.178H84.7672C85.6472 152.178 86.4312 152.282 87.1192 152.49C87.8232 152.698 88.3752 153.042 88.7752 153.522C89.1912 153.986 89.3992 154.594 89.3992 155.346C89.3992 156.13 89.1432 156.858 88.6312 157.53C88.1352 158.202 87.3672 158.738 86.3272 159.138C85.2872 159.554 83.9672 159.762 82.3672 159.762ZM82.6072 150.138C81.6952 150.138 80.8792 150.002 80.1592 149.73C79.4392 149.458 78.8712 149.042 78.4552 148.482C78.0392 147.922 77.8312 147.202 77.8312 146.322C77.8312 145.442 78.0392 144.722 78.4552 144.162C78.8712 143.586 79.4392 143.17 80.1592 142.914C80.8792 142.642 81.6952 142.506 82.6072 142.506C83.5192 142.506 84.3352 142.642 85.0552 142.914C85.7752 143.17 86.3432 143.586 86.7592 144.162C87.1752 144.722 87.3832 145.442 87.3832 146.322C87.3832 147.202 87.1752 147.922 86.7592 148.482C86.3432 149.042 85.7752 149.458 85.0552 149.73C84.3352 150.002 83.5192 150.138 82.6072 150.138ZM82.6072 149.706C83.0392 149.706 83.3752 149.466 83.6152 148.986C83.8552 148.49 83.9752 147.602 83.9752 146.322C83.9752 145.042 83.8552 144.162 83.6152 143.682C83.3752 143.186 83.0392 142.938 82.6072 142.938C82.1912 142.938 81.8552 143.186 81.5992 143.682C81.3592 144.162 81.2392 145.042 81.2392 146.322C81.2392 147.602 81.3592 148.49 81.5992 148.986C81.8552 149.466 82.1912 149.706 82.6072 149.706ZM86.3512 144.57L85.8712 144.402C86.1112 143.778 86.4952 143.258 87.0232 142.842C87.5672 142.426 88.1512 142.218 88.7752 142.218C89.2872 142.218 89.6712 142.362 89.9272 142.65C90.1992 142.922 90.3352 143.282 90.3352 143.73C90.3352 144.21 90.2072 144.57 89.9512 144.81C89.6952 145.034 89.4072 145.146 89.0872 145.146C88.8152 145.146 88.5592 145.05 88.3192 144.858C88.0952 144.666 87.9672 144.378 87.9352 143.994C87.9032 143.594 88.0392 143.082 88.3432 142.458L88.5112 142.602C87.9032 142.826 87.4472 143.09 87.1432 143.394C86.8392 143.682 86.5752 144.074 86.3512 144.57ZM96.7938 142.506C97.9618 142.506 98.9858 142.722 99.8658 143.154C100.746 143.586 101.434 144.282 101.93 145.242C102.426 146.202 102.674 147.474 102.674 149.058C102.674 150.642 102.426 151.914 101.93 152.874C101.434 153.818 100.746 154.506 99.8658 154.938C98.9858 155.37 97.9618 155.586 96.7938 155.586C95.6578 155.586 94.6418 155.37 93.7458 154.938C92.8658 154.506 92.1698 153.818 91.6578 152.874C91.1618 151.914 90.9138 150.642 90.9138 149.058C90.9138 147.474 91.1618 146.202 91.6578 145.242C92.1698 144.282 92.8658 143.586 93.7458 143.154C94.6418 142.722 95.6578 142.506 96.7938 142.506ZM96.7938 142.986C96.1538 142.986 95.6178 143.466 95.1858 144.426C94.7538 145.37 94.5378 146.914 94.5378 149.058C94.5378 151.202 94.7538 152.746 95.1858 153.69C95.6178 154.634 96.1538 155.106 96.7938 155.106C97.4498 155.106 97.9858 154.634 98.4018 153.69C98.8338 152.746 99.0498 151.202 99.0498 149.058C99.0498 146.914 98.8338 145.37 98.4018 144.426C97.9858 143.466 97.4498 142.986 96.7938 142.986ZM107.292 136.65C107.964 136.65 108.492 136.818 108.876 137.154C109.276 137.474 109.476 137.922 109.476 138.498C109.476 139.074 109.276 139.53 108.876 139.866C108.492 140.186 107.964 140.346 107.292 140.346C106.62 140.346 106.084 140.186 105.684 139.866C105.3 139.53 105.108 139.074 105.108 138.498C105.108 137.922 105.3 137.474 105.684 137.154C106.084 136.818 106.62 136.65 107.292 136.65ZM109.164 142.578V153.018C109.164 153.69 109.276 154.146 109.5 154.386C109.74 154.626 110.14 154.746 110.7 154.746V155.25C110.412 155.234 109.964 155.218 109.356 155.202C108.748 155.17 108.132 155.154 107.508 155.154C106.884 155.154 106.252 155.17 105.612 155.202C104.972 155.218 104.492 155.234 104.172 155.25V154.746C104.732 154.746 105.124 154.626 105.348 154.386C105.588 154.146 105.708 153.69 105.708 153.018V145.458C105.708 144.738 105.596 144.21 105.372 143.874C105.164 143.522 104.764 143.346 104.172 143.346V142.842C104.684 142.89 105.18 142.914 105.66 142.914C106.332 142.914 106.956 142.89 107.532 142.842C108.124 142.778 108.668 142.69 109.164 142.578ZM120.67 142.506C121.342 142.506 121.886 142.594 122.302 142.77C122.734 142.93 123.07 143.154 123.31 143.442C123.566 143.746 123.75 144.138 123.862 144.618C123.99 145.098 124.054 145.746 124.054 146.562V153.018C124.054 153.69 124.166 154.146 124.39 154.386C124.63 154.626 125.03 154.746 125.59 154.746V155.25C125.286 155.234 124.83 155.218 124.222 155.202C123.614 155.17 123.014 155.154 122.422 155.154C121.814 155.154 121.214 155.17 120.622 155.202C120.046 155.218 119.606 155.234 119.302 155.25V154.746C119.782 154.746 120.118 154.626 120.31 154.386C120.502 154.146 120.598 153.69 120.598 153.018V145.554C120.598 145.154 120.558 144.81 120.478 144.522C120.398 144.218 120.254 143.986 120.046 143.826C119.838 143.65 119.526 143.562 119.11 143.562C118.678 143.562 118.278 143.682 117.91 143.922C117.558 144.162 117.27 144.498 117.046 144.93C116.838 145.346 116.734 145.818 116.734 146.346V153.018C116.734 153.69 116.83 154.146 117.022 154.386C117.23 154.626 117.566 154.746 118.03 154.746V155.25C117.742 155.234 117.318 155.218 116.758 155.202C116.214 155.17 115.646 155.154 115.054 155.154C114.446 155.154 113.822 155.17 113.182 155.202C112.542 155.218 112.062 155.234 111.742 155.25V154.746C112.302 154.746 112.694 154.626 112.918 154.386C113.158 154.146 113.278 153.69 113.278 153.018V145.458C113.278 144.738 113.166 144.21 112.942 143.874C112.734 143.522 112.334 143.346 111.742 143.346V142.842C112.254 142.89 112.75 142.914 113.23 142.914C113.902 142.914 114.526 142.89 115.102 142.842C115.694 142.778 116.238 142.69 116.734 142.578V144.738C117.134 143.922 117.678 143.346 118.366 143.01C119.054 142.674 119.822 142.506 120.67 142.506ZM130.977 159.762C129.985 159.762 129.097 159.674 128.313 159.498C127.545 159.338 126.937 159.082 126.489 158.73C126.057 158.394 125.841 157.978 125.841 157.482C125.841 156.986 126.065 156.538 126.513 156.138C126.961 155.754 127.625 155.45 128.505 155.226L128.721 155.61C128.417 155.85 128.193 156.106 128.049 156.378C127.921 156.666 127.857 156.962 127.857 157.266C127.857 157.938 128.161 158.45 128.769 158.802C129.393 159.17 130.233 159.354 131.289 159.354C132.009 159.354 132.649 159.258 133.209 159.066C133.785 158.874 134.233 158.586 134.553 158.202C134.889 157.818 135.057 157.346 135.057 156.786C135.057 156.306 134.881 155.898 134.529 155.562C134.177 155.242 133.473 155.082 132.417 155.082H130.929C130.273 155.082 129.697 155.01 129.201 154.866C128.721 154.722 128.345 154.498 128.073 154.194C127.801 153.874 127.665 153.474 127.665 152.994C127.665 152.322 127.929 151.73 128.457 151.218C128.985 150.706 129.769 150.226 130.809 149.778L131.049 149.97C130.745 150.162 130.457 150.37 130.185 150.594C129.929 150.802 129.801 151.074 129.801 151.41C129.801 151.922 130.121 152.178 130.761 152.178H133.377C134.257 152.178 135.041 152.282 135.729 152.49C136.433 152.698 136.985 153.042 137.385 153.522C137.801 153.986 138.009 154.594 138.009 155.346C138.009 156.13 137.753 156.858 137.241 157.53C136.745 158.202 135.977 158.738 134.937 159.138C133.897 159.554 132.577 159.762 130.977 159.762ZM131.217 150.138C130.305 150.138 129.489 150.002 128.769 149.73C128.049 149.458 127.481 149.042 127.065 148.482C126.649 147.922 126.441 147.202 126.441 146.322C126.441 145.442 126.649 144.722 127.065 144.162C127.481 143.586 128.049 143.17 128.769 142.914C129.489 142.642 130.305 142.506 131.217 142.506C132.129 142.506 132.945 142.642 133.665 142.914C134.385 143.17 134.953 143.586 135.369 144.162C135.785 144.722 135.993 145.442 135.993 146.322C135.993 147.202 135.785 147.922 135.369 148.482C134.953 149.042 134.385 149.458 133.665 149.73C132.945 150.002 132.129 150.138 131.217 150.138ZM131.217 149.706C131.649 149.706 131.985 149.466 132.225 148.986C132.465 148.49 132.585 147.602 132.585 146.322C132.585 145.042 132.465 144.162 132.225 143.682C131.985 143.186 131.649 142.938 131.217 142.938C130.801 142.938 130.465 143.186 130.209 143.682C129.969 144.162 129.849 145.042 129.849 146.322C129.849 147.602 129.969 148.49 130.209 148.986C130.465 149.466 130.801 149.706 131.217 149.706ZM134.961 144.57L134.481 144.402C134.721 143.778 135.105 143.258 135.633 142.842C136.177 142.426 136.761 142.218 137.385 142.218C137.897 142.218 138.281 142.362 138.537 142.65C138.809 142.922 138.945 143.282 138.945 143.73C138.945 144.21 138.817 144.57 138.561 144.81C138.305 145.034 138.017 145.146 137.697 145.146C137.425 145.146 137.169 145.05 136.929 144.858C136.705 144.666 136.577 144.378 136.545 143.994C136.513 143.594 136.649 143.082 136.953 142.458L137.121 142.602C136.513 142.826 136.057 143.09 135.753 143.394C135.449 143.682 135.185 144.074 134.961 144.57ZM151.428 137.946C152.372 137.946 153.1 138.05 153.612 138.258C154.124 138.45 154.564 138.658 154.932 138.882C155.124 138.994 155.276 139.082 155.388 139.146C155.516 139.194 155.636 139.218 155.748 139.218C155.908 139.218 156.02 139.13 156.084 138.954C156.164 138.778 156.228 138.514 156.276 138.162H156.828C156.812 138.466 156.788 138.834 156.756 139.266C156.74 139.682 156.724 140.234 156.708 140.922C156.708 141.61 156.708 142.514 156.708 143.634H156.156C156.092 142.802 155.9 141.994 155.58 141.21C155.26 140.426 154.804 139.786 154.212 139.29C153.636 138.778 152.924 138.522 152.076 138.522C151.308 138.522 150.676 138.738 150.18 139.17C149.684 139.602 149.436 140.202 149.436 140.97C149.436 141.61 149.596 142.162 149.916 142.626C150.236 143.074 150.7 143.514 151.308 143.946C151.932 144.378 152.684 144.898 153.564 145.506C154.332 146.002 155.02 146.498 155.628 146.994C156.236 147.49 156.724 148.05 157.092 148.674C157.46 149.298 157.644 150.042 157.644 150.906C157.644 151.962 157.364 152.834 156.804 153.522C156.26 154.21 155.54 154.73 154.644 155.082C153.748 155.418 152.764 155.586 151.692 155.586C150.7 155.586 149.908 155.49 149.316 155.298C148.724 155.106 148.228 154.906 147.828 154.698C147.476 154.474 147.204 154.362 147.012 154.362C146.852 154.362 146.732 154.45 146.652 154.626C146.588 154.802 146.532 155.066 146.484 155.418H145.932C145.964 155.034 145.98 154.586 145.98 154.074C145.996 153.562 146.004 152.898 146.004 152.082C146.02 151.25 146.028 150.202 146.028 148.938H146.58C146.644 149.994 146.82 150.986 147.108 151.914C147.412 152.826 147.868 153.562 148.476 154.122C149.1 154.682 149.924 154.962 150.948 154.962C151.508 154.962 152.004 154.866 152.436 154.674C152.884 154.466 153.244 154.162 153.516 153.762C153.788 153.362 153.924 152.866 153.924 152.274C153.924 151.602 153.764 151.018 153.444 150.522C153.14 150.026 152.716 149.562 152.172 149.13C151.644 148.698 151.028 148.258 150.324 147.81C149.572 147.314 148.868 146.818 148.212 146.322C147.556 145.826 147.028 145.258 146.628 144.618C146.244 143.978 146.052 143.218 146.052 142.338C146.052 141.33 146.3 140.506 146.796 139.866C147.308 139.21 147.972 138.73 148.788 138.426C149.62 138.106 150.5 137.946 151.428 137.946ZM171.155 142.578V152.634C171.155 153.354 171.267 153.89 171.491 154.242C171.715 154.578 172.115 154.746 172.691 154.746V155.25C172.195 155.202 171.699 155.178 171.203 155.178C170.531 155.178 169.907 155.202 169.331 155.25C168.755 155.298 168.211 155.386 167.699 155.514V153.354C167.315 154.154 166.779 154.73 166.091 155.082C165.419 155.418 164.667 155.586 163.835 155.586C163.163 155.586 162.619 155.498 162.203 155.322C161.787 155.146 161.459 154.922 161.219 154.65C160.947 154.346 160.755 153.946 160.643 153.45C160.531 152.954 160.475 152.314 160.475 151.53V145.458C160.475 144.738 160.363 144.21 160.139 143.874C159.931 143.522 159.531 143.346 158.939 143.346V142.842C159.451 142.89 159.947 142.914 160.427 142.914C161.099 142.914 161.723 142.89 162.299 142.842C162.891 142.778 163.435 142.69 163.931 142.578V152.514C163.931 152.914 163.963 153.266 164.027 153.57C164.107 153.874 164.251 154.114 164.459 154.29C164.667 154.45 164.971 154.53 165.371 154.53C165.803 154.53 166.187 154.41 166.523 154.17C166.875 153.93 167.155 153.602 167.363 153.186C167.587 152.754 167.699 152.274 167.699 151.746V145.458C167.699 144.738 167.587 144.21 167.363 143.874C167.155 143.522 166.755 143.346 166.163 143.346V142.842C166.675 142.89 167.171 142.914 167.651 142.914C168.323 142.914 168.947 142.89 169.523 142.842C170.115 142.778 170.659 142.69 171.155 142.578ZM178.654 142.578V157.218C178.654 157.97 178.846 158.466 179.23 158.706C179.614 158.962 180.142 159.09 180.814 159.09V159.594C180.398 159.578 179.822 159.554 179.086 159.522C178.366 159.506 177.598 159.498 176.782 159.498C176.19 159.498 175.606 159.506 175.03 159.522C174.47 159.554 174.046 159.578 173.758 159.594V159.09C174.286 159.09 174.654 158.978 174.862 158.754C175.086 158.53 175.198 158.098 175.198 157.458V145.458C175.198 144.738 175.086 144.21 174.862 143.874C174.638 143.522 174.238 143.346 173.662 143.346V142.842C174.174 142.89 174.67 142.914 175.15 142.914C175.806 142.914 176.43 142.89 177.022 142.842C177.614 142.778 178.158 142.69 178.654 142.578ZM182.374 142.506C183.19 142.506 183.918 142.73 184.558 143.178C185.198 143.61 185.71 144.274 186.094 145.17C186.478 146.05 186.67 147.154 186.67 148.482C186.67 149.65 186.534 150.674 186.262 151.554C186.006 152.434 185.63 153.178 185.134 153.786C184.654 154.378 184.07 154.826 183.382 155.13C182.71 155.434 181.95 155.586 181.102 155.586C180.478 155.586 179.91 155.474 179.398 155.25C178.886 155.042 178.494 154.738 178.222 154.338L178.462 154.026C178.622 154.314 178.846 154.538 179.134 154.698C179.438 154.858 179.782 154.938 180.166 154.938C180.886 154.938 181.454 154.698 181.87 154.218C182.286 153.722 182.582 153.034 182.758 152.154C182.95 151.258 183.046 150.194 183.046 148.962C183.046 147.586 182.958 146.506 182.782 145.722C182.606 144.938 182.366 144.378 182.062 144.042C181.758 143.706 181.39 143.538 180.958 143.538C180.382 143.538 179.854 143.762 179.374 144.21C178.91 144.658 178.646 145.298 178.582 146.13L178.462 145.29C178.75 144.378 179.238 143.69 179.926 143.226C180.63 142.746 181.446 142.506 182.374 142.506ZM193.045 142.578V157.218C193.045 157.97 193.237 158.466 193.621 158.706C194.005 158.962 194.533 159.09 195.205 159.09V159.594C194.789 159.578 194.213 159.554 193.477 159.522C192.757 159.506 191.989 159.498 191.173 159.498C190.581 159.498 189.997 159.506 189.421 159.522C188.861 159.554 188.437 159.578 188.149 159.594V159.09C188.677 159.09 189.045 158.978 189.253 158.754C189.477 158.53 189.589 158.098 189.589 157.458V145.458C189.589 144.738 189.477 144.21 189.253 143.874C189.029 143.522 188.629 143.346 188.053 143.346V142.842C188.565 142.89 189.061 142.914 189.541 142.914C190.197 142.914 190.821 142.89 191.413 142.842C192.005 142.778 192.549 142.69 193.045 142.578ZM196.765 142.506C197.581 142.506 198.309 142.73 198.949 143.178C199.589 143.61 200.101 144.274 200.485 145.17C200.869 146.05 201.061 147.154 201.061 148.482C201.061 149.65 200.925 150.674 200.653 151.554C200.397 152.434 200.021 153.178 199.525 153.786C199.045 154.378 198.461 154.826 197.773 155.13C197.101 155.434 196.341 155.586 195.493 155.586C194.869 155.586 194.301 155.474 193.789 155.25C193.277 155.042 192.885 154.738 192.613 154.338L192.853 154.026C193.013 154.314 193.237 154.538 193.525 154.698C193.829 154.858 194.173 154.938 194.557 154.938C195.277 154.938 195.845 154.698 196.261 154.218C196.677 153.722 196.973 153.034 197.149 152.154C197.341 151.258 197.437 150.194 197.437 148.962C197.437 147.586 197.349 146.506 197.173 145.722C196.997 144.938 196.757 144.378 196.453 144.042C196.149 143.706 195.781 143.538 195.349 143.538C194.773 143.538 194.245 143.762 193.765 144.21C193.301 144.658 193.037 145.298 192.973 146.13L192.853 145.29C193.141 144.378 193.629 143.69 194.317 143.226C195.021 142.746 195.837 142.506 196.765 142.506ZM208.731 142.506C209.899 142.506 210.923 142.722 211.803 143.154C212.683 143.586 213.371 144.282 213.867 145.242C214.363 146.202 214.611 147.474 214.611 149.058C214.611 150.642 214.363 151.914 213.867 152.874C213.371 153.818 212.683 154.506 211.803 154.938C210.923 155.37 209.899 155.586 208.731 155.586C207.595 155.586 206.579 155.37 205.683 154.938C204.803 154.506 204.107 153.818 203.595 152.874C203.099 151.914 202.851 150.642 202.851 149.058C202.851 147.474 203.099 146.202 203.595 145.242C204.107 144.282 204.803 143.586 205.683 143.154C206.579 142.722 207.595 142.506 208.731 142.506ZM208.731 142.986C208.091 142.986 207.555 143.466 207.123 144.426C206.691 145.37 206.475 146.914 206.475 149.058C206.475 151.202 206.691 152.746 207.123 153.69C207.555 154.634 208.091 155.106 208.731 155.106C209.387 155.106 209.923 154.634 210.339 153.69C210.771 152.746 210.987 151.202 210.987 149.058C210.987 146.914 210.771 145.37 210.339 144.426C209.923 143.466 209.387 142.986 208.731 142.986ZM224.366 142.506C224.878 142.506 225.294 142.618 225.614 142.842C225.934 143.05 226.166 143.322 226.31 143.658C226.47 143.994 226.55 144.346 226.55 144.714C226.55 145.306 226.374 145.794 226.022 146.178C225.686 146.546 225.238 146.73 224.678 146.73C224.118 146.73 223.678 146.594 223.358 146.322C223.054 146.034 222.902 145.658 222.902 145.194C222.902 144.746 222.998 144.378 223.19 144.09C223.398 143.786 223.654 143.53 223.958 143.322C223.734 143.258 223.51 143.266 223.286 143.346C222.982 143.394 222.694 143.522 222.422 143.73C222.15 143.922 221.918 144.17 221.726 144.474C221.534 144.762 221.382 145.082 221.27 145.434C221.158 145.77 221.102 146.098 221.102 146.418V152.778C221.102 153.546 221.286 154.066 221.654 154.338C222.038 154.61 222.606 154.746 223.358 154.746V155.25C222.99 155.234 222.454 155.218 221.75 155.202C221.046 155.17 220.31 155.154 219.542 155.154C218.902 155.154 218.254 155.17 217.598 155.202C216.942 155.218 216.446 155.234 216.11 155.25V154.746C216.67 154.746 217.062 154.626 217.286 154.386C217.526 154.146 217.646 153.69 217.646 153.018V145.458C217.646 144.738 217.534 144.21 217.31 143.874C217.102 143.522 216.702 143.346 216.11 143.346V142.842C216.622 142.89 217.118 142.914 217.598 142.914C218.27 142.914 218.894 142.89 219.47 142.842C220.062 142.778 220.606 142.69 221.102 142.578V144.81C221.294 144.378 221.55 143.986 221.87 143.634C222.19 143.282 222.558 143.01 222.974 142.818C223.39 142.61 223.854 142.506 224.366 142.506ZM232.185 138.906V142.842H235.017V143.322H232.185V153.018C232.185 153.498 232.273 153.842 232.449 154.05C232.625 154.242 232.889 154.338 233.241 154.338C233.529 154.338 233.817 154.234 234.105 154.026C234.393 153.802 234.649 153.426 234.873 152.898L235.281 153.114C235.025 153.834 234.633 154.426 234.105 154.89C233.593 155.354 232.889 155.586 231.993 155.586C231.465 155.586 231.001 155.514 230.601 155.37C230.201 155.242 229.865 155.042 229.593 154.77C229.241 154.418 229.009 153.986 228.897 153.474C228.785 152.946 228.729 152.266 228.729 151.434V143.322H226.713V142.842H228.729V139.674C229.401 139.674 230.017 139.618 230.577 139.506C231.153 139.378 231.689 139.178 232.185 138.906Z" fill="white"/>
<defs>
<clipPath id="clip0_1_212">
<rect width="120" height="120" fill="white" transform="translate(79.25 0.25)"/>
</clipPath>
</defs>
</svg>
