<svg width="278" height="161" viewBox="0 0 278 161" fill="none" xmlns="http://www.w3.org/2000/svg">
<g clip-path="url(#clip0_1_187)">
<path d="M138.75 0.25C105.618 0.25 78.75 27.118 78.75 60.25C78.75 93.382 105.618 120.25 138.75 120.25C171.882 120.25 198.75 93.382 198.75 60.25C198.75 27.118 171.882 0.25 138.75 0.25ZM138.75 117.85C106.986 117.85 81.15 92.014 81.15 60.25C81.15 28.486 106.986 2.65 138.75 2.65C170.514 2.65 196.35 28.486 196.35 60.25C196.35 92.014 170.514 117.85 138.75 117.85ZM115.95 29.05H118.35V27.85H115.95V29.05ZM132.75 27.85H130.35V29.05H132.75V27.85ZM139.95 27.85H137.55V29.05H139.95V27.85ZM123.15 29.05H125.55V27.85H123.15V29.05ZM147.15 27.85H144.75V29.05H147.15V27.85ZM115.95 86.65H118.35V85.45H115.95V86.65ZM123.15 86.65H125.55V85.45H123.15V86.65ZM130.35 86.65H132.75V85.45H130.35V86.65ZM156.642 64.486C157.194 51.682 156.03 37.654 153.15 28.858V20.65H107.55V28.858C102.702 43.642 102.702 73.246 107.55 86.866V95.05H137.322C137.658 95.902 137.97 96.682 138.246 97.318C140.214 101.902 145.518 104.05 154.95 104.05C164.382 104.05 169.686 101.914 171.654 97.318C173.454 93.118 177.222 81.706 177.354 81.298L177.462 81.022C179.922 79.366 181.35 77.398 181.35 75.238C181.35 69.322 170.838 64.822 156.642 64.486ZM109.95 92.65V86.65H111.15V85.45H109.614C105.186 72.13 105.27 43.282 109.89 29.434L109.95 29.242V29.05H111.15V27.85H109.95V23.05H150.75V29.242L150.81 29.422C153.618 37.846 154.746 51.802 154.206 64.462C139.53 64.618 128.55 69.19 128.55 75.25C128.55 77.326 129.858 79.222 132.15 80.83L132.798 82.606C132.906 82.918 134.73 88.15 136.41 92.65H109.95ZM169.446 96.382C167.898 99.982 163.302 101.65 154.95 101.65C146.598 101.65 141.99 99.97 140.454 96.382C139.59 94.354 138.27 90.814 137.154 87.718C140.478 89.458 146.502 90.85 154.95 90.85C163.302 90.85 169.278 89.494 172.626 87.778C171.51 91.006 170.262 94.486 169.446 96.382ZM173.226 86.038C170.478 87.958 163.926 89.65 154.95 89.65C145.806 89.65 139.17 87.886 136.518 85.93C136.014 84.526 135.606 83.35 135.342 82.606C140.094 84.742 146.994 86.038 154.95 86.038C162.798 86.038 169.614 84.766 174.366 82.69C174.054 83.626 173.658 84.778 173.226 86.038ZM154.95 83.65C140.802 83.65 130.95 79.222 130.95 75.25C130.95 71.278 140.802 66.85 154.95 66.85C169.098 66.85 178.95 71.278 178.95 75.25C178.95 79.222 169.098 83.65 154.95 83.65Z" fill="white"/>
</g>
<path d="M40.9277 138.258C41.3277 138.274 41.8637 138.29 42.5357 138.306C43.2237 138.322 43.9037 138.33 44.5757 138.33C45.3437 138.33 46.0877 138.322 46.8077 138.306C47.5277 138.29 48.0397 138.282 48.3437 138.282C50.5677 138.282 52.2317 138.722 53.3357 139.602C54.4397 140.482 54.9917 141.618 54.9917 143.01C54.9917 143.586 54.8797 144.194 54.6557 144.834C54.4317 145.458 54.0477 146.042 53.5037 146.586C52.9757 147.114 52.2477 147.546 51.3197 147.882C50.3917 148.218 49.2237 148.386 47.8157 148.386H45.3677V147.906H47.5757C48.5197 147.906 49.2317 147.69 49.7117 147.258C50.2077 146.826 50.5437 146.258 50.7197 145.554C50.9117 144.85 51.0077 144.09 51.0077 143.274C51.0077 141.754 50.7837 140.618 50.3357 139.866C49.8877 139.114 49.1197 138.738 48.0317 138.738C47.4077 138.738 46.9997 138.874 46.8077 139.146C46.6317 139.418 46.5437 139.97 46.5437 140.802V152.562C46.5437 153.186 46.6077 153.65 46.7357 153.954C46.8637 154.258 47.1117 154.458 47.4797 154.554C47.8477 154.65 48.3917 154.706 49.1117 154.722V155.25C48.6157 155.234 47.9757 155.218 47.1917 155.202C46.4077 155.186 45.5837 155.178 44.7197 155.178C44.0317 155.178 43.3597 155.186 42.7037 155.202C42.0477 155.218 41.4557 155.234 40.9277 155.25V154.77C41.4397 154.738 41.8237 154.674 42.0797 154.578C42.3357 154.482 42.5037 154.29 42.5837 154.002C42.6797 153.714 42.7277 153.282 42.7277 152.706V140.802C42.7277 140.21 42.6797 139.778 42.5837 139.506C42.5037 139.218 42.3277 139.026 42.0557 138.93C41.7997 138.818 41.4237 138.754 40.9277 138.738V138.258ZM59.0935 155.418C58.3735 155.418 57.7735 155.282 57.2935 155.01C56.8135 154.738 56.4615 154.378 56.2375 153.93C56.0135 153.466 55.9015 152.962 55.9015 152.418C55.9015 151.73 56.0535 151.17 56.3575 150.738C56.6775 150.306 57.0855 149.954 57.5815 149.682C58.0775 149.41 58.5975 149.186 59.1415 149.01C59.7015 148.834 60.2295 148.666 60.7255 148.506C61.2375 148.33 61.6455 148.13 61.9495 147.906C62.2695 147.666 62.4295 147.362 62.4295 146.994V145.122C62.4295 144.706 62.3575 144.338 62.2135 144.018C62.0855 143.682 61.8775 143.426 61.5895 143.25C61.3175 143.074 60.9575 142.986 60.5095 142.986C60.1895 142.986 59.8695 143.034 59.5495 143.13C59.2295 143.21 58.9655 143.354 58.7575 143.562C59.2055 143.722 59.5495 143.97 59.7895 144.306C60.0455 144.626 60.1735 144.994 60.1735 145.41C60.1735 145.954 59.9815 146.386 59.5975 146.706C59.2295 147.026 58.7895 147.186 58.2775 147.186C57.7015 147.186 57.2615 147.01 56.9575 146.658C56.6695 146.29 56.5255 145.85 56.5255 145.338C56.5255 144.874 56.6375 144.49 56.8615 144.186C57.1015 143.882 57.4295 143.594 57.8455 143.322C58.2935 143.066 58.8295 142.866 59.4535 142.722C60.0935 142.578 60.7815 142.506 61.5175 142.506C62.2535 142.506 62.9175 142.586 63.5095 142.746C64.1015 142.89 64.5975 143.162 64.9975 143.562C65.3655 143.93 65.6055 144.386 65.7175 144.93C65.8295 145.458 65.8855 146.13 65.8855 146.946V153.474C65.8855 153.874 65.9255 154.154 66.0055 154.314C66.0855 154.458 66.2215 154.53 66.4135 154.53C66.5575 154.53 66.6935 154.49 66.8215 154.41C66.9655 154.33 67.1175 154.234 67.2775 154.122L67.5175 154.53C67.1815 154.818 66.7895 155.042 66.3415 155.202C65.9095 155.346 65.4215 155.418 64.8775 155.418C64.2855 155.418 63.8135 155.338 63.4615 155.178C63.1095 155.002 62.8535 154.77 62.6935 154.482C62.5495 154.194 62.4775 153.858 62.4775 153.474C62.0935 154.082 61.6295 154.562 61.0855 154.914C60.5415 155.25 59.8775 155.418 59.0935 155.418ZM60.7975 153.882C61.1175 153.882 61.4055 153.81 61.6615 153.666C61.9335 153.506 62.1895 153.25 62.4295 152.898V147.978C62.2855 148.218 62.0855 148.434 61.8295 148.626C61.5735 148.818 61.3015 149.018 61.0135 149.226C60.7255 149.418 60.4455 149.634 60.1735 149.874C59.9175 150.114 59.7095 150.41 59.5495 150.762C59.3895 151.114 59.3095 151.538 59.3095 152.034C59.3095 152.658 59.4455 153.122 59.7175 153.426C59.9895 153.73 60.3495 153.882 60.7975 153.882ZM74.4433 142.506C75.0673 142.506 75.6353 142.578 76.1473 142.722C76.6753 142.85 77.1073 143.018 77.4433 143.226C77.8593 143.482 78.1793 143.802 78.4033 144.186C78.6433 144.554 78.7633 144.986 78.7633 145.482C78.7633 146.042 78.5873 146.506 78.2353 146.874C77.8833 147.226 77.4273 147.402 76.8673 147.402C76.3073 147.402 75.8593 147.242 75.5233 146.922C75.1873 146.602 75.0193 146.17 75.0193 145.626C75.0193 145.114 75.1793 144.69 75.4993 144.354C75.8193 144.002 76.1873 143.77 76.6033 143.658C76.4753 143.498 76.2833 143.362 76.0273 143.25C75.7713 143.138 75.4833 143.082 75.1633 143.082C74.6673 143.082 74.2273 143.226 73.8433 143.514C73.4753 143.802 73.1633 144.202 72.9073 144.714C72.6513 145.226 72.4513 145.826 72.3073 146.514C72.1793 147.202 72.1153 147.954 72.1153 148.77C72.1153 150.002 72.2673 150.97 72.5713 151.674C72.8913 152.378 73.2913 152.874 73.7713 153.162C74.2673 153.45 74.7793 153.594 75.3073 153.594C75.6113 153.594 75.9393 153.546 76.2913 153.45C76.6593 153.354 77.0273 153.162 77.3953 152.874C77.7793 152.586 78.1313 152.178 78.4513 151.65L78.8593 151.794C78.6833 152.386 78.3953 152.978 77.9953 153.57C77.5953 154.162 77.0753 154.65 76.4353 155.034C75.7953 155.402 75.0113 155.586 74.0833 155.586C73.0433 155.586 72.0993 155.362 71.2513 154.914C70.4193 154.45 69.7473 153.746 69.2353 152.802C68.7393 151.842 68.4913 150.61 68.4913 149.106C68.4913 147.666 68.7473 146.458 69.2593 145.482C69.7873 144.49 70.4993 143.746 71.3953 143.25C72.2913 142.754 73.3073 142.506 74.4433 142.506ZM84.9816 136.458V153.018C84.9816 153.69 85.0856 154.146 85.2936 154.386C85.5176 154.626 85.8936 154.746 86.4216 154.746V155.25C86.1176 155.234 85.6696 155.218 85.0776 155.202C84.5016 155.17 83.9096 155.154 83.3016 155.154C82.6776 155.154 82.0456 155.17 81.4056 155.202C80.7816 155.218 80.3096 155.234 79.9896 155.25V154.746C80.5496 154.746 80.9416 154.626 81.1656 154.386C81.4056 154.146 81.5256 153.69 81.5256 153.018V139.338C81.5256 138.618 81.4136 138.09 81.1896 137.754C80.9816 137.402 80.5816 137.226 79.9896 137.226V136.722C80.5016 136.77 80.9976 136.794 81.4776 136.794C82.1336 136.794 82.7576 136.77 83.3496 136.722C83.9416 136.658 84.4856 136.57 84.9816 136.458ZM92.8056 142.842V143.322C92.3096 143.418 91.8136 143.626 91.3176 143.946C90.8216 144.266 90.3176 144.674 89.8056 145.17L87.9576 147.09L88.1976 146.634L92.3016 153.498C92.4776 153.786 92.6616 154.042 92.8536 154.266C93.0456 154.49 93.2776 154.65 93.5496 154.746V155.25C93.3096 155.234 92.9496 155.218 92.4696 155.202C91.9896 155.17 91.5096 155.154 91.0296 155.154C90.4376 155.154 89.8456 155.17 89.2536 155.202C88.6616 155.218 88.2216 155.234 87.9336 155.25V154.746C88.2536 154.746 88.4696 154.674 88.5816 154.53C88.6936 154.37 88.6776 154.17 88.5336 153.93L86.1576 149.634C85.9656 149.33 85.7736 149.138 85.5816 149.058C85.4056 148.962 85.1656 148.906 84.8616 148.89V148.434C85.1976 148.402 85.4856 148.346 85.7256 148.266C85.9816 148.186 86.2136 148.034 86.4216 147.81L88.2456 146.034C88.7896 145.522 89.0616 145.066 89.0616 144.666C89.0616 144.266 88.8856 143.946 88.5336 143.706C88.1976 143.466 87.7496 143.338 87.1896 143.322V142.842C87.6376 142.858 88.1256 142.874 88.6536 142.89C89.1816 142.906 89.6296 142.914 89.9976 142.914C90.3176 142.914 90.6536 142.914 91.0056 142.914C91.3736 142.898 91.7176 142.89 92.0376 142.89C92.3576 142.874 92.6136 142.858 92.8056 142.842ZM97.3669 155.418C96.6469 155.418 96.0469 155.282 95.5669 155.01C95.0869 154.738 94.7349 154.378 94.5109 153.93C94.2869 153.466 94.1749 152.962 94.1749 152.418C94.1749 151.73 94.3269 151.17 94.6309 150.738C94.9509 150.306 95.3589 149.954 95.8549 149.682C96.3509 149.41 96.8709 149.186 97.4149 149.01C97.9749 148.834 98.5029 148.666 98.9989 148.506C99.5109 148.33 99.9189 148.13 100.223 147.906C100.543 147.666 100.703 147.362 100.703 146.994V145.122C100.703 144.706 100.631 144.338 100.487 144.018C100.359 143.682 100.151 143.426 99.8629 143.25C99.5909 143.074 99.2309 142.986 98.7829 142.986C98.4629 142.986 98.1429 143.034 97.8229 143.13C97.5029 143.21 97.2389 143.354 97.0309 143.562C97.4789 143.722 97.8229 143.97 98.0629 144.306C98.3189 144.626 98.4469 144.994 98.4469 145.41C98.4469 145.954 98.2549 146.386 97.8709 146.706C97.5029 147.026 97.0629 147.186 96.5509 147.186C95.9749 147.186 95.5349 147.01 95.2309 146.658C94.9429 146.29 94.7989 145.85 94.7989 145.338C94.7989 144.874 94.9109 144.49 95.1349 144.186C95.3749 143.882 95.7029 143.594 96.1189 143.322C96.5669 143.066 97.1029 142.866 97.7269 142.722C98.3669 142.578 99.0549 142.506 99.7909 142.506C100.527 142.506 101.191 142.586 101.783 142.746C102.375 142.89 102.871 143.162 103.271 143.562C103.639 143.93 103.879 144.386 103.991 144.93C104.103 145.458 104.159 146.13 104.159 146.946V153.474C104.159 153.874 104.199 154.154 104.279 154.314C104.359 154.458 104.495 154.53 104.687 154.53C104.831 154.53 104.967 154.49 105.095 154.41C105.239 154.33 105.391 154.234 105.551 154.122L105.791 154.53C105.455 154.818 105.063 155.042 104.615 155.202C104.183 155.346 103.695 155.418 103.151 155.418C102.559 155.418 102.087 155.338 101.735 155.178C101.383 155.002 101.127 154.77 100.967 154.482C100.823 154.194 100.751 153.858 100.751 153.474C100.367 154.082 99.9029 154.562 99.3589 154.914C98.8149 155.25 98.1509 155.418 97.3669 155.418ZM99.0709 153.882C99.3909 153.882 99.6789 153.81 99.9349 153.666C100.207 153.506 100.463 153.25 100.703 152.898V147.978C100.559 148.218 100.359 148.434 100.103 148.626C99.8469 148.818 99.5749 149.018 99.2869 149.226C98.9989 149.418 98.7189 149.634 98.4469 149.874C98.1909 150.114 97.9829 150.41 97.8229 150.762C97.6629 151.114 97.5829 151.538 97.5829 152.034C97.5829 152.658 97.7189 153.122 97.9909 153.426C98.2629 153.73 98.6229 153.882 99.0709 153.882ZM111.133 159.762C110.141 159.762 109.253 159.674 108.469 159.498C107.701 159.338 107.093 159.082 106.645 158.73C106.213 158.394 105.997 157.978 105.997 157.482C105.997 156.986 106.221 156.538 106.669 156.138C107.117 155.754 107.781 155.45 108.661 155.226L108.877 155.61C108.573 155.85 108.349 156.106 108.205 156.378C108.077 156.666 108.013 156.962 108.013 157.266C108.013 157.938 108.317 158.45 108.925 158.802C109.549 159.17 110.389 159.354 111.445 159.354C112.165 159.354 112.805 159.258 113.365 159.066C113.941 158.874 114.389 158.586 114.709 158.202C115.045 157.818 115.213 157.346 115.213 156.786C115.213 156.306 115.037 155.898 114.685 155.562C114.333 155.242 113.629 155.082 112.573 155.082H111.085C110.429 155.082 109.853 155.01 109.357 154.866C108.877 154.722 108.501 154.498 108.229 154.194C107.957 153.874 107.821 153.474 107.821 152.994C107.821 152.322 108.085 151.73 108.613 151.218C109.141 150.706 109.925 150.226 110.965 149.778L111.205 149.97C110.901 150.162 110.613 150.37 110.341 150.594C110.085 150.802 109.957 151.074 109.957 151.41C109.957 151.922 110.277 152.178 110.917 152.178H113.533C114.413 152.178 115.197 152.282 115.885 152.49C116.589 152.698 117.141 153.042 117.541 153.522C117.957 153.986 118.165 154.594 118.165 155.346C118.165 156.13 117.909 156.858 117.397 157.53C116.901 158.202 116.133 158.738 115.093 159.138C114.053 159.554 112.733 159.762 111.133 159.762ZM111.373 150.138C110.461 150.138 109.645 150.002 108.925 149.73C108.205 149.458 107.637 149.042 107.221 148.482C106.805 147.922 106.597 147.202 106.597 146.322C106.597 145.442 106.805 144.722 107.221 144.162C107.637 143.586 108.205 143.17 108.925 142.914C109.645 142.642 110.461 142.506 111.373 142.506C112.285 142.506 113.101 142.642 113.821 142.914C114.541 143.17 115.109 143.586 115.525 144.162C115.941 144.722 116.149 145.442 116.149 146.322C116.149 147.202 115.941 147.922 115.525 148.482C115.109 149.042 114.541 149.458 113.821 149.73C113.101 150.002 112.285 150.138 111.373 150.138ZM111.373 149.706C111.805 149.706 112.141 149.466 112.381 148.986C112.621 148.49 112.741 147.602 112.741 146.322C112.741 145.042 112.621 144.162 112.381 143.682C112.141 143.186 111.805 142.938 111.373 142.938C110.957 142.938 110.621 143.186 110.365 143.682C110.125 144.162 110.005 145.042 110.005 146.322C110.005 147.602 110.125 148.49 110.365 148.986C110.621 149.466 110.957 149.706 111.373 149.706ZM115.117 144.57L114.637 144.402C114.877 143.778 115.261 143.258 115.789 142.842C116.333 142.426 116.917 142.218 117.541 142.218C118.053 142.218 118.437 142.362 118.693 142.65C118.965 142.922 119.101 143.282 119.101 143.73C119.101 144.21 118.973 144.57 118.717 144.81C118.461 145.034 118.173 145.146 117.853 145.146C117.581 145.146 117.325 145.05 117.085 144.858C116.861 144.666 116.733 144.378 116.701 143.994C116.669 143.594 116.805 143.082 117.109 142.458L117.277 142.602C116.669 142.826 116.213 143.09 115.909 143.394C115.605 143.682 115.341 144.074 115.117 144.57ZM122.862 136.65C123.534 136.65 124.062 136.818 124.446 137.154C124.846 137.474 125.046 137.922 125.046 138.498C125.046 139.074 124.846 139.53 124.446 139.866C124.062 140.186 123.534 140.346 122.862 140.346C122.19 140.346 121.654 140.186 121.254 139.866C120.87 139.53 120.678 139.074 120.678 138.498C120.678 137.922 120.87 137.474 121.254 137.154C121.654 136.818 122.19 136.65 122.862 136.65ZM124.734 142.578V153.018C124.734 153.69 124.846 154.146 125.07 154.386C125.31 154.626 125.71 154.746 126.27 154.746V155.25C125.982 155.234 125.534 155.218 124.926 155.202C124.318 155.17 123.702 155.154 123.078 155.154C122.454 155.154 121.822 155.17 121.182 155.202C120.542 155.218 120.062 155.234 119.742 155.25V154.746C120.302 154.746 120.694 154.626 120.918 154.386C121.158 154.146 121.278 153.69 121.278 153.018V145.458C121.278 144.738 121.166 144.21 120.942 143.874C120.734 143.522 120.334 143.346 119.742 143.346V142.842C120.254 142.89 120.75 142.914 121.23 142.914C121.902 142.914 122.526 142.89 123.102 142.842C123.694 142.778 124.238 142.69 124.734 142.578ZM136.241 142.506C136.913 142.506 137.457 142.594 137.873 142.77C138.305 142.93 138.641 143.154 138.881 143.442C139.137 143.746 139.321 144.138 139.433 144.618C139.561 145.098 139.625 145.746 139.625 146.562V153.018C139.625 153.69 139.737 154.146 139.961 154.386C140.201 154.626 140.601 154.746 141.161 154.746V155.25C140.857 155.234 140.401 155.218 139.793 155.202C139.185 155.17 138.585 155.154 137.993 155.154C137.385 155.154 136.785 155.17 136.193 155.202C135.617 155.218 135.177 155.234 134.873 155.25V154.746C135.353 154.746 135.689 154.626 135.881 154.386C136.073 154.146 136.169 153.69 136.169 153.018V145.554C136.169 145.154 136.129 144.81 136.049 144.522C135.969 144.218 135.825 143.986 135.617 143.826C135.409 143.65 135.097 143.562 134.681 143.562C134.249 143.562 133.849 143.682 133.481 143.922C133.129 144.162 132.841 144.498 132.617 144.93C132.409 145.346 132.305 145.818 132.305 146.346V153.018C132.305 153.69 132.401 154.146 132.593 154.386C132.801 154.626 133.137 154.746 133.601 154.746V155.25C133.313 155.234 132.889 155.218 132.329 155.202C131.785 155.17 131.217 155.154 130.625 155.154C130.017 155.154 129.393 155.17 128.753 155.202C128.113 155.218 127.633 155.234 127.313 155.25V154.746C127.873 154.746 128.265 154.626 128.489 154.386C128.729 154.146 128.849 153.69 128.849 153.018V145.458C128.849 144.738 128.737 144.21 128.513 143.874C128.305 143.522 127.905 143.346 127.313 143.346V142.842C127.825 142.89 128.321 142.914 128.801 142.914C129.473 142.914 130.097 142.89 130.673 142.842C131.265 142.778 131.809 142.69 132.305 142.578V144.738C132.705 143.922 133.249 143.346 133.937 143.01C134.625 142.674 135.393 142.506 136.241 142.506ZM146.547 159.762C145.555 159.762 144.667 159.674 143.883 159.498C143.115 159.338 142.507 159.082 142.059 158.73C141.627 158.394 141.411 157.978 141.411 157.482C141.411 156.986 141.635 156.538 142.083 156.138C142.531 155.754 143.195 155.45 144.075 155.226L144.291 155.61C143.987 155.85 143.763 156.106 143.619 156.378C143.491 156.666 143.427 156.962 143.427 157.266C143.427 157.938 143.731 158.45 144.339 158.802C144.963 159.17 145.803 159.354 146.859 159.354C147.579 159.354 148.219 159.258 148.779 159.066C149.355 158.874 149.803 158.586 150.123 158.202C150.459 157.818 150.627 157.346 150.627 156.786C150.627 156.306 150.451 155.898 150.099 155.562C149.747 155.242 149.043 155.082 147.987 155.082H146.499C145.843 155.082 145.267 155.01 144.771 154.866C144.291 154.722 143.915 154.498 143.643 154.194C143.371 153.874 143.235 153.474 143.235 152.994C143.235 152.322 143.499 151.73 144.027 151.218C144.555 150.706 145.339 150.226 146.379 149.778L146.619 149.97C146.315 150.162 146.027 150.37 145.755 150.594C145.499 150.802 145.371 151.074 145.371 151.41C145.371 151.922 145.691 152.178 146.331 152.178H148.947C149.827 152.178 150.611 152.282 151.299 152.49C152.003 152.698 152.555 153.042 152.955 153.522C153.371 153.986 153.579 154.594 153.579 155.346C153.579 156.13 153.323 156.858 152.811 157.53C152.315 158.202 151.547 158.738 150.507 159.138C149.467 159.554 148.147 159.762 146.547 159.762ZM146.787 150.138C145.875 150.138 145.059 150.002 144.339 149.73C143.619 149.458 143.051 149.042 142.635 148.482C142.219 147.922 142.011 147.202 142.011 146.322C142.011 145.442 142.219 144.722 142.635 144.162C143.051 143.586 143.619 143.17 144.339 142.914C145.059 142.642 145.875 142.506 146.787 142.506C147.699 142.506 148.515 142.642 149.235 142.914C149.955 143.17 150.523 143.586 150.939 144.162C151.355 144.722 151.563 145.442 151.563 146.322C151.563 147.202 151.355 147.922 150.939 148.482C150.523 149.042 149.955 149.458 149.235 149.73C148.515 150.002 147.699 150.138 146.787 150.138ZM146.787 149.706C147.219 149.706 147.555 149.466 147.795 148.986C148.035 148.49 148.155 147.602 148.155 146.322C148.155 145.042 148.035 144.162 147.795 143.682C147.555 143.186 147.219 142.938 146.787 142.938C146.371 142.938 146.035 143.186 145.779 143.682C145.539 144.162 145.419 145.042 145.419 146.322C145.419 147.602 145.539 148.49 145.779 148.986C146.035 149.466 146.371 149.706 146.787 149.706ZM150.531 144.57L150.051 144.402C150.291 143.778 150.675 143.258 151.203 142.842C151.747 142.426 152.331 142.218 152.955 142.218C153.467 142.218 153.851 142.362 154.107 142.65C154.379 142.922 154.515 143.282 154.515 143.73C154.515 144.21 154.387 144.57 154.131 144.81C153.875 145.034 153.587 145.146 153.267 145.146C152.995 145.146 152.739 145.05 152.499 144.858C152.275 144.666 152.147 144.378 152.115 143.994C152.083 143.594 152.219 143.082 152.523 142.458L152.691 142.602C152.083 142.826 151.627 143.09 151.323 143.394C151.019 143.682 150.755 144.074 150.531 144.57ZM168.414 138.258C171.566 138.258 173.91 138.978 175.446 140.418C176.982 141.842 177.75 143.89 177.75 146.562C177.75 148.306 177.374 149.834 176.622 151.146C175.87 152.442 174.774 153.45 173.334 154.17C171.91 154.89 170.198 155.25 168.198 155.25C167.942 155.25 167.606 155.242 167.19 155.226C166.774 155.21 166.342 155.202 165.894 155.202C165.446 155.186 165.046 155.178 164.694 155.178C163.99 155.178 163.294 155.186 162.606 155.202C161.934 155.202 161.398 155.218 160.998 155.25V154.77C161.51 154.738 161.894 154.674 162.15 154.578C162.406 154.482 162.574 154.29 162.654 154.002C162.75 153.714 162.798 153.282 162.798 152.706V140.802C162.798 140.21 162.75 139.778 162.654 139.506C162.574 139.218 162.398 139.026 162.126 138.93C161.87 138.818 161.494 138.754 160.998 138.738V138.258C161.398 138.274 161.934 138.298 162.606 138.33C163.294 138.346 163.974 138.346 164.646 138.33C165.222 138.314 165.87 138.298 166.59 138.282C167.326 138.266 167.934 138.258 168.414 138.258ZM168.39 138.69C167.654 138.69 167.174 138.826 166.95 139.098C166.726 139.37 166.614 139.922 166.614 140.754V152.754C166.614 153.586 166.726 154.138 166.95 154.41C167.19 154.682 167.678 154.818 168.414 154.818C169.758 154.818 170.814 154.506 171.582 153.882C172.366 153.242 172.926 152.314 173.262 151.098C173.598 149.882 173.766 148.402 173.766 146.658C173.766 144.866 173.582 143.386 173.214 142.218C172.862 141.034 172.294 140.154 171.51 139.578C170.726 138.986 169.686 138.69 168.39 138.69ZM185.583 142.506C186.991 142.506 188.095 142.922 188.895 143.754C189.695 144.586 190.095 145.946 190.095 147.834H182.199L182.151 147.378H187.071C187.087 146.594 187.039 145.874 186.927 145.218C186.815 144.546 186.639 144.01 186.399 143.61C186.159 143.21 185.839 143.01 185.439 143.01C184.879 143.01 184.399 143.362 183.999 144.066C183.615 144.77 183.383 145.938 183.303 147.57L183.375 147.714C183.359 147.906 183.343 148.106 183.327 148.314C183.327 148.522 183.327 148.738 183.327 148.962C183.327 150.066 183.479 150.962 183.783 151.65C184.103 152.338 184.503 152.842 184.983 153.162C185.463 153.466 185.951 153.618 186.447 153.618C186.783 153.618 187.127 153.57 187.479 153.474C187.847 153.362 188.215 153.17 188.583 152.898C188.951 152.61 189.295 152.21 189.615 151.698L190.047 151.842C189.855 152.45 189.551 153.042 189.135 153.618C188.719 154.194 188.191 154.666 187.551 155.034C186.911 155.402 186.143 155.586 185.247 155.586C184.159 155.586 183.199 155.354 182.367 154.89C181.535 154.426 180.879 153.722 180.399 152.778C179.935 151.834 179.703 150.634 179.703 149.178C179.703 147.69 179.951 146.45 180.447 145.458C180.959 144.466 181.655 143.73 182.535 143.25C183.431 142.754 184.447 142.506 185.583 142.506ZM196.237 142.506C196.909 142.506 197.493 142.594 197.989 142.77C198.501 142.93 198.869 143.09 199.093 143.25C199.637 143.618 199.973 143.378 200.101 142.53H200.605C200.573 142.978 200.549 143.53 200.533 144.186C200.517 144.826 200.509 145.682 200.509 146.754H200.005C199.925 146.162 199.773 145.578 199.549 145.002C199.325 144.426 198.997 143.954 198.565 143.586C198.149 143.218 197.605 143.034 196.933 143.034C196.469 143.034 196.077 143.17 195.757 143.442C195.437 143.698 195.277 144.074 195.277 144.57C195.277 145.05 195.421 145.474 195.709 145.842C195.997 146.194 196.365 146.538 196.813 146.874C197.277 147.194 197.757 147.538 198.253 147.906C198.781 148.306 199.261 148.706 199.693 149.106C200.125 149.49 200.469 149.914 200.725 150.378C200.981 150.842 201.109 151.394 201.109 152.034C201.109 152.754 200.901 153.386 200.485 153.93C200.069 154.458 199.517 154.866 198.829 155.154C198.157 155.442 197.405 155.586 196.573 155.586C196.093 155.586 195.661 155.538 195.277 155.442C194.909 155.346 194.589 155.226 194.317 155.082C194.109 154.986 193.909 154.898 193.717 154.818C193.541 154.722 193.373 154.642 193.213 154.578C193.053 154.53 192.909 154.586 192.781 154.746C192.669 154.906 192.581 155.13 192.517 155.418H192.013C192.045 154.906 192.069 154.282 192.085 153.546C192.101 152.81 192.109 151.834 192.109 150.618H192.613C192.709 151.482 192.885 152.25 193.141 152.922C193.397 153.578 193.741 154.098 194.173 154.482C194.621 154.85 195.181 155.034 195.853 155.034C196.125 155.034 196.389 154.978 196.645 154.866C196.901 154.754 197.109 154.57 197.269 154.314C197.445 154.058 197.533 153.73 197.533 153.33C197.533 152.626 197.301 152.042 196.837 151.578C196.389 151.114 195.813 150.61 195.109 150.066C194.597 149.65 194.109 149.242 193.645 148.842C193.197 148.426 192.829 147.978 192.541 147.498C192.253 147.002 192.109 146.442 192.109 145.818C192.109 145.098 192.301 144.49 192.685 143.994C193.069 143.498 193.573 143.13 194.197 142.89C194.837 142.634 195.517 142.506 196.237 142.506ZM205.691 136.65C206.363 136.65 206.891 136.818 207.275 137.154C207.675 137.474 207.875 137.922 207.875 138.498C207.875 139.074 207.675 139.53 207.275 139.866C206.891 140.186 206.363 140.346 205.691 140.346C205.019 140.346 204.483 140.186 204.083 139.866C203.699 139.53 203.507 139.074 203.507 138.498C203.507 137.922 203.699 137.474 204.083 137.154C204.483 136.818 205.019 136.65 205.691 136.65ZM207.563 142.578V153.018C207.563 153.69 207.675 154.146 207.899 154.386C208.139 154.626 208.539 154.746 209.099 154.746V155.25C208.811 155.234 208.363 155.218 207.755 155.202C207.147 155.17 206.531 155.154 205.907 155.154C205.283 155.154 204.651 155.17 204.011 155.202C203.371 155.218 202.891 155.234 202.571 155.25V154.746C203.131 154.746 203.523 154.626 203.747 154.386C203.987 154.146 204.107 153.69 204.107 153.018V145.458C204.107 144.738 203.995 144.21 203.771 143.874C203.563 143.522 203.163 143.346 202.571 143.346V142.842C203.083 142.89 203.579 142.914 204.059 142.914C204.731 142.914 205.355 142.89 205.931 142.842C206.523 142.778 207.067 142.69 207.563 142.578ZM214.797 159.762C213.805 159.762 212.917 159.674 212.133 159.498C211.365 159.338 210.757 159.082 210.309 158.73C209.877 158.394 209.661 157.978 209.661 157.482C209.661 156.986 209.885 156.538 210.333 156.138C210.781 155.754 211.445 155.45 212.325 155.226L212.541 155.61C212.237 155.85 212.013 156.106 211.869 156.378C211.741 156.666 211.677 156.962 211.677 157.266C211.677 157.938 211.981 158.45 212.589 158.802C213.213 159.17 214.053 159.354 215.109 159.354C215.829 159.354 216.469 159.258 217.029 159.066C217.605 158.874 218.053 158.586 218.373 158.202C218.709 157.818 218.877 157.346 218.877 156.786C218.877 156.306 218.701 155.898 218.349 155.562C217.997 155.242 217.293 155.082 216.237 155.082H214.749C214.093 155.082 213.517 155.01 213.021 154.866C212.541 154.722 212.165 154.498 211.893 154.194C211.621 153.874 211.485 153.474 211.485 152.994C211.485 152.322 211.749 151.73 212.277 151.218C212.805 150.706 213.589 150.226 214.629 149.778L214.869 149.97C214.565 150.162 214.277 150.37 214.005 150.594C213.749 150.802 213.621 151.074 213.621 151.41C213.621 151.922 213.941 152.178 214.581 152.178H217.197C218.077 152.178 218.861 152.282 219.549 152.49C220.253 152.698 220.805 153.042 221.205 153.522C221.621 153.986 221.829 154.594 221.829 155.346C221.829 156.13 221.573 156.858 221.061 157.53C220.565 158.202 219.797 158.738 218.757 159.138C217.717 159.554 216.397 159.762 214.797 159.762ZM215.037 150.138C214.125 150.138 213.309 150.002 212.589 149.73C211.869 149.458 211.301 149.042 210.885 148.482C210.469 147.922 210.261 147.202 210.261 146.322C210.261 145.442 210.469 144.722 210.885 144.162C211.301 143.586 211.869 143.17 212.589 142.914C213.309 142.642 214.125 142.506 215.037 142.506C215.949 142.506 216.765 142.642 217.485 142.914C218.205 143.17 218.773 143.586 219.189 144.162C219.605 144.722 219.813 145.442 219.813 146.322C219.813 147.202 219.605 147.922 219.189 148.482C218.773 149.042 218.205 149.458 217.485 149.73C216.765 150.002 215.949 150.138 215.037 150.138ZM215.037 149.706C215.469 149.706 215.805 149.466 216.045 148.986C216.285 148.49 216.405 147.602 216.405 146.322C216.405 145.042 216.285 144.162 216.045 143.682C215.805 143.186 215.469 142.938 215.037 142.938C214.621 142.938 214.285 143.186 214.029 143.682C213.789 144.162 213.669 145.042 213.669 146.322C213.669 147.602 213.789 148.49 214.029 148.986C214.285 149.466 214.621 149.706 215.037 149.706ZM218.781 144.57L218.301 144.402C218.541 143.778 218.925 143.258 219.453 142.842C219.997 142.426 220.581 142.218 221.205 142.218C221.717 142.218 222.101 142.362 222.357 142.65C222.629 142.922 222.765 143.282 222.765 143.73C222.765 144.21 222.637 144.57 222.381 144.81C222.125 145.034 221.837 145.146 221.517 145.146C221.245 145.146 220.989 145.05 220.749 144.858C220.525 144.666 220.397 144.378 220.365 143.994C220.333 143.594 220.469 143.082 220.773 142.458L220.941 142.602C220.333 142.826 219.877 143.09 219.573 143.394C219.269 143.682 219.005 144.074 218.781 144.57ZM232.334 142.506C233.006 142.506 233.55 142.594 233.966 142.77C234.398 142.93 234.734 143.154 234.974 143.442C235.23 143.746 235.414 144.138 235.526 144.618C235.654 145.098 235.718 145.746 235.718 146.562V153.018C235.718 153.69 235.83 154.146 236.054 154.386C236.294 154.626 236.694 154.746 237.254 154.746V155.25C236.95 155.234 236.494 155.218 235.886 155.202C235.278 155.17 234.678 155.154 234.086 155.154C233.478 155.154 232.878 155.17 232.286 155.202C231.71 155.218 231.27 155.234 230.966 155.25V154.746C231.446 154.746 231.782 154.626 231.974 154.386C232.166 154.146 232.262 153.69 232.262 153.018V145.554C232.262 145.154 232.222 144.81 232.142 144.522C232.062 144.218 231.918 143.986 231.71 143.826C231.502 143.65 231.19 143.562 230.774 143.562C230.342 143.562 229.942 143.682 229.574 143.922C229.222 144.162 228.934 144.498 228.71 144.93C228.502 145.346 228.398 145.818 228.398 146.346V153.018C228.398 153.69 228.494 154.146 228.686 154.386C228.894 154.626 229.23 154.746 229.694 154.746V155.25C229.406 155.234 228.982 155.218 228.422 155.202C227.878 155.17 227.31 155.154 226.718 155.154C226.11 155.154 225.486 155.17 224.846 155.202C224.206 155.218 223.726 155.234 223.406 155.25V154.746C223.966 154.746 224.358 154.626 224.582 154.386C224.822 154.146 224.942 153.69 224.942 153.018V145.458C224.942 144.738 224.83 144.21 224.606 143.874C224.398 143.522 223.998 143.346 223.406 143.346V142.842C223.918 142.89 224.414 142.914 224.894 142.914C225.566 142.914 226.19 142.89 226.766 142.842C227.358 142.778 227.902 142.69 228.398 142.578V144.738C228.798 143.922 229.342 143.346 230.03 143.01C230.718 142.674 231.486 142.506 232.334 142.506Z" fill="white"/>
<defs>
<clipPath id="clip0_1_187">
<rect width="120" height="120" fill="white" transform="translate(78.75 0.25)"/>
</clipPath>
</defs>
</svg>
