<svg width="278" height="161" viewBox="0 0 278 161" fill="none" xmlns="http://www.w3.org/2000/svg">
<g clip-path="url(#clip0_1_192)">
<path d="M139.25 0.25C106.118 0.25 79.25 27.118 79.25 60.25C79.25 93.382 106.118 120.25 139.25 120.25C172.382 120.25 199.25 93.382 199.25 60.25C199.25 27.118 172.382 0.25 139.25 0.25ZM139.25 117.85C107.486 117.85 81.65 92.014 81.65 60.25C81.65 28.486 107.486 2.65 139.25 2.65C171.014 2.65 196.85 28.486 196.85 60.25C196.85 92.014 171.014 117.85 139.25 117.85ZM172.25 36.19V30.25H162.65V34.762L160.31 30.094C158.882 27.226 156.002 25.45 152.798 25.45H142.502C139.298 25.45 136.418 27.226 134.99 30.094L132.506 35.05H110.45C105.818 35.05 102.05 38.818 102.05 43.45V77.05C102.05 81.682 105.818 85.45 110.45 85.45H168.05C172.682 85.45 176.45 81.682 176.45 77.05V43.45C176.45 40.354 174.758 37.642 172.25 36.19ZM165.05 32.65H169.85V35.254C169.274 35.122 168.674 35.05 168.05 35.05H165.05V32.65ZM121.25 83.05H110.45C107.138 83.05 104.45 80.362 104.45 77.05V43.45C104.45 40.138 107.138 37.45 110.45 37.45H121.25V83.05ZM174.05 77.05C174.05 80.362 171.362 83.05 168.05 83.05H122.45V37.45H133.994L137.138 31.162C138.158 29.122 140.21 27.85 142.502 27.85H152.798C155.09 27.85 157.142 29.122 158.162 31.162L161.306 37.45H168.05C171.362 37.45 174.05 40.138 174.05 43.45V77.05ZM147.65 37.45C135.734 37.45 126.05 47.134 126.05 59.05C126.05 70.966 135.734 80.65 147.65 80.65C159.566 80.65 169.25 70.966 169.25 59.05C169.25 47.134 159.566 37.45 147.65 37.45ZM147.65 78.25C137.066 78.25 128.45 69.634 128.45 59.05C128.45 48.466 137.066 39.85 147.65 39.85C158.234 39.85 166.85 48.466 166.85 59.05C166.85 69.634 158.234 78.25 147.65 78.25ZM147.65 43.45C139.034 43.45 132.05 50.434 132.05 59.05C132.05 67.666 139.034 74.65 147.65 74.65C156.266 74.65 163.25 67.666 163.25 59.05C163.25 50.434 156.266 43.45 147.65 43.45ZM147.65 73.45C139.706 73.45 133.25 66.994 133.25 59.05C133.25 51.106 139.706 44.65 147.65 44.65C155.594 44.65 162.05 51.106 162.05 59.05C162.05 66.994 155.594 73.45 147.65 73.45ZM108.05 45.85C108.05 48.502 110.198 50.65 112.85 50.65C115.502 50.65 117.65 48.502 117.65 45.85C117.65 43.198 115.502 41.05 112.85 41.05C110.198 41.05 108.05 43.198 108.05 45.85ZM112.85 42.25C114.83 42.25 116.45 43.87 116.45 45.85C116.45 47.83 114.83 49.45 112.85 49.45C110.87 49.45 109.25 47.83 109.25 45.85C109.25 43.87 110.87 42.25 112.85 42.25Z" fill="white"/>
</g>
<path d="M60.1738 138.258C60.5738 138.274 61.1098 138.29 61.7818 138.306C62.4698 138.322 63.1498 138.33 63.8218 138.33C64.5898 138.33 65.3338 138.322 66.0538 138.306C66.7738 138.29 67.2858 138.282 67.5898 138.282C69.8138 138.282 71.4778 138.722 72.5818 139.602C73.6858 140.482 74.2378 141.618 74.2378 143.01C74.2378 143.586 74.1258 144.194 73.9018 144.834C73.6778 145.458 73.2938 146.042 72.7498 146.586C72.2218 147.114 71.4938 147.546 70.5658 147.882C69.6378 148.218 68.4698 148.386 67.0618 148.386H64.6138V147.906H66.8218C67.7658 147.906 68.4778 147.69 68.9578 147.258C69.4538 146.826 69.7898 146.258 69.9658 145.554C70.1578 144.85 70.2538 144.09 70.2538 143.274C70.2538 141.754 70.0298 140.618 69.5818 139.866C69.1338 139.114 68.3658 138.738 67.2778 138.738C66.6538 138.738 66.2458 138.874 66.0538 139.146C65.8778 139.418 65.7898 139.97 65.7898 140.802V152.562C65.7898 153.186 65.8538 153.65 65.9818 153.954C66.1098 154.258 66.3578 154.458 66.7258 154.554C67.0938 154.65 67.6378 154.706 68.3578 154.722V155.25C67.8618 155.234 67.2218 155.218 66.4378 155.202C65.6538 155.186 64.8298 155.178 63.9658 155.178C63.2778 155.178 62.6058 155.186 61.9498 155.202C61.2938 155.218 60.7018 155.234 60.1738 155.25V154.77C60.6858 154.738 61.0698 154.674 61.3258 154.578C61.5818 154.482 61.7498 154.29 61.8298 154.002C61.9258 153.714 61.9738 153.282 61.9738 152.706V140.802C61.9738 140.21 61.9258 139.778 61.8298 139.506C61.7498 139.218 61.5738 139.026 61.3018 138.93C61.0458 138.818 60.6698 138.754 60.1738 138.738V138.258ZM79.9464 136.482V144.738C80.3464 143.906 80.8824 143.33 81.5544 143.01C82.2424 142.674 83.0104 142.506 83.8584 142.506C84.5464 142.506 85.0984 142.594 85.5144 142.77C85.9304 142.93 86.2584 143.154 86.4984 143.442C86.7704 143.746 86.9624 144.138 87.0744 144.618C87.2024 145.098 87.2664 145.746 87.2664 146.562V153.018C87.2664 153.69 87.3784 154.146 87.6024 154.386C87.8424 154.626 88.2424 154.746 88.8024 154.746V155.25C88.4984 155.234 88.0344 155.218 87.4104 155.202C86.8024 155.17 86.2104 155.154 85.6344 155.154C85.0104 155.154 84.4024 155.17 83.8104 155.202C83.2344 155.218 82.8024 155.234 82.5144 155.25V154.746C82.9944 154.746 83.3304 154.626 83.5224 154.386C83.7144 154.146 83.8104 153.69 83.8104 153.018V145.554C83.8104 145.154 83.7704 144.81 83.6904 144.522C83.6104 144.218 83.4584 143.986 83.2344 143.826C83.0264 143.65 82.7224 143.562 82.3224 143.562C81.8904 143.562 81.4904 143.682 81.1224 143.922C80.7704 144.146 80.4824 144.466 80.2584 144.882C80.0504 145.298 79.9464 145.778 79.9464 146.322V153.018C79.9464 153.69 80.0424 154.146 80.2344 154.386C80.4264 154.626 80.7624 154.746 81.2424 154.746V155.25C80.9544 155.234 80.5304 155.218 79.9704 155.202C79.4104 155.17 78.8424 155.154 78.2664 155.154C77.6424 155.154 77.0104 155.17 76.3704 155.202C75.7464 155.218 75.2744 155.234 74.9544 155.25V154.746C75.5144 154.746 75.9064 154.626 76.1304 154.386C76.3704 154.146 76.4904 153.69 76.4904 153.018V139.362C76.4904 138.642 76.3784 138.114 76.1544 137.778C75.9464 137.426 75.5464 137.25 74.9544 137.25V136.746C75.4664 136.794 75.9624 136.818 76.4424 136.818C77.0984 136.818 77.7224 136.794 78.3144 136.746C78.9064 136.682 79.4504 136.594 79.9464 136.482ZM95.868 142.506C97.036 142.506 98.06 142.722 98.94 143.154C99.82 143.586 100.508 144.282 101.004 145.242C101.5 146.202 101.748 147.474 101.748 149.058C101.748 150.642 101.5 151.914 101.004 152.874C100.508 153.818 99.82 154.506 98.94 154.938C98.06 155.37 97.036 155.586 95.868 155.586C94.732 155.586 93.716 155.37 92.82 154.938C91.94 154.506 91.244 153.818 90.732 152.874C90.236 151.914 89.988 150.642 89.988 149.058C89.988 147.474 90.236 146.202 90.732 145.242C91.244 144.282 91.94 143.586 92.82 143.154C93.716 142.722 94.732 142.506 95.868 142.506ZM95.868 142.986C95.228 142.986 94.692 143.466 94.26 144.426C93.828 145.37 93.612 146.914 93.612 149.058C93.612 151.202 93.828 152.746 94.26 153.69C94.692 154.634 95.228 155.106 95.868 155.106C96.524 155.106 97.06 154.634 97.476 153.69C97.908 152.746 98.124 151.202 98.124 149.058C98.124 146.914 97.908 145.37 97.476 144.426C97.06 143.466 96.524 142.986 95.868 142.986ZM108.118 138.906V142.842H110.95V143.322H108.118V153.018C108.118 153.498 108.206 153.842 108.382 154.05C108.558 154.242 108.822 154.338 109.174 154.338C109.462 154.338 109.75 154.234 110.038 154.026C110.326 153.802 110.582 153.426 110.806 152.898L111.214 153.114C110.958 153.834 110.566 154.426 110.038 154.89C109.526 155.354 108.822 155.586 107.926 155.586C107.398 155.586 106.934 155.514 106.534 155.37C106.134 155.242 105.798 155.042 105.526 154.77C105.174 154.418 104.942 153.986 104.83 153.474C104.718 152.946 104.662 152.266 104.662 151.434V143.322H102.646V142.842H104.662V139.674C105.334 139.674 105.95 139.618 106.51 139.506C107.086 139.378 107.622 139.178 108.118 138.906ZM117.782 142.506C118.95 142.506 119.974 142.722 120.854 143.154C121.734 143.586 122.422 144.282 122.918 145.242C123.414 146.202 123.662 147.474 123.662 149.058C123.662 150.642 123.414 151.914 122.918 152.874C122.422 153.818 121.734 154.506 120.854 154.938C119.974 155.37 118.95 155.586 117.782 155.586C116.646 155.586 115.63 155.37 114.734 154.938C113.854 154.506 113.158 153.818 112.646 152.874C112.15 151.914 111.902 150.642 111.902 149.058C111.902 147.474 112.15 146.202 112.646 145.242C113.158 144.282 113.854 143.586 114.734 143.154C115.63 142.722 116.646 142.506 117.782 142.506ZM117.782 142.986C117.142 142.986 116.606 143.466 116.174 144.426C115.742 145.37 115.526 146.914 115.526 149.058C115.526 151.202 115.742 152.746 116.174 153.69C116.606 154.634 117.142 155.106 117.782 155.106C118.438 155.106 118.974 154.634 119.39 153.69C119.822 152.746 120.038 151.202 120.038 149.058C120.038 146.914 119.822 145.37 119.39 144.426C118.974 143.466 118.438 142.986 117.782 142.986ZM138.106 138.21C138.73 138.21 139.234 138.258 139.618 138.354C140.002 138.434 140.33 138.554 140.602 138.714C140.858 138.826 141.09 138.97 141.298 139.146C141.522 139.322 141.706 139.538 141.85 139.794C141.994 140.05 142.066 140.338 142.066 140.658C142.066 141.138 141.882 141.522 141.514 141.81C141.146 142.098 140.714 142.242 140.218 142.242C139.738 142.242 139.322 142.122 138.97 141.882C138.634 141.642 138.466 141.266 138.466 140.754C138.466 140.354 138.61 139.994 138.898 139.674C139.186 139.338 139.554 139.13 140.002 139.05C139.89 138.922 139.682 138.818 139.378 138.738C139.09 138.658 138.77 138.618 138.418 138.618C137.586 138.618 136.874 138.882 136.282 139.41C135.706 139.922 135.418 140.706 135.418 141.762C135.418 142.13 135.482 142.522 135.61 142.938C135.738 143.354 135.986 143.778 136.354 144.21C136.626 144.146 136.874 144.098 137.098 144.066C137.338 144.034 137.538 144.018 137.698 144.018C137.986 144.018 138.202 144.082 138.346 144.21C138.506 144.322 138.586 144.474 138.586 144.666C138.586 144.81 138.522 144.93 138.394 145.026C138.266 145.122 138.106 145.17 137.914 145.17C137.642 145.17 137.362 145.098 137.074 144.954C136.786 144.794 136.554 144.658 136.378 144.546C135.626 144.93 135.01 145.426 134.53 146.034C134.066 146.626 133.834 147.426 133.834 148.434C133.834 149.49 134.122 150.362 134.698 151.05C135.274 151.722 136.082 152.234 137.122 152.586C138.178 152.922 139.418 153.09 140.842 153.09C141.642 153.09 142.434 153.002 143.218 152.826C144.002 152.65 144.706 152.386 145.33 152.034C145.97 151.682 146.482 151.25 146.866 150.738C147.25 150.21 147.442 149.602 147.442 148.914C147.442 148.658 147.402 148.338 147.322 147.954C147.258 147.554 147.09 147.162 146.818 146.778C146.546 146.378 146.098 146.05 145.474 145.794L145.642 145.578C146.506 145.85 147.162 146.362 147.61 147.114C148.058 147.866 148.282 148.73 148.282 149.706C148.282 150.826 147.938 151.834 147.25 152.73C146.562 153.61 145.594 154.306 144.346 154.818C143.114 155.33 141.666 155.586 140.002 155.586C138.674 155.586 137.466 155.45 136.378 155.178C135.306 154.906 134.378 154.514 133.594 154.002C132.826 153.474 132.226 152.842 131.794 152.106C131.378 151.37 131.17 150.538 131.17 149.61C131.17 148.714 131.354 147.954 131.722 147.33C132.106 146.69 132.57 146.17 133.114 145.77C133.658 145.354 134.202 145.034 134.746 144.81C135.29 144.586 135.722 144.434 136.042 144.354C135.546 144.146 135.09 143.906 134.674 143.634C134.274 143.346 133.946 143.01 133.69 142.626C133.45 142.242 133.33 141.81 133.33 141.33C133.33 140.818 133.466 140.37 133.738 139.986C134.01 139.586 134.37 139.258 134.818 139.002C135.282 138.746 135.794 138.554 136.354 138.426C136.93 138.282 137.514 138.21 138.106 138.21ZM147.538 137.922C148.674 137.922 149.594 138.218 150.298 138.81C151.002 139.402 151.354 140.234 151.354 141.306C151.354 142.122 151.154 142.81 150.754 143.37C150.37 143.93 149.81 144.386 149.074 144.738C148.354 145.09 147.49 145.37 146.482 145.578C146.258 145.658 145.978 145.754 145.642 145.866C145.306 145.962 144.962 146.058 144.61 146.154C144.258 146.25 143.914 146.346 143.578 146.442C143.258 146.538 142.978 146.618 142.738 146.682C141.49 146.954 140.53 147.266 139.858 147.618C139.186 147.954 138.85 148.418 138.85 149.01C138.85 149.41 138.978 149.754 139.234 150.042C139.506 150.33 139.842 150.554 140.242 150.714C140.642 150.874 141.042 150.954 141.442 150.954C141.554 150.954 141.674 150.946 141.802 150.93C141.93 150.898 142.05 150.866 142.162 150.834C142.274 150.786 142.354 150.746 142.402 150.714C142.002 150.586 141.698 150.386 141.49 150.114C141.298 149.826 141.202 149.498 141.202 149.13C141.202 148.618 141.386 148.226 141.754 147.954C142.122 147.682 142.578 147.546 143.122 147.546C143.698 147.546 144.146 147.698 144.466 148.002C144.802 148.306 144.97 148.698 144.97 149.178C144.97 149.674 144.818 150.09 144.514 150.426C144.21 150.746 143.802 150.986 143.29 151.146C142.778 151.29 142.202 151.362 141.562 151.362C140.938 151.362 140.346 151.25 139.786 151.026C139.242 150.802 138.802 150.466 138.466 150.018C138.146 149.554 137.986 148.978 137.986 148.29C137.986 147.442 138.202 146.738 138.634 146.178C139.066 145.602 139.682 145.13 140.482 144.762C141.298 144.378 142.258 144.082 143.362 143.874C143.698 143.794 144.066 143.706 144.466 143.61C144.882 143.498 145.306 143.386 145.738 143.274C146.17 143.162 146.57 143.042 146.938 142.914C148.09 142.626 148.978 142.306 149.602 141.954C150.242 141.602 150.562 141.13 150.562 140.538C150.562 140.106 150.426 139.73 150.154 139.41C149.898 139.074 149.562 138.818 149.146 138.642C148.73 138.45 148.298 138.354 147.85 138.354C147.706 138.354 147.57 138.362 147.442 138.378C147.33 138.394 147.234 138.426 147.154 138.474C147.554 138.618 147.85 138.834 148.042 139.122C148.234 139.41 148.33 139.698 148.33 139.986C148.33 140.482 148.146 140.866 147.778 141.138C147.41 141.394 146.954 141.522 146.41 141.522C145.866 141.522 145.418 141.386 145.066 141.114C144.714 140.826 144.538 140.434 144.538 139.938C144.538 139.506 144.658 139.146 144.898 138.858C145.154 138.554 145.506 138.322 145.954 138.162C146.402 138.002 146.93 137.922 147.538 137.922ZM172.708 138.258V138.738C172.356 138.866 171.98 139.146 171.58 139.578C171.196 140.01 170.836 140.682 170.5 141.594L165.436 155.298C165.308 155.282 165.172 155.274 165.028 155.274C164.884 155.274 164.74 155.274 164.596 155.274C164.468 155.274 164.332 155.274 164.188 155.274C164.044 155.274 163.908 155.282 163.78 155.298L157.66 140.274C157.436 139.698 157.188 139.306 156.916 139.098C156.644 138.874 156.388 138.754 156.148 138.738V138.258C156.628 138.274 157.188 138.29 157.828 138.306C158.484 138.322 159.14 138.33 159.796 138.33C160.532 138.33 161.22 138.322 161.86 138.306C162.516 138.29 163.044 138.274 163.444 138.258V138.738C162.932 138.754 162.532 138.818 162.244 138.93C161.956 139.026 161.796 139.218 161.764 139.506C161.732 139.778 161.828 140.194 162.052 140.754L166.42 151.866L165.916 152.466L169.228 143.538C169.66 142.338 169.884 141.394 169.9 140.706C169.916 140.018 169.748 139.522 169.396 139.218C169.044 138.914 168.54 138.754 167.884 138.738V138.258C168.428 138.274 168.94 138.29 169.42 138.306C169.9 138.322 170.388 138.33 170.884 138.33C171.236 138.33 171.564 138.322 171.868 138.306C172.188 138.29 172.468 138.274 172.708 138.258ZM175.46 136.65C176.132 136.65 176.66 136.818 177.044 137.154C177.444 137.474 177.644 137.922 177.644 138.498C177.644 139.074 177.444 139.53 177.044 139.866C176.66 140.186 176.132 140.346 175.46 140.346C174.788 140.346 174.252 140.186 173.852 139.866C173.468 139.53 173.276 139.074 173.276 138.498C173.276 137.922 173.468 137.474 173.852 137.154C174.252 136.818 174.788 136.65 175.46 136.65ZM177.332 142.578V153.018C177.332 153.69 177.444 154.146 177.668 154.386C177.908 154.626 178.308 154.746 178.868 154.746V155.25C178.58 155.234 178.132 155.218 177.524 155.202C176.916 155.17 176.3 155.154 175.676 155.154C175.052 155.154 174.42 155.17 173.78 155.202C173.14 155.218 172.66 155.234 172.34 155.25V154.746C172.9 154.746 173.292 154.626 173.516 154.386C173.756 154.146 173.876 153.69 173.876 153.018V145.458C173.876 144.738 173.764 144.21 173.54 143.874C173.332 143.522 172.932 143.346 172.34 143.346V142.842C172.852 142.89 173.348 142.914 173.828 142.914C174.5 142.914 175.124 142.89 175.7 142.842C176.292 142.778 176.836 142.69 177.332 142.578ZM191.718 136.458V152.61C191.718 153.33 191.83 153.866 192.054 154.218C192.278 154.554 192.678 154.722 193.254 154.722V155.226C192.758 155.178 192.262 155.154 191.766 155.154C191.094 155.154 190.462 155.178 189.87 155.226C189.294 155.274 188.758 155.362 188.262 155.49V139.338C188.262 138.618 188.15 138.09 187.926 137.754C187.718 137.402 187.318 137.226 186.726 137.226V136.722C187.238 136.77 187.734 136.794 188.214 136.794C188.87 136.794 189.494 136.77 190.086 136.722C190.678 136.658 191.222 136.57 191.718 136.458ZM185.598 142.506C186.302 142.506 186.918 142.626 187.446 142.866C187.99 143.09 188.414 143.474 188.718 144.018L188.43 144.282C188.222 143.898 187.942 143.626 187.59 143.466C187.254 143.29 186.894 143.202 186.51 143.202C185.694 143.202 185.046 143.682 184.566 144.642C184.086 145.586 183.854 147.05 183.87 149.034C183.87 150.394 183.958 151.482 184.134 152.298C184.326 153.098 184.59 153.674 184.926 154.026C185.278 154.378 185.678 154.554 186.126 154.554C186.67 154.554 187.158 154.338 187.59 153.906C188.022 153.474 188.254 152.89 188.286 152.154L188.406 152.994C188.166 153.842 187.774 154.49 187.23 154.938C186.702 155.37 186.006 155.586 185.142 155.586C184.198 155.586 183.35 155.354 182.598 154.89C181.862 154.426 181.286 153.714 180.87 152.754C180.454 151.778 180.246 150.522 180.246 148.986C180.246 147.53 180.478 146.33 180.942 145.386C181.406 144.426 182.038 143.706 182.838 143.226C183.654 142.746 184.574 142.506 185.598 142.506ZM200.446 142.506C201.854 142.506 202.958 142.922 203.758 143.754C204.558 144.586 204.958 145.946 204.958 147.834H197.062L197.014 147.378H201.934C201.95 146.594 201.902 145.874 201.79 145.218C201.678 144.546 201.502 144.01 201.262 143.61C201.022 143.21 200.702 143.01 200.302 143.01C199.742 143.01 199.262 143.362 198.862 144.066C198.478 144.77 198.246 145.938 198.166 147.57L198.238 147.714C198.222 147.906 198.206 148.106 198.19 148.314C198.19 148.522 198.19 148.738 198.19 148.962C198.19 150.066 198.342 150.962 198.646 151.65C198.966 152.338 199.366 152.842 199.846 153.162C200.326 153.466 200.814 153.618 201.31 153.618C201.646 153.618 201.99 153.57 202.342 153.474C202.71 153.362 203.078 153.17 203.446 152.898C203.814 152.61 204.158 152.21 204.478 151.698L204.91 151.842C204.718 152.45 204.414 153.042 203.998 153.618C203.582 154.194 203.054 154.666 202.414 155.034C201.774 155.402 201.006 155.586 200.11 155.586C199.022 155.586 198.062 155.354 197.23 154.89C196.398 154.426 195.742 153.722 195.262 152.778C194.798 151.834 194.566 150.634 194.566 149.178C194.566 147.69 194.814 146.45 195.31 145.458C195.822 144.466 196.518 143.73 197.398 143.25C198.294 142.754 199.31 142.506 200.446 142.506ZM212.54 142.506C213.708 142.506 214.732 142.722 215.612 143.154C216.492 143.586 217.18 144.282 217.676 145.242C218.172 146.202 218.42 147.474 218.42 149.058C218.42 150.642 218.172 151.914 217.676 152.874C217.18 153.818 216.492 154.506 215.612 154.938C214.732 155.37 213.708 155.586 212.54 155.586C211.404 155.586 210.388 155.37 209.492 154.938C208.612 154.506 207.916 153.818 207.404 152.874C206.908 151.914 206.66 150.642 206.66 149.058C206.66 147.474 206.908 146.202 207.404 145.242C207.916 144.282 208.612 143.586 209.492 143.154C210.388 142.722 211.404 142.506 212.54 142.506ZM212.54 142.986C211.9 142.986 211.364 143.466 210.932 144.426C210.5 145.37 210.284 146.914 210.284 149.058C210.284 151.202 210.5 152.746 210.932 153.69C211.364 154.634 211.9 155.106 212.54 155.106C213.196 155.106 213.732 154.634 214.148 153.69C214.58 152.746 214.796 151.202 214.796 149.058C214.796 146.914 214.58 145.37 214.148 144.426C213.732 143.466 213.196 142.986 212.54 142.986Z" fill="white"/>
<defs>
<clipPath id="clip0_1_192">
<rect width="120" height="120" fill="white" transform="translate(79.25 0.25)"/>
</clipPath>
</defs>
</svg>
