<svg width="71" height="71" viewBox="0 0 71 71" fill="none" xmlns="http://www.w3.org/2000/svg">
<path d="M35.9844 67.7188C18.3844 67.7188 3.98438 53.3187 3.98438 35.7188C3.98438 18.1187 18.3844 3.71875 35.9844 3.71875C53.5844 3.71875 67.9844 18.1187 67.9844 35.7188C67.9844 53.3187 53.5844 67.7188 35.9844 67.7188ZM35.9844 5.71875C19.4844 5.71875 5.98438 19.2188 5.98438 35.7188C5.98438 52.2188 19.4844 65.7188 35.9844 65.7188C52.4844 65.7188 65.9844 52.2188 65.9844 35.7188C65.9844 19.2188 52.4844 5.71875 35.9844 5.71875Z" fill="white"/>
<path d="M19.9844 42.7188C19.6844 42.7188 19.4844 42.6188 19.2844 42.4188L12.5844 35.7188L19.2844 29.0188C19.6844 28.6188 20.2844 28.6188 20.6844 29.0188C21.0844 29.4188 21.0844 30.0188 20.6844 30.4188L15.3844 35.7188L20.6844 41.0188C21.0844 41.4187 21.0844 42.0188 20.6844 42.4188C20.4844 42.6188 20.2844 42.7188 19.9844 42.7188Z" fill="white"/>
<path d="M51.9844 42.7188C51.6844 42.7188 51.4844 42.6188 51.2844 42.4188C50.8844 42.0188 50.8844 41.4187 51.2844 41.0188L56.5844 35.7188L51.2844 30.4188C50.8844 30.0188 50.8844 29.4188 51.2844 29.0188C51.6844 28.6188 52.2844 28.6188 52.6844 29.0188L59.3844 35.7188L52.6844 42.4188C52.4844 42.6188 52.2844 42.7188 51.9844 42.7188Z" fill="white"/>
</svg>
