<svg width="278" height="161" viewBox="0 0 278 161" fill="none" xmlns="http://www.w3.org/2000/svg">
<g clip-path="url(#clip0_1_202)">
<path d="M139.322 0.25C139.298 0.25 139.274 0.25 139.25 0.25C106.142 0.25 79.2981 27.058 79.2501 60.178C79.2021 93.31 106.034 120.202 139.178 120.25C139.202 120.25 139.226 120.25 139.25 120.25C172.346 120.25 199.202 93.442 199.25 60.322C199.298 27.19 172.466 0.298 139.322 0.25ZM139.25 117.85H139.178C107.414 117.814 81.6141 91.942 81.6501 60.178C81.6861 28.462 107.534 2.65 139.25 2.65H139.322C171.086 2.686 196.886 28.558 196.85 60.322C196.814 92.038 170.966 117.85 139.25 117.85ZM176.45 84.25V43.354H178.85V28.954H99.65V43.354H102.05V84.25H96.05V86.65H109.25V92.554H104.45V94.954H145.25V92.554H140.45V86.65H153.65V92.554H150.05V94.954H171.65V92.554H168.05V86.65H182.45V84.25H176.45ZM102.05 31.354H176.45V40.954H102.05V31.354ZM138.05 92.554H111.65V73.354H138.05V92.554ZM121.25 67.354V70.954H114.05V67.354C114.05 65.374 115.67 63.754 117.65 63.754C119.63 63.754 121.25 65.374 121.25 67.354ZM114.05 58.954C114.05 56.974 115.67 55.354 117.65 55.354C119.63 55.354 121.25 56.974 121.25 58.954C121.25 60.934 119.63 62.554 117.65 62.554C115.67 62.554 114.05 60.946 114.05 58.954ZM135.65 67.354V70.954H128.45V67.354C128.45 65.374 130.07 63.754 132.05 63.754C134.03 63.754 135.65 65.374 135.65 67.354ZM128.45 58.954C128.45 56.974 130.07 55.354 132.05 55.354C134.03 55.354 135.65 56.974 135.65 58.954C135.65 60.934 134.03 62.554 132.05 62.554C130.07 62.554 128.45 60.946 128.45 58.954ZM165.65 92.554H156.05V60.154H165.65V92.554ZM165.65 58.954H156.05V56.554H165.65V58.954ZM174.05 84.25H168.05V54.154H153.65V84.25H140.45V70.954H136.85V67.354C136.85 65.53 135.818 63.97 134.33 63.154C135.83 62.338 136.85 60.778 136.85 58.954C136.85 56.302 134.702 54.154 132.05 54.154C129.398 54.154 127.25 56.302 127.25 58.954C127.25 60.778 128.282 62.338 129.77 63.154C128.27 63.97 127.25 65.53 127.25 67.354V70.954H122.45V67.354C122.45 65.53 121.418 63.97 119.93 63.154C121.43 62.338 122.45 60.778 122.45 58.954C122.45 56.302 120.302 54.154 117.65 54.154C114.998 54.154 112.85 56.302 112.85 58.954C112.85 60.778 113.882 62.338 115.37 63.154C113.87 63.97 112.85 65.53 112.85 67.354V70.954H109.25V84.25H104.45V43.354H174.05V84.25Z" fill="white"/>
</g>
<path d="M47.4142 138.258C47.3502 139.074 47.3022 139.858 47.2702 140.61C47.2542 141.362 47.2462 141.938 47.2462 142.338C47.2462 142.69 47.2542 143.026 47.2702 143.346C47.2862 143.666 47.3022 143.938 47.3182 144.162H46.7662C46.5102 142.818 46.1822 141.754 45.7822 140.97C45.3982 140.186 44.9342 139.634 44.3902 139.314C43.8462 138.978 43.2062 138.81 42.4702 138.81H41.9182V152.514C41.9182 153.154 41.9822 153.634 42.1102 153.954C42.2542 154.274 42.5102 154.49 42.8782 154.602C43.2462 154.698 43.7822 154.754 44.4862 154.77V155.25C43.9902 155.234 43.3262 155.218 42.4942 155.202C41.6782 155.186 40.8222 155.178 39.9262 155.178C39.0462 155.178 38.2142 155.186 37.4302 155.202C36.6462 155.218 36.0142 155.234 35.5342 155.25V154.77C36.2542 154.754 36.7982 154.698 37.1662 154.602C37.5342 154.49 37.7822 154.274 37.9102 153.954C38.0382 153.634 38.1022 153.154 38.1022 152.514V138.81H37.5742C36.8382 138.81 36.1982 138.978 35.6542 139.314C35.1102 139.634 34.6462 140.186 34.2622 140.97C33.8782 141.738 33.5422 142.802 33.2542 144.162H32.7022C32.7342 143.938 32.7502 143.666 32.7502 143.346C32.7662 143.026 32.7742 142.69 32.7742 142.338C32.7742 141.938 32.7582 141.362 32.7262 140.61C32.7102 139.858 32.6702 139.074 32.6062 138.258C33.3422 138.274 34.1422 138.29 35.0062 138.306C35.8862 138.322 36.7662 138.33 37.6462 138.33C38.5262 138.33 39.3182 138.33 40.0222 138.33C40.7422 138.33 41.5342 138.33 42.3982 138.33C43.2782 138.33 44.1582 138.322 45.0382 138.306C45.9182 138.29 46.7102 138.274 47.4142 138.258ZM56.8695 142.506C57.3815 142.506 57.7975 142.618 58.1175 142.842C58.4375 143.05 58.6695 143.322 58.8135 143.658C58.9735 143.994 59.0535 144.346 59.0535 144.714C59.0535 145.306 58.8775 145.794 58.5255 146.178C58.1895 146.546 57.7415 146.73 57.1815 146.73C56.6215 146.73 56.1815 146.594 55.8615 146.322C55.5575 146.034 55.4055 145.658 55.4055 145.194C55.4055 144.746 55.5015 144.378 55.6935 144.09C55.9015 143.786 56.1575 143.53 56.4615 143.322C56.2375 143.258 56.0135 143.266 55.7895 143.346C55.4855 143.394 55.1975 143.522 54.9255 143.73C54.6535 143.922 54.4215 144.17 54.2295 144.474C54.0375 144.762 53.8855 145.082 53.7735 145.434C53.6615 145.77 53.6055 146.098 53.6055 146.418V152.778C53.6055 153.546 53.7895 154.066 54.1575 154.338C54.5415 154.61 55.1095 154.746 55.8615 154.746V155.25C55.4935 155.234 54.9575 155.218 54.2535 155.202C53.5495 155.17 52.8135 155.154 52.0455 155.154C51.4055 155.154 50.7575 155.17 50.1015 155.202C49.4455 155.218 48.9495 155.234 48.6135 155.25V154.746C49.1735 154.746 49.5655 154.626 49.7895 154.386C50.0295 154.146 50.1495 153.69 50.1495 153.018V145.458C50.1495 144.738 50.0375 144.21 49.8135 143.874C49.6055 143.522 49.2055 143.346 48.6135 143.346V142.842C49.1255 142.89 49.6215 142.914 50.1015 142.914C50.7735 142.914 51.3975 142.89 51.9735 142.842C52.5655 142.778 53.1095 142.69 53.6055 142.578V144.81C53.7975 144.378 54.0535 143.986 54.3735 143.634C54.6935 143.282 55.0615 143.01 55.4775 142.818C55.8935 142.61 56.3575 142.506 56.8695 142.506ZM63.1286 155.418C62.4086 155.418 61.8086 155.282 61.3286 155.01C60.8486 154.738 60.4966 154.378 60.2726 153.93C60.0486 153.466 59.9366 152.962 59.9366 152.418C59.9366 151.73 60.0886 151.17 60.3926 150.738C60.7126 150.306 61.1206 149.954 61.6166 149.682C62.1126 149.41 62.6326 149.186 63.1766 149.01C63.7366 148.834 64.2646 148.666 64.7606 148.506C65.2726 148.33 65.6806 148.13 65.9846 147.906C66.3046 147.666 66.4646 147.362 66.4646 146.994V145.122C66.4646 144.706 66.3926 144.338 66.2486 144.018C66.1206 143.682 65.9126 143.426 65.6246 143.25C65.3526 143.074 64.9926 142.986 64.5446 142.986C64.2246 142.986 63.9046 143.034 63.5846 143.13C63.2646 143.21 63.0006 143.354 62.7926 143.562C63.2406 143.722 63.5846 143.97 63.8246 144.306C64.0806 144.626 64.2086 144.994 64.2086 145.41C64.2086 145.954 64.0166 146.386 63.6326 146.706C63.2646 147.026 62.8246 147.186 62.3126 147.186C61.7366 147.186 61.2966 147.01 60.9926 146.658C60.7046 146.29 60.5606 145.85 60.5606 145.338C60.5606 144.874 60.6726 144.49 60.8966 144.186C61.1366 143.882 61.4646 143.594 61.8806 143.322C62.3286 143.066 62.8646 142.866 63.4886 142.722C64.1286 142.578 64.8166 142.506 65.5526 142.506C66.2886 142.506 66.9526 142.586 67.5446 142.746C68.1366 142.89 68.6326 143.162 69.0326 143.562C69.4006 143.93 69.6406 144.386 69.7526 144.93C69.8646 145.458 69.9206 146.13 69.9206 146.946V153.474C69.9206 153.874 69.9606 154.154 70.0406 154.314C70.1206 154.458 70.2566 154.53 70.4486 154.53C70.5926 154.53 70.7286 154.49 70.8566 154.41C71.0006 154.33 71.1526 154.234 71.3126 154.122L71.5526 154.53C71.2166 154.818 70.8246 155.042 70.3766 155.202C69.9446 155.346 69.4566 155.418 68.9126 155.418C68.3206 155.418 67.8486 155.338 67.4966 155.178C67.1446 155.002 66.8886 154.77 66.7286 154.482C66.5846 154.194 66.5126 153.858 66.5126 153.474C66.1286 154.082 65.6646 154.562 65.1206 154.914C64.5766 155.25 63.9126 155.418 63.1286 155.418ZM64.8326 153.882C65.1526 153.882 65.4406 153.81 65.6966 153.666C65.9686 153.506 66.2246 153.25 66.4646 152.898V147.978C66.3206 148.218 66.1206 148.434 65.8646 148.626C65.6086 148.818 65.3366 149.018 65.0486 149.226C64.7606 149.418 64.4806 149.634 64.2086 149.874C63.9526 150.114 63.7446 150.41 63.5846 150.762C63.4246 151.114 63.3446 151.538 63.3446 152.034C63.3446 152.658 63.4806 153.122 63.7526 153.426C64.0246 153.73 64.3846 153.882 64.8326 153.882ZM84.0465 136.458V152.61C84.0465 153.33 84.1585 153.866 84.3825 154.218C84.6065 154.554 85.0065 154.722 85.5825 154.722V155.226C85.0865 155.178 84.5905 155.154 84.0945 155.154C83.4225 155.154 82.7905 155.178 82.1985 155.226C81.6225 155.274 81.0865 155.362 80.5905 155.49V139.338C80.5905 138.618 80.4785 138.09 80.2545 137.754C80.0465 137.402 79.6465 137.226 79.0545 137.226V136.722C79.5665 136.77 80.0625 136.794 80.5425 136.794C81.1985 136.794 81.8225 136.77 82.4145 136.722C83.0065 136.658 83.5505 136.57 84.0465 136.458ZM77.9265 142.506C78.6305 142.506 79.2465 142.626 79.7745 142.866C80.3185 143.09 80.7425 143.474 81.0465 144.018L80.7585 144.282C80.5505 143.898 80.2705 143.626 79.9185 143.466C79.5825 143.29 79.2225 143.202 78.8385 143.202C78.0225 143.202 77.3745 143.682 76.8945 144.642C76.4145 145.586 76.1825 147.05 76.1985 149.034C76.1985 150.394 76.2865 151.482 76.4625 152.298C76.6545 153.098 76.9185 153.674 77.2545 154.026C77.6065 154.378 78.0065 154.554 78.4545 154.554C78.9985 154.554 79.4865 154.338 79.9185 153.906C80.3505 153.474 80.5825 152.89 80.6145 152.154L80.7345 152.994C80.4945 153.842 80.1025 154.49 79.5585 154.938C79.0305 155.37 78.3345 155.586 77.4705 155.586C76.5265 155.586 75.6785 155.354 74.9265 154.89C74.1905 154.426 73.6145 153.714 73.1985 152.754C72.7825 151.778 72.5745 150.522 72.5745 148.986C72.5745 147.53 72.8065 146.33 73.2705 145.386C73.7345 144.426 74.3665 143.706 75.1665 143.226C75.9825 142.746 76.9025 142.506 77.9265 142.506ZM92.7742 142.506C94.1822 142.506 95.2862 142.922 96.0862 143.754C96.8862 144.586 97.2862 145.946 97.2862 147.834H89.3902L89.3422 147.378H94.2622C94.2782 146.594 94.2302 145.874 94.1182 145.218C94.0062 144.546 93.8302 144.01 93.5902 143.61C93.3502 143.21 93.0302 143.01 92.6302 143.01C92.0702 143.01 91.5902 143.362 91.1902 144.066C90.8062 144.77 90.5742 145.938 90.4942 147.57L90.5662 147.714C90.5502 147.906 90.5342 148.106 90.5182 148.314C90.5182 148.522 90.5182 148.738 90.5182 148.962C90.5182 150.066 90.6702 150.962 90.9742 151.65C91.2942 152.338 91.6942 152.842 92.1742 153.162C92.6542 153.466 93.1422 153.618 93.6382 153.618C93.9742 153.618 94.3182 153.57 94.6702 153.474C95.0382 153.362 95.4062 153.17 95.7742 152.898C96.1422 152.61 96.4862 152.21 96.8062 151.698L97.2382 151.842C97.0462 152.45 96.7422 153.042 96.3262 153.618C95.9102 154.194 95.3822 154.666 94.7422 155.034C94.1022 155.402 93.3342 155.586 92.4382 155.586C91.3502 155.586 90.3902 155.354 89.5582 154.89C88.7262 154.426 88.0702 153.722 87.5902 152.778C87.1262 151.834 86.8942 150.634 86.8942 149.178C86.8942 147.69 87.1422 146.45 87.6382 145.458C88.1502 144.466 88.8462 143.73 89.7262 143.25C90.6222 142.754 91.6382 142.506 92.7742 142.506ZM110.518 137.946C111.462 137.946 112.19 138.05 112.702 138.258C113.214 138.45 113.654 138.658 114.022 138.882C114.214 138.994 114.366 139.082 114.478 139.146C114.606 139.194 114.726 139.218 114.838 139.218C114.998 139.218 115.11 139.13 115.174 138.954C115.254 138.778 115.318 138.514 115.366 138.162H115.918C115.902 138.466 115.878 138.834 115.846 139.266C115.83 139.682 115.814 140.234 115.798 140.922C115.798 141.61 115.798 142.514 115.798 143.634H115.246C115.182 142.802 114.99 141.994 114.67 141.21C114.35 140.426 113.894 139.786 113.302 139.29C112.726 138.778 112.014 138.522 111.166 138.522C110.398 138.522 109.766 138.738 109.27 139.17C108.774 139.602 108.526 140.202 108.526 140.97C108.526 141.61 108.686 142.162 109.006 142.626C109.326 143.074 109.79 143.514 110.398 143.946C111.022 144.378 111.774 144.898 112.654 145.506C113.422 146.002 114.11 146.498 114.718 146.994C115.326 147.49 115.814 148.05 116.182 148.674C116.55 149.298 116.734 150.042 116.734 150.906C116.734 151.962 116.454 152.834 115.894 153.522C115.35 154.21 114.63 154.73 113.734 155.082C112.838 155.418 111.854 155.586 110.782 155.586C109.79 155.586 108.998 155.49 108.406 155.298C107.814 155.106 107.318 154.906 106.918 154.698C106.566 154.474 106.294 154.362 106.102 154.362C105.942 154.362 105.822 154.45 105.742 154.626C105.678 154.802 105.622 155.066 105.574 155.418H105.022C105.054 155.034 105.07 154.586 105.07 154.074C105.086 153.562 105.094 152.898 105.094 152.082C105.11 151.25 105.118 150.202 105.118 148.938H105.67C105.734 149.994 105.91 150.986 106.198 151.914C106.502 152.826 106.958 153.562 107.566 154.122C108.19 154.682 109.014 154.962 110.038 154.962C110.598 154.962 111.094 154.866 111.526 154.674C111.974 154.466 112.334 154.162 112.606 153.762C112.878 153.362 113.014 152.866 113.014 152.274C113.014 151.602 112.854 151.018 112.534 150.522C112.23 150.026 111.806 149.562 111.262 149.13C110.734 148.698 110.118 148.258 109.414 147.81C108.662 147.314 107.958 146.818 107.302 146.322C106.646 145.826 106.118 145.258 105.718 144.618C105.334 143.978 105.142 143.218 105.142 142.338C105.142 141.33 105.39 140.506 105.886 139.866C106.398 139.21 107.062 138.73 107.878 138.426C108.71 138.106 109.59 137.946 110.518 137.946ZM123.048 136.482V144.738C123.448 143.906 123.984 143.33 124.656 143.01C125.344 142.674 126.112 142.506 126.96 142.506C127.648 142.506 128.2 142.594 128.616 142.77C129.032 142.93 129.36 143.154 129.6 143.442C129.872 143.746 130.064 144.138 130.176 144.618C130.304 145.098 130.368 145.746 130.368 146.562V153.018C130.368 153.69 130.48 154.146 130.704 154.386C130.944 154.626 131.344 154.746 131.904 154.746V155.25C131.6 155.234 131.136 155.218 130.512 155.202C129.904 155.17 129.312 155.154 128.736 155.154C128.112 155.154 127.504 155.17 126.912 155.202C126.336 155.218 125.904 155.234 125.616 155.25V154.746C126.096 154.746 126.432 154.626 126.624 154.386C126.816 154.146 126.912 153.69 126.912 153.018V145.554C126.912 145.154 126.872 144.81 126.792 144.522C126.712 144.218 126.56 143.986 126.336 143.826C126.128 143.65 125.824 143.562 125.424 143.562C124.992 143.562 124.592 143.682 124.224 143.922C123.872 144.146 123.584 144.466 123.36 144.882C123.152 145.298 123.048 145.778 123.048 146.322V153.018C123.048 153.69 123.144 154.146 123.336 154.386C123.528 154.626 123.864 154.746 124.344 154.746V155.25C124.056 155.234 123.632 155.218 123.072 155.202C122.512 155.17 121.944 155.154 121.368 155.154C120.744 155.154 120.112 155.17 119.472 155.202C118.848 155.218 118.376 155.234 118.056 155.25V154.746C118.616 154.746 119.008 154.626 119.232 154.386C119.472 154.146 119.592 153.69 119.592 153.018V139.362C119.592 138.642 119.48 138.114 119.256 137.778C119.048 137.426 118.648 137.25 118.056 137.25V136.746C118.568 136.794 119.064 136.818 119.544 136.818C120.2 136.818 120.824 136.794 121.416 136.746C122.008 136.682 122.552 136.594 123.048 136.482ZM138.97 142.506C140.138 142.506 141.162 142.722 142.042 143.154C142.922 143.586 143.61 144.282 144.106 145.242C144.602 146.202 144.85 147.474 144.85 149.058C144.85 150.642 144.602 151.914 144.106 152.874C143.61 153.818 142.922 154.506 142.042 154.938C141.162 155.37 140.138 155.586 138.97 155.586C137.834 155.586 136.818 155.37 135.922 154.938C135.042 154.506 134.346 153.818 133.834 152.874C133.338 151.914 133.09 150.642 133.09 149.058C133.09 147.474 133.338 146.202 133.834 145.242C134.346 144.282 135.042 143.586 135.922 143.154C136.818 142.722 137.834 142.506 138.97 142.506ZM138.97 142.986C138.33 142.986 137.794 143.466 137.362 144.426C136.93 145.37 136.714 146.914 136.714 149.058C136.714 151.202 136.93 152.746 137.362 153.69C137.794 154.634 138.33 155.106 138.97 155.106C139.626 155.106 140.162 154.634 140.578 153.69C141.01 152.746 141.226 151.202 141.226 149.058C141.226 146.914 141.01 145.37 140.578 144.426C140.162 143.466 139.626 142.986 138.97 142.986ZM151.851 142.842V143.346C151.499 143.346 151.187 143.37 150.915 143.418C150.659 143.45 150.483 143.562 150.387 143.754C150.307 143.946 150.339 144.258 150.483 144.69L152.763 151.818L152.451 152.154L155.259 142.818L155.739 143.034L152.067 155.298C151.811 155.282 151.555 155.274 151.299 155.274C151.043 155.274 150.779 155.282 150.507 155.298L146.715 144.69C146.491 144.05 146.243 143.666 145.971 143.538C145.715 143.41 145.499 143.346 145.323 143.346V142.842C145.835 142.89 146.363 142.93 146.907 142.962C147.467 142.978 148.075 142.986 148.731 142.986C149.227 142.986 149.747 142.97 150.291 142.938C150.851 142.906 151.371 142.874 151.851 142.842ZM164.379 142.842V143.322C164.075 143.402 163.787 143.586 163.515 143.874C163.243 144.162 162.987 144.666 162.747 145.386L159.555 155.298C159.299 155.282 159.035 155.274 158.763 155.274C158.507 155.274 158.251 155.282 157.995 155.298L154.611 146.058L155.259 142.818C155.547 142.834 155.835 142.842 156.123 142.842C156.427 142.826 156.723 142.818 157.011 142.818L160.299 152.514L160.035 152.25L161.643 147.162C161.915 146.282 162.019 145.57 161.955 145.026C161.891 144.482 161.699 144.074 161.379 143.802C161.059 143.53 160.627 143.37 160.083 143.322V142.842C160.339 142.858 160.611 142.874 160.899 142.89C161.203 142.89 161.499 142.898 161.787 142.914C162.091 142.914 162.347 142.914 162.555 142.914C162.875 142.914 163.203 142.906 163.539 142.89C163.891 142.874 164.171 142.858 164.379 142.842ZM177.535 138.258C180.687 138.258 183.031 138.978 184.567 140.418C186.103 141.842 186.871 143.89 186.871 146.562C186.871 148.306 186.495 149.834 185.743 151.146C184.991 152.442 183.895 153.45 182.455 154.17C181.031 154.89 179.319 155.25 177.319 155.25C177.063 155.25 176.727 155.242 176.311 155.226C175.895 155.21 175.463 155.202 175.015 155.202C174.567 155.186 174.167 155.178 173.815 155.178C173.111 155.178 172.415 155.186 171.727 155.202C171.055 155.202 170.519 155.218 170.119 155.25V154.77C170.631 154.738 171.015 154.674 171.271 154.578C171.527 154.482 171.695 154.29 171.775 154.002C171.871 153.714 171.919 153.282 171.919 152.706V140.802C171.919 140.21 171.871 139.778 171.775 139.506C171.695 139.218 171.519 139.026 171.247 138.93C170.991 138.818 170.615 138.754 170.119 138.738V138.258C170.519 138.274 171.055 138.298 171.727 138.33C172.415 138.346 173.095 138.346 173.767 138.33C174.343 138.314 174.991 138.298 175.711 138.282C176.447 138.266 177.055 138.258 177.535 138.258ZM177.511 138.69C176.775 138.69 176.295 138.826 176.071 139.098C175.847 139.37 175.735 139.922 175.735 140.754V152.754C175.735 153.586 175.847 154.138 176.071 154.41C176.311 154.682 176.799 154.818 177.535 154.818C178.879 154.818 179.935 154.506 180.703 153.882C181.487 153.242 182.047 152.314 182.383 151.098C182.719 149.882 182.887 148.402 182.887 146.658C182.887 144.866 182.703 143.386 182.335 142.218C181.983 141.034 181.415 140.154 180.631 139.578C179.847 138.986 178.807 138.69 177.511 138.69ZM194.704 142.506C196.112 142.506 197.216 142.922 198.016 143.754C198.816 144.586 199.216 145.946 199.216 147.834H191.32L191.272 147.378H196.192C196.208 146.594 196.16 145.874 196.048 145.218C195.936 144.546 195.76 144.01 195.52 143.61C195.28 143.21 194.96 143.01 194.56 143.01C194 143.01 193.52 143.362 193.12 144.066C192.736 144.77 192.504 145.938 192.424 147.57L192.496 147.714C192.48 147.906 192.464 148.106 192.448 148.314C192.448 148.522 192.448 148.738 192.448 148.962C192.448 150.066 192.6 150.962 192.904 151.65C193.224 152.338 193.624 152.842 194.104 153.162C194.584 153.466 195.072 153.618 195.568 153.618C195.904 153.618 196.248 153.57 196.6 153.474C196.968 153.362 197.336 153.17 197.704 152.898C198.072 152.61 198.416 152.21 198.736 151.698L199.168 151.842C198.976 152.45 198.672 153.042 198.256 153.618C197.84 154.194 197.312 154.666 196.672 155.034C196.032 155.402 195.264 155.586 194.368 155.586C193.28 155.586 192.32 155.354 191.488 154.89C190.656 154.426 190 153.722 189.52 152.778C189.056 151.834 188.824 150.634 188.824 149.178C188.824 147.69 189.072 146.45 189.568 145.458C190.08 144.466 190.776 143.73 191.656 143.25C192.552 142.754 193.568 142.506 194.704 142.506ZM205.358 142.506C206.03 142.506 206.614 142.594 207.11 142.77C207.622 142.93 207.99 143.09 208.214 143.25C208.758 143.618 209.094 143.378 209.222 142.53H209.726C209.694 142.978 209.67 143.53 209.654 144.186C209.638 144.826 209.63 145.682 209.63 146.754H209.126C209.046 146.162 208.894 145.578 208.67 145.002C208.446 144.426 208.118 143.954 207.686 143.586C207.27 143.218 206.726 143.034 206.054 143.034C205.59 143.034 205.198 143.17 204.878 143.442C204.558 143.698 204.398 144.074 204.398 144.57C204.398 145.05 204.542 145.474 204.83 145.842C205.118 146.194 205.486 146.538 205.934 146.874C206.398 147.194 206.878 147.538 207.374 147.906C207.902 148.306 208.382 148.706 208.814 149.106C209.246 149.49 209.59 149.914 209.846 150.378C210.102 150.842 210.23 151.394 210.23 152.034C210.23 152.754 210.022 153.386 209.606 153.93C209.19 154.458 208.638 154.866 207.95 155.154C207.278 155.442 206.526 155.586 205.694 155.586C205.214 155.586 204.782 155.538 204.398 155.442C204.03 155.346 203.71 155.226 203.438 155.082C203.23 154.986 203.03 154.898 202.838 154.818C202.662 154.722 202.494 154.642 202.334 154.578C202.174 154.53 202.03 154.586 201.902 154.746C201.79 154.906 201.702 155.13 201.638 155.418H201.134C201.166 154.906 201.19 154.282 201.206 153.546C201.222 152.81 201.23 151.834 201.23 150.618H201.734C201.83 151.482 202.006 152.25 202.262 152.922C202.518 153.578 202.862 154.098 203.294 154.482C203.742 154.85 204.302 155.034 204.974 155.034C205.246 155.034 205.51 154.978 205.766 154.866C206.022 154.754 206.23 154.57 206.39 154.314C206.566 154.058 206.654 153.73 206.654 153.33C206.654 152.626 206.422 152.042 205.958 151.578C205.51 151.114 204.934 150.61 204.23 150.066C203.718 149.65 203.23 149.242 202.766 148.842C202.318 148.426 201.95 147.978 201.662 147.498C201.374 147.002 201.23 146.442 201.23 145.818C201.23 145.098 201.422 144.49 201.806 143.994C202.19 143.498 202.694 143.13 203.318 142.89C203.958 142.634 204.638 142.506 205.358 142.506ZM214.812 136.65C215.484 136.65 216.012 136.818 216.396 137.154C216.796 137.474 216.996 137.922 216.996 138.498C216.996 139.074 216.796 139.53 216.396 139.866C216.012 140.186 215.484 140.346 214.812 140.346C214.14 140.346 213.604 140.186 213.204 139.866C212.82 139.53 212.628 139.074 212.628 138.498C212.628 137.922 212.82 137.474 213.204 137.154C213.604 136.818 214.14 136.65 214.812 136.65ZM216.684 142.578V153.018C216.684 153.69 216.796 154.146 217.02 154.386C217.26 154.626 217.66 154.746 218.22 154.746V155.25C217.932 155.234 217.484 155.218 216.876 155.202C216.268 155.17 215.652 155.154 215.028 155.154C214.404 155.154 213.772 155.17 213.132 155.202C212.492 155.218 212.012 155.234 211.692 155.25V154.746C212.252 154.746 212.644 154.626 212.868 154.386C213.108 154.146 213.228 153.69 213.228 153.018V145.458C213.228 144.738 213.116 144.21 212.892 143.874C212.684 143.522 212.284 143.346 211.692 143.346V142.842C212.204 142.89 212.7 142.914 213.18 142.914C213.852 142.914 214.476 142.89 215.052 142.842C215.644 142.778 216.188 142.69 216.684 142.578ZM223.918 159.762C222.926 159.762 222.038 159.674 221.254 159.498C220.486 159.338 219.878 159.082 219.43 158.73C218.998 158.394 218.782 157.978 218.782 157.482C218.782 156.986 219.006 156.538 219.454 156.138C219.902 155.754 220.566 155.45 221.446 155.226L221.662 155.61C221.358 155.85 221.134 156.106 220.99 156.378C220.862 156.666 220.798 156.962 220.798 157.266C220.798 157.938 221.102 158.45 221.71 158.802C222.334 159.17 223.174 159.354 224.23 159.354C224.95 159.354 225.59 159.258 226.15 159.066C226.726 158.874 227.174 158.586 227.494 158.202C227.83 157.818 227.998 157.346 227.998 156.786C227.998 156.306 227.822 155.898 227.47 155.562C227.118 155.242 226.414 155.082 225.358 155.082H223.87C223.214 155.082 222.638 155.01 222.142 154.866C221.662 154.722 221.286 154.498 221.014 154.194C220.742 153.874 220.606 153.474 220.606 152.994C220.606 152.322 220.87 151.73 221.398 151.218C221.926 150.706 222.71 150.226 223.75 149.778L223.99 149.97C223.686 150.162 223.398 150.37 223.126 150.594C222.87 150.802 222.742 151.074 222.742 151.41C222.742 151.922 223.062 152.178 223.702 152.178H226.318C227.198 152.178 227.982 152.282 228.67 152.49C229.374 152.698 229.926 153.042 230.326 153.522C230.742 153.986 230.95 154.594 230.95 155.346C230.95 156.13 230.694 156.858 230.182 157.53C229.686 158.202 228.918 158.738 227.878 159.138C226.838 159.554 225.518 159.762 223.918 159.762ZM224.158 150.138C223.246 150.138 222.43 150.002 221.71 149.73C220.99 149.458 220.422 149.042 220.006 148.482C219.59 147.922 219.382 147.202 219.382 146.322C219.382 145.442 219.59 144.722 220.006 144.162C220.422 143.586 220.99 143.17 221.71 142.914C222.43 142.642 223.246 142.506 224.158 142.506C225.07 142.506 225.886 142.642 226.606 142.914C227.326 143.17 227.894 143.586 228.31 144.162C228.726 144.722 228.934 145.442 228.934 146.322C228.934 147.202 228.726 147.922 228.31 148.482C227.894 149.042 227.326 149.458 226.606 149.73C225.886 150.002 225.07 150.138 224.158 150.138ZM224.158 149.706C224.59 149.706 224.926 149.466 225.166 148.986C225.406 148.49 225.526 147.602 225.526 146.322C225.526 145.042 225.406 144.162 225.166 143.682C224.926 143.186 224.59 142.938 224.158 142.938C223.742 142.938 223.406 143.186 223.15 143.682C222.91 144.162 222.79 145.042 222.79 146.322C222.79 147.602 222.91 148.49 223.15 148.986C223.406 149.466 223.742 149.706 224.158 149.706ZM227.902 144.57L227.422 144.402C227.662 143.778 228.046 143.258 228.574 142.842C229.118 142.426 229.702 142.218 230.326 142.218C230.838 142.218 231.222 142.362 231.478 142.65C231.75 142.922 231.886 143.282 231.886 143.73C231.886 144.21 231.758 144.57 231.502 144.81C231.246 145.034 230.958 145.146 230.638 145.146C230.366 145.146 230.11 145.05 229.87 144.858C229.646 144.666 229.518 144.378 229.486 143.994C229.454 143.594 229.59 143.082 229.894 142.458L230.062 142.602C229.454 142.826 228.998 143.09 228.694 143.394C228.39 143.682 228.126 144.074 227.902 144.57ZM241.456 142.506C242.128 142.506 242.672 142.594 243.088 142.77C243.52 142.93 243.856 143.154 244.096 143.442C244.352 143.746 244.536 144.138 244.648 144.618C244.776 145.098 244.84 145.746 244.84 146.562V153.018C244.84 153.69 244.952 154.146 245.176 154.386C245.416 154.626 245.816 154.746 246.376 154.746V155.25C246.072 155.234 245.616 155.218 245.008 155.202C244.4 155.17 243.8 155.154 243.208 155.154C242.6 155.154 242 155.17 241.408 155.202C240.832 155.218 240.392 155.234 240.088 155.25V154.746C240.568 154.746 240.904 154.626 241.096 154.386C241.288 154.146 241.384 153.69 241.384 153.018V145.554C241.384 145.154 241.344 144.81 241.264 144.522C241.184 144.218 241.04 143.986 240.832 143.826C240.624 143.65 240.312 143.562 239.896 143.562C239.464 143.562 239.064 143.682 238.696 143.922C238.344 144.162 238.056 144.498 237.832 144.93C237.624 145.346 237.52 145.818 237.52 146.346V153.018C237.52 153.69 237.616 154.146 237.808 154.386C238.016 154.626 238.352 154.746 238.816 154.746V155.25C238.528 155.234 238.104 155.218 237.544 155.202C237 155.17 236.432 155.154 235.84 155.154C235.232 155.154 234.608 155.17 233.968 155.202C233.328 155.218 232.848 155.234 232.528 155.25V154.746C233.088 154.746 233.48 154.626 233.704 154.386C233.944 154.146 234.064 153.69 234.064 153.018V145.458C234.064 144.738 233.952 144.21 233.728 143.874C233.52 143.522 233.12 143.346 232.528 143.346V142.842C233.04 142.89 233.536 142.914 234.016 142.914C234.688 142.914 235.312 142.89 235.888 142.842C236.48 142.778 237.024 142.69 237.52 142.578V144.738C237.92 143.922 238.464 143.346 239.152 143.01C239.84 142.674 240.608 142.506 241.456 142.506Z" fill="white"/>
<defs>
<clipPath id="clip0_1_202">
<rect width="120" height="120" fill="white" transform="translate(79.25 0.25)"/>
</clipPath>
</defs>
</svg>
