<svg width="36" height="37" viewBox="0 0 36 37" fill="none" xmlns="http://www.w3.org/2000/svg">
<rect y="0.65625" width="36" height="36" rx="18" fill="black"/>
<g clip-path="url(#clip0_1_312)">
<path d="M27.5 12.9563C26.8 13.2563 26 13.4562 25.2 13.5562C26 13.0562 26.6 12.2562 26.9 11.3562C26.1 11.8562 25.3 12.1562 24.4 12.3562C23.7 11.5562 22.6 11.1562 21.5 11.1562C19.3 11.1562 17.5 12.9562 17.5 15.1562C17.5 15.4563 17.5 15.7562 17.6 16.0562C14.3 15.8562 11.4 14.3563 9.39999 11.9563C9.09999 12.5563 8.89999 13.2563 8.89999 13.9563C8.89999 15.3563 9.59999 16.5563 10.7 17.2563C10.1 17.2563 9.39999 17.0563 8.89999 16.7563C8.89999 18.6563 10.3 20.2563 12.1 20.6562C11.8 20.7563 11.4 20.7563 11.1 20.7563C10.8 20.7563 10.6 20.7563 10.4 20.6562C10.9 22.2563 12.4 23.3563 14.1 23.3563C12.7 24.4563 11 25.0562 9.19999 25.0562C8.89999 25.0562 8.59999 25.0562 8.29999 24.9562C10.1 26.0562 12.1 26.7563 14.4 26.7563C21.7 26.7563 25.7 20.7563 25.7 15.4563V14.9563C26.3 14.4563 26.9 13.7563 27.5 12.9563Z" fill="white"/>
</g>
<defs>
<clipPath id="clip0_1_312">
<rect width="36" height="36" fill="white" transform="translate(0 0.65625)"/>
</clipPath>
</defs>
</svg>
