<svg width="278" height="161" viewBox="0 0 278 161" fill="none" xmlns="http://www.w3.org/2000/svg">
<g clip-path="url(#clip0_1_197)">
<path d="M138.822 0.25C138.798 0.25 138.774 0.25 138.75 0.25C105.642 0.25 78.7981 27.058 78.7501 60.178C78.7021 93.31 105.534 120.202 138.678 120.25C138.702 120.25 138.726 120.25 138.75 120.25C171.846 120.25 198.702 93.442 198.75 60.322C198.798 27.19 171.966 0.298 138.822 0.25ZM138.75 117.85H138.678C106.914 117.814 81.1141 91.942 81.1501 60.178C81.1861 28.462 107.034 2.65 138.75 2.65H138.822C170.586 2.686 196.386 28.558 196.35 60.322C196.314 92.038 170.466 117.85 138.75 117.85ZM169.95 31.546H100.35V79.546H130.35V84.346H124.35V86.746H145.95V84.346H139.95V79.546H153.15V93.946H177.15V57.946H169.95V31.546ZM137.55 84.346H132.75V79.546H137.55V84.346ZM153.15 77.146H102.75V33.946H167.55V57.946H153.15V77.146ZM174.75 60.346V91.546H155.55V60.346H174.75Z" fill="white"/>
</g>
<path d="M96.8822 138.258V138.738C96.5302 138.866 96.1622 139.146 95.7782 139.578C95.3942 139.994 95.0582 140.666 94.7702 141.594L90.5462 155.298C90.4182 155.282 90.2822 155.274 90.1382 155.274C89.9942 155.274 89.8502 155.274 89.7062 155.274C89.5622 155.274 89.4182 155.274 89.2742 155.274C89.1302 155.274 88.9942 155.282 88.8662 155.298L83.8262 140.034C83.6662 139.538 83.4662 139.202 83.2262 139.026C83.0022 138.85 82.7622 138.754 82.5062 138.738V138.258C82.9542 138.274 83.4822 138.29 84.0902 138.306C84.7142 138.322 85.3302 138.33 85.9382 138.33C86.6422 138.33 87.2982 138.322 87.9062 138.306C88.5302 138.29 89.0262 138.274 89.3942 138.258V138.738C88.9142 138.754 88.5302 138.81 88.2422 138.906C87.9702 139.002 87.8102 139.186 87.7622 139.458C87.7302 139.73 87.8102 140.162 88.0022 140.754L91.4102 151.17L90.8582 152.154L93.5702 143.538C93.9542 142.322 94.1382 141.37 94.1222 140.682C94.1062 139.994 93.9222 139.506 93.5702 139.218C93.2182 138.914 92.7142 138.754 92.0582 138.738V138.258C92.6022 138.274 93.1142 138.29 93.5942 138.306C94.0742 138.322 94.5542 138.33 95.0342 138.33C95.4022 138.33 95.7382 138.322 96.0423 138.306C96.3622 138.29 96.6422 138.274 96.8822 138.258ZM79.7462 138.258V138.738C79.4262 138.786 79.2022 138.906 79.0742 139.098C78.9462 139.274 78.8902 139.514 78.9062 139.818C78.9382 140.106 79.0102 140.418 79.1222 140.754L82.7942 151.41L82.1462 152.274L85.2182 143.298L85.5542 143.946L81.7862 155.298C81.6582 155.282 81.5222 155.274 81.3782 155.274C81.2342 155.274 81.0902 155.274 80.9462 155.274C80.8022 155.274 80.6582 155.274 80.5142 155.274C80.3702 155.274 80.2342 155.282 80.1062 155.298L74.7302 140.274C74.5222 139.682 74.2742 139.282 73.9862 139.074C73.7142 138.866 73.4582 138.754 73.2182 138.738V138.258C73.6982 138.274 74.2662 138.29 74.9222 138.306C75.5782 138.322 76.2022 138.33 76.7942 138.33C77.4342 138.33 78.0022 138.322 78.4982 138.306C79.0102 138.29 79.4262 138.274 79.7462 138.258ZM101.813 142.506C103.221 142.506 104.325 142.922 105.125 143.754C105.925 144.586 106.325 145.946 106.325 147.834H98.4293L98.3813 147.378H103.301C103.317 146.594 103.269 145.874 103.157 145.218C103.045 144.546 102.869 144.01 102.629 143.61C102.389 143.21 102.069 143.01 101.669 143.01C101.109 143.01 100.629 143.362 100.229 144.066C99.8453 144.77 99.6133 145.938 99.5333 147.57L99.6053 147.714C99.5893 147.906 99.5733 148.106 99.5573 148.314C99.5573 148.522 99.5573 148.738 99.5573 148.962C99.5573 150.066 99.7093 150.962 100.013 151.65C100.333 152.338 100.733 152.842 101.213 153.162C101.693 153.466 102.181 153.618 102.677 153.618C103.013 153.618 103.357 153.57 103.709 153.474C104.077 153.362 104.445 153.17 104.813 152.898C105.181 152.61 105.525 152.21 105.845 151.698L106.277 151.842C106.085 152.45 105.781 153.042 105.365 153.618C104.949 154.194 104.421 154.666 103.781 155.034C103.141 155.402 102.373 155.586 101.477 155.586C100.389 155.586 99.4293 155.354 98.5973 154.89C97.7653 154.426 97.1093 153.722 96.6293 152.778C96.1653 151.834 95.9333 150.634 95.9333 149.178C95.9333 147.69 96.1813 146.45 96.6773 145.458C97.1893 144.466 97.8853 143.73 98.7653 143.25C99.6613 142.754 100.677 142.506 101.813 142.506ZM115.947 142.506C117.195 142.506 118.227 143.018 119.043 144.042C119.875 145.05 120.291 146.61 120.291 148.722C120.291 150.386 120.035 151.722 119.523 152.73C119.027 153.738 118.363 154.466 117.531 154.914C116.699 155.362 115.787 155.586 114.795 155.586C114.139 155.586 113.531 155.474 112.971 155.25C112.411 155.026 111.931 154.658 111.531 154.146L111.867 154.026C112.155 154.378 112.491 154.642 112.875 154.818C113.275 154.994 113.667 155.082 114.051 155.082C114.931 155.082 115.587 154.586 116.019 153.594C116.451 152.602 116.667 151.09 116.667 149.058C116.667 147.682 116.579 146.594 116.403 145.794C116.243 144.978 116.003 144.402 115.683 144.066C115.363 143.714 114.979 143.538 114.531 143.538C113.971 143.538 113.459 143.77 112.995 144.234C112.531 144.682 112.267 145.314 112.203 146.13L112.083 145.29C112.371 144.378 112.859 143.69 113.547 143.226C114.235 142.746 115.035 142.506 115.947 142.506ZM112.275 136.482V154.77C111.875 154.706 111.467 154.706 111.051 154.77C110.635 154.834 110.251 154.946 109.899 155.106C109.547 155.25 109.251 155.426 109.011 155.634L108.651 155.418C108.715 155.194 108.755 154.97 108.771 154.746C108.803 154.522 108.819 154.298 108.819 154.074V139.362C108.819 138.642 108.707 138.114 108.483 137.778C108.275 137.426 107.875 137.25 107.283 137.25V136.746C107.795 136.794 108.291 136.818 108.771 136.818C109.427 136.818 110.051 136.794 110.643 136.746C111.235 136.682 111.779 136.594 112.275 136.482ZM135.035 138.258C138.187 138.258 140.531 138.978 142.067 140.418C143.603 141.842 144.371 143.89 144.371 146.562C144.371 148.306 143.995 149.834 143.243 151.146C142.491 152.442 141.395 153.45 139.955 154.17C138.531 154.89 136.819 155.25 134.819 155.25C134.563 155.25 134.227 155.242 133.811 155.226C133.395 155.21 132.963 155.202 132.515 155.202C132.067 155.186 131.667 155.178 131.315 155.178C130.611 155.178 129.915 155.186 129.227 155.202C128.555 155.202 128.019 155.218 127.619 155.25V154.77C128.131 154.738 128.515 154.674 128.771 154.578C129.027 154.482 129.195 154.29 129.275 154.002C129.371 153.714 129.419 153.282 129.419 152.706V140.802C129.419 140.21 129.371 139.778 129.275 139.506C129.195 139.218 129.019 139.026 128.747 138.93C128.491 138.818 128.115 138.754 127.619 138.738V138.258C128.019 138.274 128.555 138.298 129.227 138.33C129.915 138.346 130.595 138.346 131.267 138.33C131.843 138.314 132.491 138.298 133.211 138.282C133.947 138.266 134.555 138.258 135.035 138.258ZM135.011 138.69C134.275 138.69 133.795 138.826 133.571 139.098C133.347 139.37 133.235 139.922 133.235 140.754V152.754C133.235 153.586 133.347 154.138 133.571 154.41C133.811 154.682 134.299 154.818 135.035 154.818C136.379 154.818 137.435 154.506 138.203 153.882C138.987 153.242 139.547 152.314 139.883 151.098C140.219 149.882 140.387 148.402 140.387 146.658C140.387 144.866 140.203 143.386 139.835 142.218C139.483 141.034 138.915 140.154 138.131 139.578C137.347 138.986 136.307 138.69 135.011 138.69ZM152.204 142.506C153.612 142.506 154.716 142.922 155.516 143.754C156.316 144.586 156.716 145.946 156.716 147.834H148.82L148.772 147.378H153.692C153.708 146.594 153.66 145.874 153.548 145.218C153.436 144.546 153.26 144.01 153.02 143.61C152.78 143.21 152.46 143.01 152.06 143.01C151.5 143.01 151.02 143.362 150.62 144.066C150.236 144.77 150.004 145.938 149.924 147.57L149.996 147.714C149.98 147.906 149.964 148.106 149.948 148.314C149.948 148.522 149.948 148.738 149.948 148.962C149.948 150.066 150.1 150.962 150.404 151.65C150.724 152.338 151.124 152.842 151.604 153.162C152.084 153.466 152.572 153.618 153.068 153.618C153.404 153.618 153.748 153.57 154.1 153.474C154.468 153.362 154.836 153.17 155.204 152.898C155.572 152.61 155.916 152.21 156.236 151.698L156.668 151.842C156.476 152.45 156.172 153.042 155.756 153.618C155.34 154.194 154.812 154.666 154.172 155.034C153.532 155.402 152.764 155.586 151.868 155.586C150.78 155.586 149.82 155.354 148.988 154.89C148.156 154.426 147.5 153.722 147.02 152.778C146.556 151.834 146.324 150.634 146.324 149.178C146.324 147.69 146.572 146.45 147.068 145.458C147.58 144.466 148.276 143.73 149.156 143.25C150.052 142.754 151.068 142.506 152.204 142.506ZM162.858 142.506C163.53 142.506 164.114 142.594 164.61 142.77C165.122 142.93 165.49 143.09 165.714 143.25C166.258 143.618 166.594 143.378 166.722 142.53H167.226C167.194 142.978 167.17 143.53 167.154 144.186C167.138 144.826 167.13 145.682 167.13 146.754H166.626C166.546 146.162 166.394 145.578 166.17 145.002C165.946 144.426 165.618 143.954 165.186 143.586C164.77 143.218 164.226 143.034 163.554 143.034C163.09 143.034 162.698 143.17 162.378 143.442C162.058 143.698 161.898 144.074 161.898 144.57C161.898 145.05 162.042 145.474 162.33 145.842C162.618 146.194 162.986 146.538 163.434 146.874C163.898 147.194 164.378 147.538 164.874 147.906C165.402 148.306 165.882 148.706 166.314 149.106C166.746 149.49 167.09 149.914 167.346 150.378C167.602 150.842 167.73 151.394 167.73 152.034C167.73 152.754 167.522 153.386 167.106 153.93C166.69 154.458 166.138 154.866 165.45 155.154C164.778 155.442 164.026 155.586 163.194 155.586C162.714 155.586 162.282 155.538 161.898 155.442C161.53 155.346 161.21 155.226 160.938 155.082C160.73 154.986 160.53 154.898 160.338 154.818C160.162 154.722 159.994 154.642 159.834 154.578C159.674 154.53 159.53 154.586 159.402 154.746C159.29 154.906 159.202 155.13 159.138 155.418H158.634C158.666 154.906 158.69 154.282 158.706 153.546C158.722 152.81 158.73 151.834 158.73 150.618H159.234C159.33 151.482 159.506 152.25 159.762 152.922C160.018 153.578 160.362 154.098 160.794 154.482C161.242 154.85 161.802 155.034 162.474 155.034C162.746 155.034 163.01 154.978 163.266 154.866C163.522 154.754 163.73 154.57 163.89 154.314C164.066 154.058 164.154 153.73 164.154 153.33C164.154 152.626 163.922 152.042 163.458 151.578C163.01 151.114 162.434 150.61 161.73 150.066C161.218 149.65 160.73 149.242 160.266 148.842C159.818 148.426 159.45 147.978 159.162 147.498C158.874 147.002 158.73 146.442 158.73 145.818C158.73 145.098 158.922 144.49 159.306 143.994C159.69 143.498 160.194 143.13 160.818 142.89C161.458 142.634 162.138 142.506 162.858 142.506ZM172.312 136.65C172.984 136.65 173.512 136.818 173.896 137.154C174.296 137.474 174.496 137.922 174.496 138.498C174.496 139.074 174.296 139.53 173.896 139.866C173.512 140.186 172.984 140.346 172.312 140.346C171.64 140.346 171.104 140.186 170.704 139.866C170.32 139.53 170.128 139.074 170.128 138.498C170.128 137.922 170.32 137.474 170.704 137.154C171.104 136.818 171.64 136.65 172.312 136.65ZM174.184 142.578V153.018C174.184 153.69 174.296 154.146 174.52 154.386C174.76 154.626 175.16 154.746 175.72 154.746V155.25C175.432 155.234 174.984 155.218 174.376 155.202C173.768 155.17 173.152 155.154 172.528 155.154C171.904 155.154 171.272 155.17 170.632 155.202C169.992 155.218 169.512 155.234 169.192 155.25V154.746C169.752 154.746 170.144 154.626 170.368 154.386C170.608 154.146 170.728 153.69 170.728 153.018V145.458C170.728 144.738 170.616 144.21 170.392 143.874C170.184 143.522 169.784 143.346 169.192 143.346V142.842C169.704 142.89 170.2 142.914 170.68 142.914C171.352 142.914 171.976 142.89 172.552 142.842C173.144 142.778 173.688 142.69 174.184 142.578ZM181.418 159.762C180.426 159.762 179.538 159.674 178.754 159.498C177.986 159.338 177.378 159.082 176.93 158.73C176.498 158.394 176.282 157.978 176.282 157.482C176.282 156.986 176.506 156.538 176.954 156.138C177.402 155.754 178.066 155.45 178.946 155.226L179.162 155.61C178.858 155.85 178.634 156.106 178.49 156.378C178.362 156.666 178.298 156.962 178.298 157.266C178.298 157.938 178.602 158.45 179.21 158.802C179.834 159.17 180.674 159.354 181.73 159.354C182.45 159.354 183.09 159.258 183.65 159.066C184.226 158.874 184.674 158.586 184.994 158.202C185.33 157.818 185.498 157.346 185.498 156.786C185.498 156.306 185.322 155.898 184.97 155.562C184.618 155.242 183.914 155.082 182.858 155.082H181.37C180.714 155.082 180.138 155.01 179.642 154.866C179.162 154.722 178.786 154.498 178.514 154.194C178.242 153.874 178.106 153.474 178.106 152.994C178.106 152.322 178.37 151.73 178.898 151.218C179.426 150.706 180.21 150.226 181.25 149.778L181.49 149.97C181.186 150.162 180.898 150.37 180.626 150.594C180.37 150.802 180.242 151.074 180.242 151.41C180.242 151.922 180.562 152.178 181.202 152.178H183.818C184.698 152.178 185.482 152.282 186.17 152.49C186.874 152.698 187.426 153.042 187.826 153.522C188.242 153.986 188.45 154.594 188.45 155.346C188.45 156.13 188.194 156.858 187.682 157.53C187.186 158.202 186.418 158.738 185.378 159.138C184.338 159.554 183.018 159.762 181.418 159.762ZM181.658 150.138C180.746 150.138 179.93 150.002 179.21 149.73C178.49 149.458 177.922 149.042 177.506 148.482C177.09 147.922 176.882 147.202 176.882 146.322C176.882 145.442 177.09 144.722 177.506 144.162C177.922 143.586 178.49 143.17 179.21 142.914C179.93 142.642 180.746 142.506 181.658 142.506C182.57 142.506 183.386 142.642 184.106 142.914C184.826 143.17 185.394 143.586 185.81 144.162C186.226 144.722 186.434 145.442 186.434 146.322C186.434 147.202 186.226 147.922 185.81 148.482C185.394 149.042 184.826 149.458 184.106 149.73C183.386 150.002 182.57 150.138 181.658 150.138ZM181.658 149.706C182.09 149.706 182.426 149.466 182.666 148.986C182.906 148.49 183.026 147.602 183.026 146.322C183.026 145.042 182.906 144.162 182.666 143.682C182.426 143.186 182.09 142.938 181.658 142.938C181.242 142.938 180.906 143.186 180.65 143.682C180.41 144.162 180.29 145.042 180.29 146.322C180.29 147.602 180.41 148.49 180.65 148.986C180.906 149.466 181.242 149.706 181.658 149.706ZM185.402 144.57L184.922 144.402C185.162 143.778 185.546 143.258 186.074 142.842C186.618 142.426 187.202 142.218 187.826 142.218C188.338 142.218 188.722 142.362 188.978 142.65C189.25 142.922 189.386 143.282 189.386 143.73C189.386 144.21 189.258 144.57 189.002 144.81C188.746 145.034 188.458 145.146 188.138 145.146C187.866 145.146 187.61 145.05 187.37 144.858C187.146 144.666 187.018 144.378 186.986 143.994C186.954 143.594 187.09 143.082 187.394 142.458L187.562 142.602C186.954 142.826 186.498 143.09 186.194 143.394C185.89 143.682 185.626 144.074 185.402 144.57ZM198.956 142.506C199.628 142.506 200.172 142.594 200.588 142.77C201.02 142.93 201.356 143.154 201.596 143.442C201.852 143.746 202.036 144.138 202.148 144.618C202.276 145.098 202.34 145.746 202.34 146.562V153.018C202.34 153.69 202.452 154.146 202.676 154.386C202.916 154.626 203.316 154.746 203.876 154.746V155.25C203.572 155.234 203.116 155.218 202.508 155.202C201.9 155.17 201.3 155.154 200.708 155.154C200.1 155.154 199.5 155.17 198.908 155.202C198.332 155.218 197.892 155.234 197.588 155.25V154.746C198.068 154.746 198.404 154.626 198.596 154.386C198.788 154.146 198.884 153.69 198.884 153.018V145.554C198.884 145.154 198.844 144.81 198.764 144.522C198.684 144.218 198.54 143.986 198.332 143.826C198.124 143.65 197.812 143.562 197.396 143.562C196.964 143.562 196.564 143.682 196.196 143.922C195.844 144.162 195.556 144.498 195.332 144.93C195.124 145.346 195.02 145.818 195.02 146.346V153.018C195.02 153.69 195.116 154.146 195.308 154.386C195.516 154.626 195.852 154.746 196.316 154.746V155.25C196.028 155.234 195.604 155.218 195.044 155.202C194.5 155.17 193.932 155.154 193.34 155.154C192.732 155.154 192.108 155.17 191.468 155.202C190.828 155.218 190.348 155.234 190.028 155.25V154.746C190.588 154.746 190.98 154.626 191.204 154.386C191.444 154.146 191.564 153.69 191.564 153.018V145.458C191.564 144.738 191.452 144.21 191.228 143.874C191.02 143.522 190.62 143.346 190.028 143.346V142.842C190.54 142.89 191.036 142.914 191.516 142.914C192.188 142.914 192.812 142.89 193.388 142.842C193.98 142.778 194.524 142.69 195.02 142.578V144.738C195.42 143.922 195.964 143.346 196.652 143.01C197.34 142.674 198.108 142.506 198.956 142.506Z" fill="white"/>
<defs>
<clipPath id="clip0_1_197">
<rect width="120" height="120" fill="white" transform="translate(78.75 0.25)"/>
</clipPath>
</defs>
</svg>
